<?xml version="1.0" standalone="no"?>
<!DOCTYPE svg PUBLIC "-//W3C//DTD SVG 1.1//EN" "http://www.w3.org/Graphics/SVG/1.1/DTD/svg11.dtd" >
<svg>
<metadata>
Created by FontForge 20090622 at Thu Feb 23 13:47:14 2017
 By deploy user
Copyright - GLT by 2005,MGT by 2005,OrhonIT by 2014 All right reserved.
</metadata>
<defs>
<font id="OrhonHawangTig-H-Regular" horiz-adv-x="256" >
  <font-face 
    font-family="OrhonHawangTig-H"
    font-weight="400"
    font-stretch="normal"
    units-per-em="256"
    panose-1="3 0 5 2 0 0 0 0 0 0"
    ascent="204"
    descent="-52"
    x-height="143"
    cap-height="143"
    bbox="-52 -80 407 221"
    underline-thickness="12"
    underline-position="-38"
    unicode-range="U+0020-U+FF5E"
  />
<missing-glyph 
d="M171 164v-171h-86v171h86z" />
    <glyph glyph-name=".notdef" 
d="M171 164v-171h-86v171h86z" />
    <glyph glyph-name="space" unicode=" " horiz-adv-x="76" 
 />
    <glyph glyph-name="A" unicode="A" horiz-adv-x="187" 
d="M92 73q9 3 23 13q10 10 14 18q5 12 5 19q0 15 -12 18v2h58v-2l-6 -3l-4 -4q-1 -1 -3 -7q-2 -5 -3 -5l-43 -126q-3 -6 -3 -10q0 -7 8 -9v-2h-57v2q8 2 8 8t-4 15l-41 109q-6 17 -12 24q-2 3 -5 5l-8 3v2h52v-2q-7 -2 -10 -5q-4 -3 -4 -9q0 -9 4 -18l15 -41q13 0 28 5z
M97 60q-15 -5 -29 -5l23 -61l29 82q-10 -10 -23 -16z" />
    <glyph glyph-name="B" unicode="B" horiz-adv-x="168" 
d="M8 -23q11 2 14 9l3 22v103q0 11 -1 14q-2 6 -4 10q-4 4 -12 6v2h64q25 0 34 -1q13 -1 25 -6q14 -5 22 -17q8 -11 8 -27q0 -13 -8 -26q-8 -12 -20 -20q-14 -8 -28 -12l13 -7l13 -8l9 -10q3 -6 3 -13q0 -10 -6 -14q-7 -5 -15 -6q-6 -1 -20 -1h-94v2zM91 39q19 9 29 20
q11 14 11 30q0 11 -4 19t-14 15q-14 8 -40 8q-8 0 -14 -2q-4 -1 -5 -5q-1 -3 -1 -13v-57zM55 -9q5 -5 25 -5q10 0 24 2q9 3 9 13q0 11 -10 18q-13 9 -24 13q-4 2 -26 10v-34q0 -11 2 -17z" />
    <glyph glyph-name="C" unicode="C" horiz-adv-x="179" 
d="M173 93q-18 40 -56 40q-19 0 -32 -7q-13 -6 -24 -18q-12 -14 -16 -28q-6 -15 -6 -31q0 -11 5 -26q4 -12 12 -21q6 -9 18 -14q11 -3 24 -3t23 3q14 6 20 11q9 8 13 19l2 -1l-12 -48q-2 5 -10 5l-8 -1l-28 -2q-20 0 -35 4q-13 4 -29 16q-13 11 -18 26q-7 15 -7 33
q0 22 9 41q7 18 24 32q29 23 75 23l30 -1q7 0 9 1l20 -52z" />
    <glyph glyph-name="D" unicode="D" horiz-adv-x="184" 
d="M9 -23q11 2 14 9t3 22v103q0 11 -1 14q-2 6 -4 10q-5 5 -12 6v2h71q23 0 38 -3q13 -3 28 -14q13 -10 21 -28q7 -15 7 -34q0 -13 -4 -25q-6 -16 -11 -23q-10 -14 -17 -19q-15 -13 -32 -18q-15 -4 -40 -4h-61v2zM55 -5q2 -5 5 -7q6 -2 13 -2q17 0 30 6q13 7 22 18t14 25
q4 13 4 31q0 21 -7 34q-7 15 -22 23q-14 8 -34 8q-12 0 -18 -3t-7 -10q-1 -4 -1 -20v-90q0 -10 1 -13z" />
    <glyph glyph-name="E" unicode="E" horiz-adv-x="161" 
d="M117 -25h-109v2q11 2 14 9t3 22v103q0 11 -1 14q-2 6 -4 10q-4 4 -12 6v2h117q9 0 12 3l22 -63l-3 -1q-24 49 -77 49q-12 0 -18 -3q-5 -1 -7 -8q-1 -3 -1 -17v-69h6q15 0 20 1l13 3q7 3 11 9q5 7 8 17h2l-10 -58l-2 1q0 11 -6 12q-6 3 -17 3h-25v-14q0 -9 2 -15
q1 -4 7 -6q3 -1 14 -1q15 0 27 4q13 5 23 12q11 9 15 22l2 -1l-12 -52q-4 4 -14 4z" />
    <glyph glyph-name="F" unicode="F" horiz-adv-x="148" 
d="M130 -26q-2 1 -9 1h-111v2q9 2 12 5q2 3 4 11q1 4 1 15v103q0 11 -1 14q-2 6 -4 10q-4 4 -12 6v2h62v-2q-8 -2 -11 -6q-3 -3 -5 -10q-1 -4 -1 -15v-76h8q15 0 20 1l13 3q6 4 10 9q1 2 8 18l2 -1l-10 -57l-3 1q0 5 -2 9q-3 4 -7 4q-3 1 -12 1h-27v-13q0 -9 2 -15
q2 -5 6 -6q6 -2 16 -2q18 0 31 6q11 5 22 14q9 9 12 19l2 -1l-12 -53z" />
    <glyph glyph-name="G" unicode="G" horiz-adv-x="194" 
d="M184 141q-9 -2 -11 -7q-3 -4 -3 -16v-68q0 -9 3 -14q1 -4 11 -6v-2h-58v2q11 2 14 9q2 10 2 22v40q0 14 -1 18q-1 6 -8 9q-6 3 -18 3q-18 0 -31 -7q-15 -8 -23 -19q-10 -12 -15 -27q-5 -17 -5 -31q0 -20 7 -33q7 -15 19 -22q13 -7 32 -7q17 0 33 8q14 7 21 24h3l-9 -48
q-4 6 -12 6q-4 0 -7 -1l-32 -3q-24 0 -44 9q-21 10 -31 27q-11 19 -11 44q0 15 4 26q5 16 11 24q7 12 18 21q9 8 23 13q10 4 24 6q16 2 28 2h66v-2z" />
    <glyph glyph-name="H" unicode="H" horiz-adv-x="184" 
d="M130 34v77q0 12 -2 22q-3 6 -14 8v2h61v-2q-6 -1 -11 -6q-4 -4 -4 -10q-1 -3 -1 -7.5t-1 -8.5v-103q2 -15 4 -21q1 -6 13 -8v-2h-61v2q7 0 11 4q3 3 5 11v16v13h-76v-15q0 -11 1 -15q2 -6 5 -9q2 -3 11 -5v-2h-62v2q11 2 14 9t3 22v103q0 11 -1 14q-2 6 -4 10q-5 5 -12 6
v2h62v-2q-8 -2 -11 -6q-3 -3 -5 -10q-1 -4 -1 -16v-75h76z" />
    <glyph glyph-name="I" unicode="I" horiz-adv-x="81" 
d="M56 -9q2 -6 5 -9q2 -3 11 -5v-2h-62v2q11 2 14 9t3 22v103q0 12 -1 15q-2 6 -4 9q-4 4 -12 6v2h62v-2q-8 -2 -11 -6q-3 -3 -5 -10q-1 -4 -1 -16v-102q0 -12 1 -16z" />
    <glyph glyph-name="J" unicode="J" horiz-adv-x="142" 
d="M85 123q-7 10 -23 10q-8 0 -16 -5q-7 -5 -12 -12q-5 -8 -5 -18q0 -6 3 -21l-2 -1l-26 43q10 11 27 19q16 8 31 8q13 0 24 -4q10 -3 20 -11q7 -4 10 -12q2 -5 4 -13q1 -4 1 -17v-83q0 -11 1 -15q2 -6 5 -9q2 -3 11 -5v-2h-61v2q7 0 11 4q2 4 4 10q1 5 1 17v88q0 16 -8 27z
" />
    <glyph glyph-name="K" unicode="K" horiz-adv-x="178" 
d="M21 125q-2 6 -4 10q-4 4 -12 6v2h62v-2q-8 -2 -11 -6q-3 -3 -5 -10q-1 -4 -1 -16v-55l24 -20q21 22 35 46q6 10 13 27q6 15 6 24t-10 10v2h57v-2q-4 -2 -7 -4t-5 -5q-1 -1 -2 -2.5t-2 -4.5l-4 -9l-5 -11q-21 -53 -56 -87l19 -16q2 -1 4.5 -3l6.5 -5l12 -9l12 -6
q8 -2 13 -2v-2h-62v2q5 0 6 1t1 5q0 6 -10 16q-10 11 -24 21l-22 17v-31q0 -14 3 -21q3 -6 14 -8v-2h-62v2q11 2 14 9t3 22v103q0 11 -1 14z" />
    <glyph glyph-name="L" unicode="L" horiz-adv-x="149" 
d="M56 -15q1 -6 13 -8v-2h-61v2q11 2 14 9t3 22v103q0 12 -1 15q-2 6 -5 9q-5 5 -11 6v2h102q12 0 15 3l22 -63l-2 -1q-8 16 -18 26q-11 11 -25 17t-30 6q-10 0 -14 -4q-5 -5 -5 -13v-108q0 -14 3 -21z" />
    <glyph glyph-name="M" unicode="M" horiz-adv-x="204" 
d="M149 -8v119v15q-2 6 -4 10q-3 3 -12 5v2h61v-2q-6 -1 -11 -6q-4 -4 -4 -10q-1 -4 -1 -16v-103q0 -11 1 -15q0 -5 4 -9q3 -3 11 -5v-2h-61v2q4 1 4 5q0 5 -6 16l-29 47l-30 -54q-3 -6 -3 -9q0 -4 4 -5v-2h-64v2q10 1 13 9q3 7 3 22v103q0 12 -1 15q-2 6 -4 9q-5 5 -11 6v2
h49v-2q-6 -1 -11 -6q-4 -4 -4 -10q-1 -4 -1 -16v-117l51 91z" />
    <glyph glyph-name="N" unicode="N" horiz-adv-x="179" 
d="M78 -10q-8 -6 -8 -10q0 -3 5 -3v-2h-67v2q11 2 14 9t3 22v103q0 11 -1 14q-2 6 -4 10q-4 4 -12 6v2h50v-2q-8 -2 -11 -6q-3 -3 -5 -10q-1 -4 -1 -16v-114l81 67l10 8l3 8q1 4 1 23v10q0 14 -3 21t-14 9v2h50v-2q-7 -1 -10 -6q-3 -3 -5 -10q-1 -4 -1 -16v-103q0 -14 3 -21
t13 -8v-2h-50v2q11 2 14 9t3 22v31z" />
    <glyph glyph-name="O" unicode="O" horiz-adv-x="204" 
d="M67 140q16 6 34 6t35 -6q15 -5 29 -18q13 -11 20 -27q7 -15 7 -34q0 -21 -7 -36q-7 -16 -19 -29q-13 -12 -29 -19q-17 -6 -36 -6q-18 0 -35 6q-18 8 -29 19q-13 12 -19 28q-7 15 -7 35q0 13 3 23q3 11 9 22q7 12 15 19q13 13 29 17zM72 120q-16 -13 -23 -31
q-8 -21 -8 -39q0 -17 6 -32t18 -24t30 -9q16 0 33 11q15 12 24 31q9 20 9 42q0 13 -3 23q-5 14 -11 21q-9 10 -17 14q-11 6 -23 6q-21 0 -35 -13z" />
    <glyph glyph-name="P" unicode="P" horiz-adv-x="147" 
d="M9 -23q7 2 11 5q2 3 4 11q1 4 1 15v103q0 12 -1 15q-2 6 -4 9q-5 5 -11 6v2h61v-2q-8 -2 -11 -6q-3 -3 -5 -10q-1 -4 -1 -16v-44q12 -3 28 -8q9 -3 29 -13q14 -7 24 -18q9 -10 9 -23q0 -17 -11 -23q-12 -5 -30 -5h-93v2zM55 -7q4 -7 22 -7q19 0 28 4t9 17q0 27 -61 46
v-42q0 -12 2 -18z" />
    <glyph glyph-name="Q" unicode="Q" horiz-adv-x="209" 
d="M199 132q0 7 -5 12q-7 5 -14 5q-15 0 -30 -16q11 -6 22 -19q9 -11 14 -25q5 -15 5 -29q0 -25 -12 -46q-12 -20 -33 -32q-22 -11 -46 -11q-25 0 -45 11q-21 12 -33 32t-12 45q0 20 7 35q9 19 20 29q14 13 30 17q16 6 34 6q15 0 28 -5q13 17 20 22q11 8 22 8q10 0 17 -4
q6 -4 11 -12q4 -7 4 -16q0 -6 -3 -14l-2 1q1 2 1 6zM80 125q-13 -6 -22 -18q11 -3 18 -3q8 0 16 4q10 6 15 10q7 6 13 13q-4 1 -12 1q-15 0 -28 -7zM56 105q-15 -22 -15 -54q0 -27 10 -43q6 -9 19 -16q11 -6 23 -6q16 0 29 7q13 8 21 19q9 15 13 27q4 13 4 30q0 15 -5 28
q-4 12 -16 24q-10 -12 -22 -19q-13 -6 -27 -6q-16 0 -34 9z" />
    <glyph glyph-name="R" unicode="R" horiz-adv-x="175" 
d="M8 -23q11 2 14 9t3 22v103q0 11 -1 14q-2 6 -4 10q-4 4 -12 6v2h61v-2q-6 -1 -11 -6q-4 -4 -4 -10q-1 -3 -1 -16v-45l29 -11l3 4l26 38q8 13 10 18q4 9 4 18t-9 10v2h54v-2l-7 -3q-2 -1 -4 -5q-3 -3 -4 -6l-3 -8q-20 -48 -45 -76q18 -10 27 -19q10 -9 10 -23t-8 -20
q-9 -6 -29 -6h-99v2zM56 -8q4 -6 29 -6q16 0 23 4q8 5 8 17q0 10 -11 19q-9 9 -25 16l-27 10v-44q0 -13 3 -16z" />
    <glyph glyph-name="S" unicode="S" horiz-adv-x="158" 
d="M112 -23q-5 0 -15 -3q-12 -3 -23 -3q-15 0 -27 4q-13 4 -23 14q-9 10 -9 24q0 16 10 25q11 10 27 14l34 11q16 4 29 11q9 8 9 22q0 11 -6 18q-7 8 -18 12q-12 5 -24 5q-16 0 -29 -7q-15 -8 -23 -19q-9 -10 -14 -27l-3 1l15 64q5 -5 9 -5q5 0 17 3l17 4q3 1 12 1
q18 0 36 -8q16 -7 27 -21q10 -13 10 -31q0 -20 -14 -34q-11 -10 -33 -17l-36 -10q-15 -5 -19 -8q-7 -3 -7 -11q0 -7 5 -12q6 -5 13 -7q10 -2 14 -2q11 0 24 5q10 4 21 13q7 9 12 21l2 -1l-10 -51q-5 5 -10 5z" />
    <glyph glyph-name="T" unicode="T" horiz-adv-x="160" 
d="M134 -4q15 8 22 27l2 -1l-13 -51l-4 3q-2 1 -11 1h-98q-9 0 -11 -1l-4 -3l-13 51l2 1q7 -19 23 -27q14 -8 38 -8v123q0 15 -3 22q-3 6 -14 8v2h62v-2q-9 -2 -11 -5q-3 -3 -5 -10q-1 -4 -1 -16v-122q23 0 39 8z" />
    <glyph glyph-name="U" unicode="U" horiz-adv-x="178" 
d="M25 108q2 10 5 14q4 8 12 12q19 12 47 12q20 0 35 -6t24 -22q9 -15 9 -41v-71q0 -11 1 -15q0 -5 4 -9q4 -3 11 -5v-2h-50v2q8 0 12 4q2 4 4 10q1 4 1 17v80q0 11 -5 23q-4 10 -16 15q-10 6 -26 6q-20 0 -31 -11t-11 -32v-83q0 -12 1 -16q2 -7 5 -10t11 -3v-2h-62v2
q11 2 14 8q3 7 3 23v83q0 7 2 17z" />
    <glyph glyph-name="V" unicode="V" horiz-adv-x="168" 
d="M52 8q-5 -15 -5 -19q0 -10 11 -12v-2h-56v2q8 2 12 8l7 20l40 113q3 11 3 15q0 6 -8 8v2h49v-2q-7 -1 -7 -8l3 -12l44 -118l4 -9l3 -8q2 -3 6 -6q3 -3 7 -3v-2h-45v2q11 2 11 12q0 6 -4 18l-40 109z" />
    <glyph glyph-name="W" unicode="W" horiz-adv-x="230" 
d="M137 2l-2 -13q0 -10 14 -12v-2h-58v2q13 1 13 14l-2 11l-26 120l-26 -115l-2 -16q0 -13 12 -14v-2h-55v2q4 0 8 2q4 4 5 6l2 9l2 8l27 123q1 3 1 7q0 8 -7 9v2h53v-2q-7 -1 -7 -8l2 -12l22 -103l24 107q1 3 1 7q0 8 -6 9v2h52v-2q-6 -1 -6 -10q0 -7 1 -12l24 -110
q0 -2 4 -17q2 -5 7 -10t11 -5v-2h-50v2q15 1 15 17q0 6 -1 11l-25 117z" />
    <glyph glyph-name="X" unicode="X" horiz-adv-x="181" 
d="M125 6l9 -12q1 -2 6 -7q3 -3 9 -7q5 -3 10 -3v-2h-49v2q8 2 8 6q0 8 -10 21l-17 24l-17 -26q-8 -11 -8 -16q0 -8 12 -9v-2h-66v2q9 1 17 9l17 23l29 43l-45 64q-10 15 -13 18q-6 6 -14 7v2h53v-2q-12 -1 -12 -10q0 -5 4 -12q10 -16 11 -18l24 -36l33 50q6 9 6 15
q0 10 -12 11v2h67v-2q-8 -2 -12 -6q-7 -7 -11 -14l-54 -80z" />
    <glyph glyph-name="Y" unicode="Y" horiz-adv-x="170" 
d="M141 -1l8 -12q1 -2 7 -6q4 -2 10 -4v-2h-50v2q12 1 12 8q0 6 -12 26l-23 38l-24 -38q-10 -16 -10 -24q0 -9 12 -10v-2h-66v2q3 0 9 2l6 6q2 4 6 8l4 8l41 64v46q0 12 -1 15q-2 6 -4 10q-3 3 -11 5v2h61v-2q-9 -2 -11 -5q-3 -3 -5 -10q-1 -4 -1 -17v-44z" />
    <glyph glyph-name="Z" unicode="Z" horiz-adv-x="152" 
d="M147 84q-12 23 -33 35t-47 12h-2h-3l-19 -1l100 -155h-103q-8 0 -9 -1l-5 -3l-13 55l2 1q5 -14 15 -23q10 -10 21 -14t26 -4h3h3l19 1l-99 156h109q11 0 12 3l25 -62h-2z" />
    <glyph glyph-name="uniFF21" unicode="&#xff21;" horiz-adv-x="170" 
d="M34 148l18 -56h49l18 56h-21v6h64v-6h-18l-52 -167h-10l-56 167h-20v6h50v-6h-22zM98 85h-44l23 -70z" />
    <glyph glyph-name="uniFF22" unicode="&#xff22;" horiz-adv-x="156" 
d="M131 136q12 -12 12 -30q-4 -35 -49 -43q41 -7 43 -40q-1 -39 -60 -41h-67v6h20v159h-20v6h67q37 0 54 -17zM113 105q3 46 -36 42h-22v-81h12q49 -3 46 39zM110 23q1 38 -33 37h-22v-72h20q37 -2 35 35z" />
    <glyph glyph-name="uniFF23" unicode="&#xff23;" horiz-adv-x="156" 
d="M124 -7q-17 -14 -34 -14q-29 0 -52 23q-26 29 -26 65q0 38 16 60q21 29 58 29q23 0 40 -12l7 10h7v-47h-6q-13 44 -51 44q-45 0 -42 -76q0 -50 10 -69q14 -21 35 -21q36 2 45 44h6v-44h-4z" />
    <glyph glyph-name="uniFF24" unicode="&#xff24;" horiz-adv-x="170" 
d="M10 153h69q35 0 53 -19q27 -27 27 -68q0 -42 -25 -64q-20 -20 -55 -20h-69v6h20v159h-20v6zM120 8q12 16 11 53q0 46 -6 59q-13 27 -45 27h-25v-159h19q32 0 46 20z" />
    <glyph glyph-name="uniFF25" unicode="&#xff25;" horiz-adv-x="156" 
d="M138 106q-4 26 -15 34q-8 10 -37 8h-31v-79q38 -3 38 31h5v-65h-5q-1 32 -38 28v-74h33q24 0 33 10q8 8 11 26h5v-42h-129v6h22v159h-22v6h133l3 -48h-6z" />
    <glyph glyph-name="uniFF26" unicode="&#xff26;" horiz-adv-x="142" 
d="M55 148v-78q36 -3 36 30h6v-63h-6q0 31 -36 26v-74h33q23 0 30 7q9 8 14 32h4l-2 -45h-125v6h21v159h-21v6h68v-6h-22z" />
    <glyph glyph-name="uniFF27" unicode="&#xff27;" horiz-adv-x="170" 
d="M87 -22q-28 2 -51 25q-24 29 -24 63q0 32 14 57q21 32 60 32q34 0 48 -13q16 -15 18 -44h15v-6h-69v6h25q4 54 -36 53q-49 1 -46 -77q0 -50 10 -69q14 -21 35 -21q41 2 51 44h6v-44h-4l-9 10q-16 -16 -43 -16z" />
    <glyph glyph-name="uniFF28" unicode="&#xff28;" horiz-adv-x="184" 
d="M76 -12v-6h-65v6h20v159h-20v6h65v-6h-20v-78h73v78h-20v6h65v-6h-20v-159h20v-6h-65v6h20v73h-73v-73h20z" />
    <glyph glyph-name="uniFF29" unicode="&#xff29;" horiz-adv-x="85" 
d="M55 -12h22v-6h-69v6h22v159h-22v6h69v-6h-22v-159z" />
    <glyph glyph-name="uniFF2A" unicode="&#xff2a;" horiz-adv-x="99" 
d="M46 -19v165q-1 12 -15 14q-8 0 -8 -4q0 -1 2 -3q3 -4 3 -8q-1 -12 -13 -13q-14 0 -14 14q2 21 26 22q16 0 30 -11q13 -12 13 -29v-147h22v-6h-69v6h23z" />
    <glyph glyph-name="uniFF2B" unicode="&#xff2b;" horiz-adv-x="170" 
d="M55 -11h20v-6h-65v6h20v159h-20v6h65v-6h-20v-159zM58 65l64 83h-20v6h65v-6h-12l-78 -96l59 -63h19v-6h-51v6h23l-67 71q-4 2 -2 5z" />
    <glyph glyph-name="uniFF2C" unicode="&#xff2c;" horiz-adv-x="142" 
d="M135 105q-5 20 -13 31q-9 11 -21 11h-46v-159h24v-6h-70v6h21v159h-21v6h128l3 -48h-5z" />
    <glyph glyph-name="uniFF2D" unicode="&#xff2d;" horiz-adv-x="199" 
d="M11 148v6h46v-6h-19v-156l48 162h7l50 -162v156h-20v6h64v-6h-19v-159h19v-6h-51l-37 126h-1l-36 -126h-51v6h19v159h-19z" />
    <glyph glyph-name="uniFF2E" unicode="&#xff2e;" horiz-adv-x="170" 
d="M10 152h47v-6h-20v-154h1l96 162h7v-167h19v-6h-47v6h20v118h-1l-72 -124h-50v6h20v159h-20v6z" />
    <glyph glyph-name="uniFF2F" unicode="&#xff2f;" horiz-adv-x="170" 
d="M144 121q15 -22 15 -53q-1 -36 -24 -65q-20 -23 -50 -24q-31 2 -50 25q-23 26 -23 64q0 35 18 59q21 29 55 29q36 0 59 -35zM41 68q-1 -84 44 -83q47 -3 45 83q2 85 -45 84q-45 1 -44 -84z" />
    <glyph glyph-name="uniFF30" unicode="&#xff30;" horiz-adv-x="142" 
d="M28 147h-22v6h70v-6h-23v-71h13q37 0 56 -16q16 -13 16 -32t-14 -33q-16 -13 -48 -13h-68v6h20v159zM101 -5q10 7 10 32q0 23 -8 31q-10 12 -41 12h-9v-82h7q29 -1 41 7z" />
    <glyph glyph-name="uniFF31" unicode="&#xff31;" horiz-adv-x="170" 
d="M100 164v-13q29 -6 45 -34q14 -23 14 -52q-2 -37 -22 -63t-52 -26q-29 0 -49 23q-23 28 -24 66q0 32 15 56q20 27 44 30v3q-1 53 66 52h7v-6q-45 1 -44 -36zM41 65q-1 -84 44 -83q47 -3 45 83q2 86 -45 84q-45 1 -44 -84z" />
    <glyph glyph-name="uniFF32" unicode="&#xff32;" horiz-adv-x="170" 
d="M55 150v-83h15q36 0 36 31q0 -2 2 20q2 19 3 20q6 20 32 20q10 0 22 -3v-6q-16 5 -22 1q-8 -5 -7 -27q4 -49 -47 -58v-1q29 -1 41 -13q13 -9 13 -29q-4 -35 -57 -37h-76v6h20v159h-20v6h65v-6h-20zM115 23q3 42 -46 38h-14v-70h24q38 -2 36 32z" />
    <glyph glyph-name="uniFF33" unicode="&#xff33;" horiz-adv-x="128" 
d="M64 157q53 -2 55 -55q0 -30 -26 -44q-15 -6 -31 -11q-40 -10 -40 -30q3 -28 37 -31q32 2 43 38h5v-40h-3l-10 7q-20 -11 -34 -11q-25 0 -39 18q-11 14 -11 30q2 26 21 39q1 1 26 9q13 5 19 7t8 3q26 8 23 30q-3 34 -43 37q-36 -1 -49 -41h-5v43h4l11 -10q14 12 39 12z
" />
    <glyph glyph-name="uniFF34" unicode="&#xff34;" horiz-adv-x="142" 
d="M83 148v-159h12q15 0 24 9q13 13 14 34h6l-2 -49h-131l-3 49h6l2 -8q5 -20 7 -23q8 -12 23 -12h18v159h-22v6h68v-6h-22z" />
    <glyph glyph-name="uniFF35" unicode="&#xff35;" horiz-adv-x="170" 
d="M29 -12v122q1 44 54 45q35 0 47 -17q10 -14 10 -41v-109h19v-6h-46v6h20v102q0 33 -11 46q-9 12 -32 12q-31 -1 -36 -33v-127h20v-6h-65v6h20z" />
    <glyph glyph-name="uniFF36" unicode="&#xff36;" horiz-adv-x="170" 
d="M82 154h7l54 -167h18v-6h-48v6h23l-41 128h-1l-43 -128h20v-6h-65v6h19z" />
    <glyph glyph-name="uniFF37" unicode="&#xff37;" horiz-adv-x="227" 
d="M81 156l31 -85l29 85h7l55 -167h19v-6h-46v6h20l-42 132h-1l-26 -78l20 -54h13v-6h-155v6h16l53 167h7zM45 -11h39l25 72l-22 59h-1zM122 36l-15 -47h33l-17 47h-1z" />
    <glyph glyph-name="uniFF38" unicode="&#xff38;" horiz-adv-x="170" 
d="M77 78l41 69h-20v6h66v-6h-17l-54 -92l41 -67h21v-6h-51v6h21l-36 60l-37 -60h19v-6h-66v6h18l49 84l-45 75h-22v6h53v-6h-22z" />
    <glyph glyph-name="uniFF39" unicode="&#xff39;" horiz-adv-x="170" 
d="M74 -12v-6h-69v6h19l50 86v73h-23v6h70v-6h-22v-73l44 -86h21v-6h-53v6h25l-41 77l-43 -77h22z" />
    <glyph glyph-name="uniFF3A" unicode="&#xff3a;" horiz-adv-x="142" 
d="M14 -18l-2 41h6q8 -39 38 -35h47l-99 155v10h125l3 -48h-7q-5 23 -13 33q-8 8 -33 9h-47l99 -157v-8h-117z" />
    <glyph glyph-name="a" unicode="a" horiz-adv-x="149" 
d="M143 141q-12 -3 -15 -12q-3 -7 -3 -24v-48q0 -17 -4 -26t-13 -13t-26 -4q-10 0 -22 2q-4 1 -23 7l-8 2q-4 0 -8 -4l-4 42q5 -10 13 -19q5 -5 19 -11q9 -4 22 -4q8 0 16 2q5 2 8 8q2 8 2 15v5l-26 6q-14 4 -31 11q-15 7 -23 16q-9 11 -9 24q0 14 12 21q10 9 28 9
q11 0 21 -3q9 -3 18 -9q7 -4 12 -14q2 13 9 23h35v-2zM88 115q-9 16 -30 16q-8 0 -15 -5q-6 -4 -6 -14q0 -18 19 -28q20 -11 41 -15v7q0 24 -9 39z" />
    <glyph glyph-name="b" unicode="b" horiz-adv-x="163" 
d="M12 -23q7 0 11 4q2 3 4 9q1 4 1 16v105q0 14 -3 21q-3 8 -13 9v2h67q26 0 41 -7q17 -8 24 -20q8 -14 8 -32q0 -19 -9 -36q-10 -16 -27 -25q-16 -9 -39 -9h-3h-3l-17 1v-47l-42 7v2zM69 27q15 0 28 7q14 8 21 19q7 13 7 29q0 22 -13 35q-14 14 -36 14l-14 -3q-5 -2 -6 -5
q-2 -6 -2 -12v-83z" />
    <glyph glyph-name="c" unicode="c" horiz-adv-x="139" 
d="M133 107q-6 11 -18 19q-13 7 -27 7q-8 0 -20 -5q-7 -3 -17 -13q-13 -16 -13 -38q0 -12 5 -25q5 -10 15 -18q8 -7 22 -7q15 0 25 7t17 20h1l-7 -40q-4 3 -11 3l-16 -2l-19 -1q-16 0 -30 8t-22 22t-8 32q0 16 7 29q5 12 17 22q11 10 24 14q15 5 29 5l17 -1l8 -1l4 -1
q2 0 6 2l13 -37z" />
    <glyph glyph-name="ccedilla" unicode="&#xe7;" horiz-adv-x="113" 
d="M31 92q-3 -9 -3 -19q0 -6 2 -16q2 -8 6 -14l10 -9q4 -3 13 -3q8 0 12 4t5 11q0 6 1 8l3 4q2 2 5 2q1 1 5 1q5 0 8 -3t3 -7q0 -5 -3 -10l-8 -9q-4 -4 -12 -7q-10 -2 -15 -2q-12 0 -21 4q-7 3 -17 13q-7 7 -12 19t-5 25q0 16 4 25q6 14 11 19q6 8 15 12q8 4 18 4l-11 17h2
h1q3 0 7 2q3 3 3 7t-1 5l-3 4l-5 3q-4 2 -6 2l-2 -1h-4v5q2 1 6 1h6q4 0 10 -2t9 -5q4 -4 5 -7q2 -6 2 -8q0 -7 -3 -12q-4 -4 -12 -6l3 -5l10 -3q6 -2 14 -9q7 -7 11 -15q3 -6 7 -20l-4 -1q-2 3 -3.5 6.5t-4.5 7.5q-5 7 -8 9t-9 4t-10 2q-8 0 -16 -5t-12 -11q-6 -10 -7 -17z
" />
    <glyph glyph-name="d" unicode="d" horiz-adv-x="158" 
d="M95 -23q10 0 13 8q2 10 2 21v10l-27 -2q-22 0 -37 7q-16 7 -26 22q-10 14 -10 37q0 16 7 29q9 16 19 22q17 12 52 12h64v-2q-8 -2 -10 -5q-3 -3 -5 -10q-1 -3 -1 -15v-143l-41 7v2zM97 132q-26 0 -42 -13q-17 -14 -17 -38q0 -14 6 -28q4 -10 16 -19q10 -7 26 -7
q11 0 17 3q5 5 6 9t1 16v75q-10 2 -13 2z" />
    <glyph glyph-name="e" unicode="e" horiz-adv-x="148" 
d="M116 26q-17 -12 -38 -12q-18 0 -34 8q-16 9 -25 24t-9 34q0 16 8 29q8 14 19 21t26 12q12 4 26 4l26 -3h5q4 0 6 2l14 -43l-3 -1q-9 16 -13 20q-7 5 -15 8q-8 4 -16 4q-14 0 -24 -7q-11 -5 -19 -17t-11 -24l98 -27q-5 -20 -21 -32zM42 51q5 -11 13 -18q8 -6 20 -6t20 8
q7 7 12 20l-69 20q0 -15 4 -24z" />
    <glyph glyph-name="f" unicode="f" horiz-adv-x="101" 
d="M20 132q-3 7 -14 9v2h57v-2q-7 0 -10 -4q-4 -4 -4 -10q-1 -4 -1 -16v-81h14q7 0 9 2l7 -17q-3 3 -6 3q-3 1 -10 1h-14v-8q0 -19 4 -28q3 -10 18 -10q9 0 13 4t4 14h2l9 -26q-17 -5 -26 -5q-11 0 -21 3q-10 4 -17 11t-8 13q-3 7 -3 18q-2 14 -4 17q-5 5 -14 6v2h17v81
q0 11 -2 21z" />
    <glyph glyph-name="g" unicode="g" horiz-adv-x="147" 
d="M35 23q-14 8 -21 20q-8 14 -8 33q0 17 7 30q8 16 20 24q11 10 24 11q16 2 30 2q13 0 20 3t7 15q0 6 -5 13t-15 10q-8 4 -21 4t-21 -4q-11 -5 -15 -11q-5 -7 -5 -14q0 -6 3 -11l-1 -2l-28 29q12 14 30 18q17 6 36 6q16 0 34 -5q15 -4 26 -15q9 -9 9 -22q0 -6 -2 -12
q-4 -6 -9 -10q-4 -4 -6 -9q-1 -2 -1 -10v-77q0 -9 3 -14q3 -4 12 -6v-2h-71q-18 0 -32 6zM85 131q-14 0 -25 -7q-12 -6 -19 -19q-7 -11 -7 -29q0 -12 5 -25q5 -12 14 -18t23 -6q13 0 17 4t4 17v82z" />
    <glyph glyph-name="h" unicode="h" horiz-adv-x="158" 
d="M8 -23q11 0 14 7q2 10 2 22v105q0 10 -2 20q-3 8 -14 10v2h57v-2q-10 -1 -12 -9q-3 -7 -3 -21v-26q0 -11 2 -21q1 -7 7 -14q4 -7 14 -12t17 -5q8 0 13 5q3 3 5 11q1 5 1 17v45q0 14 -3 21q-3 8 -12 9v2h56v-2q-10 -1 -12 -9q-3 -7 -3 -21v-57q0 -20 -7 -30t-23 -10
q-26 0 -55 29v-75l-42 7v2z" />
    <glyph glyph-name="i" unicode="i" horiz-adv-x="71" 
d="M7 22q11 2 14 8q2 10 2 22v59q0 14 -3 21q-3 8 -13 9v2h57v-2q-8 -2 -10 -5q-4 -4 -4 -10q-1 -3 -1 -15v-94l-42 3v2zM23 -5q5 5 13 5t12 -6q5 -5 5 -13q0 -6 -5 -13q-5 -5 -12 -5q-8 0 -13 5q-5 7 -5 14q0 8 5 13z" />
    <glyph glyph-name="j" unicode="j" horiz-adv-x="120" 
d="M58 22q10 1 13 8q3 8 3 22v92q0 17 -1 22q-1 8 -7 14q-5 5 -15 5q-8 0 -15 -5q-6 -4 -6 -13q0 -5 3 -13l-1 -1l-25 32q21 12 45 12q14 0 23 -4q11 -3 17 -11t7 -14q1 -5 1 -18v-133l-42 3v2zM74 -7q5 6 13 6t12 -6q5 -7 5 -13q0 -7 -5 -14q-5 -5 -13 -5q-7 0 -12 5
q-5 7 -5 14q0 8 5 13z" />
    <glyph glyph-name="k" unicode="k" horiz-adv-x="159" 
d="M22 132q-3 8 -13 9v2h56v-2q-7 0 -10 -4q-2 -4 -4 -10q-1 -3 -1 -16v-27l18 -16q6 3 17 18l16 26q7 13 7 21q0 7 -9 8v2h54v-2q-1 -1 -2.5 -1t-2.5 -1l-4 -3q-1 -1 -1 -2.5t-1 -2.5l-4 -5l-24 -43q-11 -18 -26 -31l6 -5l11 -10l10 -8q3 -3 11 -7l12 -3v-2h-52v2q7 1 7 6
q0 6 -9 15l-34 32v-104l-41 7v2q10 0 13 7q2 10 2 22v105q0 11 -2 21z" />
    <glyph glyph-name="l" unicode="l" horiz-adv-x="71" 
d="M7 -23q11 0 14 7q2 10 2 22v105q0 11 -2 21q-3 7 -14 9v2h57v-2q-8 -2 -10 -5q-4 -4 -4 -10q-1 -3 -1 -15v-143l-42 7v2z" />
    <glyph glyph-name="lacute" unicode="&#x13a;" horiz-adv-x="71" 
d="M7 -21q11 0 14 7q2 10 2 22v105q0 11 -2 21q-3 7 -14 9v2h57v-2q-8 -2 -10 -5q-4 -4 -4 -10q-1 -3 -1 -15v-143l-42 7v2zM27 -37h4l37 -43h-28z" />
    <glyph glyph-name="m" unicode="m" horiz-adv-x="240" 
d="M19 132q-3 8 -13 9v2h57v-2q-10 -1 -13 -9q-3 -7 -3 -21v-28q0 -12 3 -21q2 -7 9 -15q3 -4 13 -10q7 -4 15 -4q10 0 15 8q4 8 4 24v46q0 11 -2 21q-3 8 -13 9v2h57v-2q-8 -2 -10 -5q-3 -3 -5 -10q-1 -3 -1 -15v-20q0 -12 1 -16q0 -4 2 -12t5 -12q5 -9 14 -13q8 -5 17 -5
q11 0 16 8q4 7 4 24v46q0 11 -2 21q-3 8 -13 9v2h57v-2q-12 -2 -13 -9q-3 -7 -3 -21v-57q0 -19 -7 -29q-8 -11 -22 -11q-24 0 -56 29q-2 -16 -8 -22q-7 -7 -22 -7q-14 0 -28 9t-27 21q-1 -16 -6 -27l-35 3v2q10 1 13 8q2 10 2 22v59q0 11 -2 21z" />
    <glyph glyph-name="n" unicode="n" horiz-adv-x="158" 
d="M22 132q-3 7 -14 9v2h57v-2q-10 -1 -12 -9q-3 -7 -3 -21v-25q0 -15 1 -20q2 -8 7 -15q4 -6 14 -13q8 -5 17 -5q11 0 16 8q4 8 4 26v44q0 14 -3 21q-3 8 -13 9v2h57v-2q-8 -2 -10 -5q-4 -4 -4 -10q-1 -4 -1 -15v-54q0 -22 -7 -32q-8 -11 -26 -11q-23 0 -52 30
q0 -16 -6 -27l-35 3v2q8 2 10 5t4 9q1 4 1 15v60q0 11 -2 21z" />
    <glyph glyph-name="nacute" unicode="&#x144;" horiz-adv-x="128" 
d="M36 26l-35 14l2 5l8 -2q5 0 6 1l2 6q1 3 1 26v42q0 13 -3 17t-12 4h-2v5h57v-5q-9 0 -13 -2t-5 -5q-1 -1 -1 -14v-60q15 -17 30 -17q9 0 13 7t4 23v47v12q-2 6 -4 7q-6 2 -12 2h-2v5h56v-5q-7 0 -11 -2q-3 -1 -4 -4q-2 -6 -2 -15v-49q0 -15 -3 -23q-5 -13 -10 -16
q-7 -4 -17 -4q-18 0 -38 24v-24h-5zM47 13h4l37 -43h-28z" />
    <glyph glyph-name="o" unicode="o" horiz-adv-x="158" 
d="M18 115q10 16 25 23q16 8 35 8q21 0 37 -9q15 -7 25 -23q9 -15 9 -36q0 -20 -9 -35q-10 -15 -24 -22q-15 -7 -36 -7q-18 0 -36 8q-15 7 -25 23t-10 36q0 19 9 34zM48 40q10 -13 31 -13q13 0 24 8q8 7 13 20q4 12 4 27q0 12 -5 25q-4 11 -14 19q-8 7 -21 7q-14 0 -23 -9
q-9 -7 -14 -21q-5 -15 -5 -27q0 -23 10 -36z" />
    <glyph glyph-name="odieresis" unicode="&#xf6;" horiz-adv-x="128" 
d="M41 28q-7 4 -17 14q-7 8 -12 20q-4 9 -4 23q0 13 4 22q6 14 11 19q10 10 17 13q12 5 22 5q11 0 23 -5q10 -4 18 -14q7 -7 12 -20q4 -9 4 -23t-4 -23q-4 -10 -12 -18q-10 -10 -17 -13q-12 -5 -23 -5q-10 0 -22 5zM75 36q6 4 11 13q6 9 7 19q2 14 2 23q0 11 -2 21
q-1 9 -5 14q-6 6 -9 7q-6 3 -12 3q-7 0 -14 -5q-7 -4 -12 -14q-6 -9 -7 -20q-3 -10 -3 -23q0 -11 3 -20q2 -9 6 -13l9 -8q6 -2 11 -2q7 0 15 5zM36 -25l-4 3l-3 4q-1 2 -1 5q0 4 1 5l3 5l5 3q1 1 4 1q4 0 6 -1l4 -3l3 -5q1 -1 1 -5q0 -3 -1 -5l-3 -4l-4 -3q-2 -1 -6 -1t-5 1
zM81 -25l-5 3l-3 4q-1 2 -1 5q0 4 1 5l3 5l5 3q1 1 4 1q4 0 6 -1l4 -3l3 -5q1 -1 1 -5q0 -3 -1 -5l-3 -4l-4 -3q-2 -1 -6 -1q-3 0 -4 1z" />
    <glyph glyph-name="p" unicode="p" horiz-adv-x="158" 
d="M8 19q10 1 13 8q3 8 3 21v117q0 14 -3 21q-3 8 -13 9v2h57v-2q-10 -1 -12 -9q-3 -7 -3 -21v-23l28 1q23 0 38 -7q16 -7 25 -21q9 -13 9 -33q0 -21 -9 -36q-8 -14 -26 -22q-15 -7 -39 -7h-68v2zM96 34q11 6 19 18q7 11 7 28q0 13 -5 26q-6 12 -16 19t-25 7q-13 0 -17 -3
q-5 -1 -7 -8q-2 -6 -2 -14v-79h17q16 0 29 6z" />
    <glyph glyph-name="q" unicode="q" horiz-adv-x="158" 
d="M108 165q0 11 -2 21q-3 8 -13 9v2h57v-2q-8 -2 -10 -5q-3 -3 -5 -10q-1 -3 -1 -15v-117q0 -13 3 -21q3 -7 13 -8v-2h-67q-16 0 -30 3q-11 2 -23 11q-20 18 -20 46q0 13 5 26q5 12 15 21q11 10 24 14q15 5 31 5l23 -1v23zM93 131q-16 0 -29 -7t-19 -20q-7 -11 -7 -28
q0 -13 6 -24q5 -11 15 -18q11 -6 24 -6q11 0 14 1l8 3l3 7v14v77z" />
    <glyph glyph-name="r" unicode="r" horiz-adv-x="103" 
d="M19 132q-3 8 -13 9v2h57v-2q-7 -1 -10 -6q-3 -2 -5 -10q-1 -4 -1 -19v-20q0 -23 7 -36q8 -14 24 -14q8 0 16 5l5 -25l-8 -2q-13 0 -25 9q-13 9 -19 22q0 -17 -6 -28l-35 3v2q10 1 13 8q2 10 2 22v59q0 11 -2 21z" />
    <glyph glyph-name="racute" unicode="&#x155;" horiz-adv-x="99" 
d="M17 133q-3 8 -13 9v2h57v-2q-7 -1 -10 -6q-3 -2 -5 -10q-1 -4 -1 -19v-20q0 -23 7 -36q8 -14 24 -14q8 0 16 5l5 -25l-8 -2q-13 0 -25 9q-13 9 -19 22q0 -17 -6 -28l-35 3v2q10 1 13 8q2 10 2 22v59q0 11 -2 21zM45 13h4l37 -43h-28z" />
    <glyph glyph-name="s" unicode="s" horiz-adv-x="128" 
d="M101 20l-10 -2l-15 -3q-5 -1 -17 -1t-22 3q-12 5 -18 11q-7 7 -7 20q0 15 11 23q12 9 31 14q28 10 30 11q9 5 9 13t-5 13q-5 6 -13 8q-7 3 -16 3q-11 0 -23 -5q-10 -4 -18 -15t-9 -22h-2l2 50q3 -3 6 -3l11 2l19 4q12 2 18 2q12 0 27 -5q13 -4 21 -15t8 -24
q0 -15 -11 -23q-10 -7 -32 -15q-24 -6 -30 -10q-8 -3 -8 -11t8 -13q8 -3 17 -3q14 0 28 8q13 9 16 23h2l-2 -40q-4 2 -6 2z" />
    <glyph glyph-name="scedilla" unicode="&#x15f;" horiz-adv-x="99" 
d="M90 110q0 -7 -1 -10q-1 -4 -6 -9l-10 -9l-16 -9q-9 -4 -16 -9q-6 -3 -9 -6q-2 -2 -4 -6q-1 -2 -1 -7l2 -5q2 -4 4 -5q3 -3 6 -4q2 -1 7 -1q8 0 11 1t8 6q4 4 7 10q4 8 5 15h5v-39h-5l-2 4q-1 1 -3 1l-4 -1l-7 -2q-5 0 -8 -1l-6 -1q-6 0 -14 2q-7 3 -11 7q-6 6 -7 11
q-3 6 -3 13t1 10q2 5 5 8q2 3 9 8q2 2 14 8l16 8q3 3 9 7l5 7q1 3 1 8q0 4 -1 6q-1 3 -4 6l-7 3q-6 2 -8 2q-5 0 -11 -2q-5 -1 -11 -7t-8 -11q-3 -4 -5 -15h-4v41h4q1 -4 4 -4h4l3 2q10 2 13 2q2 1 6 1l-10 16h2h1q3 0 7 2q3 3 3 7t-1 5l-3 4l-5 3q-4 2 -6 2l-2 -1h-4v5
q3 1 7 1h5q5 0 11 -2q4 -1 8 -5q5 -3 6 -7q2 -6 2 -8q0 -8 -4 -12q-5 -5 -12 -6l2 -4q6 0 12 -3q5 -1 13 -7q6 -6 8 -10q3 -6 3 -14z" />
    <glyph glyph-name="t" unicode="t" horiz-adv-x="97" 
d="M25 128q2 9 9 13q7 5 18 5q15 0 32 -5l8 -21l-1 -1q-10 12 -25 12q-9 0 -14 -6q-4 -5 -4 -20v-75h19q8 0 11 3l7 -18q-3 3 -6 3q-3 1 -10 1h-21v-46l-23 10l2 13q0 10 -5 20q-6 9 -17 12v2h17v78q0 13 3 20z" />
    <glyph glyph-name="u" unicode="u" horiz-adv-x="158" 
d="M151 141q-11 0 -13 -8q-3 -7 -3 -21v-95l-42 3v2q10 1 13 8q3 8 3 22v18q0 16 -1 22q-1 9 -8 17q-5 9 -14 13q-9 6 -18 6q-10 0 -15 -8q-4 -7 -4 -26v-77l-41 3v2q10 1 13 8q2 10 2 22v55q0 39 31 39q14 0 28 -8t27 -21q0 14 5 26h37v-2z" />
    <glyph glyph-name="udieresis" unicode="&#xfc;" horiz-adv-x="128" 
d="M69 31q7 0 10 1l5 3l3 5q1 2 1 8v65l-9 8l-7 5q-6 2 -7 2q-2 1 -6 1q-5 0 -7 -1q-4 -2 -6 -4q-2 -1 -4 -8q-2 -6 -2 -13v-77h-40v5h2h8l6 3l3 5v10v51q0 16 3 25q3 10 10 14q8 5 17 5t16 -4q11 -6 23 -20v24h5l34 -14l-1 -4q-6 2 -9 2t-5 -2l-3 -6q-1 -3 -1 -24v-70h-39
v5zM37 -25l-5 3l-3 4q-1 2 -1 5q0 4 1 5l3 5l5 3q1 1 5 1t5 -1l4 -3l3 -5q1 -1 1 -5q0 -3 -1 -5l-2 -4l-4 -3q-2 -1 -6 -1t-5 1zM81 -25l-5 3l-3 4q-1 2 -1 5q0 4 1 5l3 5l5 3q1 1 5 1t6 -1l4 -3q1 -1 1 -2.5t1 -2.5t1 -5q0 -3 -1 -5l-2 -4l-4 -3q-2 -1 -6 -1t-5 1z" />
    <glyph glyph-name="uni01D4" unicode="&#x1d4;" horiz-adv-x="158" 
d="M151 141q-11 0 -13 -8q-3 -7 -3 -21v-95l-42 3v2q10 1 13 8q3 8 3 22v18q0 16 -1 22q-1 9 -8 17q-5 9 -14 13q-9 6 -18 6q-10 0 -15 -8q-4 -7 -4 -26v-77l-41 3v2q10 1 13 8q2 10 2 22v55q0 39 31 39q14 0 28 -8t27 -21q0 14 5 26h37v-2zM40 -40l22 35h20l23 -35h-21
l-11 21l-12 -21h-21z" />
    <glyph glyph-name="uniFF41" unicode="&#xff41;" horiz-adv-x="113" 
d="M98 130h-1q-5 0 -4 -12v-61q3 -25 -35 -25q-37 1 -41 25q0 12 11 12q10 0 10 -11q0 -5 -5 -10l-2 -2q2 -8 24 -9q17 2 18 16v24q-63 2 -64 37q0 23 30 23q24 0 34 -13q3 13 17 13q19 -1 22 -19h-5q-3 12 -9 12zM67 122q-7 7 -19 7q-19 -1 -20 -20q0 -25 45 -27v24
q0 12 -6 16z" />
    <glyph glyph-name="uniFF42" unicode="&#xff42;" horiz-adv-x="128" 
d="M12 -38h-6v6h15v164h-15v6h34v-16q10 15 30 17q27 0 41 -20q9 -16 9 -31q-2 -24 -13 -37q-14 -17 -37 -17q-19 2 -29 18v-93q-13 3 -29 3zM72 39q26 0 24 48q2 50 -26 49q-29 -3 -30 -37q0 -30 1 -35q9 -25 31 -25z" />
    <glyph glyph-name="uniFF43" unicode="&#xff43;" horiz-adv-x="113" 
d="M62 134q-19 -1 -25 -15q-5 -20 -5 -35q0 -47 29 -47q10 0 16 3t7 7q0 1 -2 3q-6 5 -6 11q2 11 12 12q11 -2 12 -14q-1 -24 -40 -27q-21 2 -37 16q-15 17 -15 41q0 15 11 32q13 16 41 16q32 -1 43 -33h-5q-12 30 -36 30z" />
    <glyph glyph-name="uniFF44" unicode="&#xff44;" horiz-adv-x="128" 
d="M79 -40h-9v6h17v86q-10 -18 -31 -20q-20 0 -34 14q-14 17 -14 39q0 21 11 35q12 17 35 17t33 -16h1v15h33v-6h-14v-173q-14 3 -28 3zM88 87q1 31 -13 40q-7 5 -17 7q-28 3 -26 -53q-2 -46 24 -44q24 0 31 27q1 3 1 23z" />
    <glyph glyph-name="uniFF45" unicode="&#xff45;" horiz-adv-x="113" 
d="M64 135q-33 1 -31 -46v-10h72q-3 -43 -46 -46q-47 5 -51 58q0 19 17 36q14 11 35 11q20 0 30 -7q10 -9 15 -26h-6q-9 27 -35 30zM35 54l1 -1q9 -15 22 -15q24 0 24 25v8h-49q0 -7 2 -17z" />
    <glyph glyph-name="uniFF46" unicode="&#xff46;" horiz-adv-x="86" 
d="M61 -34l7 2q0 2 -1 3t-1 3q0 12 10 12q9 -1 10 -8q-1 -16 -22 -17q-20 0 -32 16q-11 16 -11 46v13h-19v6h19v89h-19v6h60v-6h-21v-89h21v-6h-21v-29q2 -40 20 -41z" />
    <glyph glyph-name="uniFF47" unicode="&#xff47;" horiz-adv-x="113" 
d="M18 107q-2 -12 41 -15q3 -1 8 -1q24 -6 26 -32q0 -4 -3 -12l-1 -5q2 -5 6 -6q2 0 3 3q3 5 5 5q8 0 9 -10q0 -7 -10 -8q-9 0 -17 14q-9 -15 -32 -15q-34 1 -37 35q0 21 20 29v1q-26 3 -26 20q-1 18 26 20h2q-30 9 -30 28q5 26 49 27q25 0 38 -12q14 -11 14 -31
q0 -11 -7 -18q-4 -12 -50 -11h-27q-5 -1 -7 -6zM63 129q37 -1 37 19q0 31 -45 31q-30 -1 -31 -22q4 -28 39 -28zM73 58q2 32 -20 30q-17 0 -17 -31q0 -29 19 -27q18 0 18 28z" />
    <glyph glyph-name="uniFF48" unicode="&#xff48;" horiz-adv-x="128" 
d="M6 137h48v-6h-14v-48q5 -38 31 -43h2q15 0 14 22v69h-13v6h47v-6h-14v-72q0 -26 -30 -26q-13 0 -23 8q-9 7 -13 19h-1v-102q-14 3 -28 3h-6v6h14v164h-14v6z" />
    <glyph glyph-name="uniFF49" unicode="&#xff49;" horiz-adv-x="71" 
d="M45 132v-98q-13 3 -28 3h-9v6h17v89h-17v6h52v-6h-15zM27 -8q3 3 8 3q6 -2 10 -4q3 -5 3 -10q0 -4 -3 -7q-3 -5 -10 -5q-5 0 -9 4q-3 3 -3 8q0 7 4 11z" />
    <glyph glyph-name="uniFF4A" unicode="&#xff4a;" horiz-adv-x="71" 
d="M20 37h-8v6h17v113q0 30 -12 30q-5 0 -7 -6q-2 -8 -7 -8q-10 0 -10 8q0 13 15 14q36 -3 41 -57v-103q-15 3 -29 3zM29 -10q3 5 9 5t10 -4q3 -5 3 -10t-4 -9q-5 -3 -9 -3q-5 0 -8 4q-2 2 -4 8q0 6 3 9z" />
    <glyph glyph-name="uniFF4B" unicode="&#xff4b;" horiz-adv-x="128" 
d="M41 133v-173q1 0 -19 2q-4 1 -9 1h-5v6h13v164h-13v6h49v-6h-16zM84 133h-13v6h49v-6h-11l-48 -59l35 -30h16v-6h-42v6h15l-44 37z" />
    <glyph glyph-name="uniFF4C" unicode="&#xff4c;" horiz-adv-x="71" 
d="M45 131v-173q1 0 -19 2l-10 1h-11v6h20v164h-20v6h60v-6h-20z" />
    <glyph glyph-name="uniFF4D" unicode="&#xff4d;" horiz-adv-x="184" 
d="M138 33q-21 0 -35 24q-5 -24 -30 -24q-20 0 -32 24h-1v-24q-14 3 -28 3h-5v6h13v89h-13v6h48v-6h-15v-48q0 -18 10 -31q9 -12 19 -12q14 2 14 18v73h-13v6h47v-6h-14v-54q2 -15 12 -28q9 -9 17 -9q14 2 14 18v73h-14v6h47v-6h-13v-68q0 -29 -28 -30z" />
    <glyph glyph-name="uniFF4E" unicode="&#xff4e;" horiz-adv-x="128" 
d="M7 138h48v-6h-14v-48q2 -18 11 -31q11 -12 20 -12h2q15 0 14 22v69h-13v6h47v-6h-14v-72q0 -26 -30 -26q-26 0 -36 27h-1v-27q-8 2 -14 2h-6q-3 1 -8 1h-6v6h15v89h-15v6z" />
    <glyph glyph-name="uniFF4F" unicode="&#xff4f;" horiz-adv-x="113" 
d="M21 49q-14 19 -14 38q2 19 10 32q13 17 40 19q26 -1 39 -18q10 -14 10 -33q0 -26 -16 -41q-14 -13 -33 -13q-21 0 -36 16zM83 87q1 49 -26 48q-27 1 -26 -48q-3 -51 26 -49q29 -2 26 49z" />
    <glyph glyph-name="uniFF50" unicode="&#xff50;" horiz-adv-x="128" 
d="M6 193h52v-6h-17v-64q11 15 30 15q27 0 41 -20q8 -14 8 -29q0 -19 -9 -34q-13 -20 -39 -22q-21 2 -31 20h-1v-20q-8 2 -14 2h-7q-3 1 -8 1h-5v6h15v145h-15v6zM52 46.5q8 -7.5 21 -7.5q24 0 23 49q2 52 -27 47q-15 -1 -23 -15q-6 -8 -5 -29v-5v-7q0 -8 1 -11
q2 -14 10 -21.5z" />
    <glyph glyph-name="uniFF51" unicode="&#xff51;" horiz-adv-x="128" 
d="M122 42v-6h-4q-22 0 -30 -3v21h-1q-9 -19 -32 -21q-22 2 -35 17q-12 15 -12 38q0 17 11 34q13 16 35 16q25 0 32 -15h1v64h-17v6h52v-6h-15v-145h15zM87 100q0 17 -7 24q-9 10 -23 10q-27 1 -25 -44q-1 -51 24 -51q12 0 21 9q11 9 10 37v15z" />
    <glyph glyph-name="uniFF52" unicode="&#xff52;" horiz-adv-x="85" 
d="M13 37h-8v6h18v89h-18v6h57v-6h-19v-49q0 -13 6 -27q6 -12 15 -15q2 0 2 1v2l-1 4q1 9 10 10q11 -2 12 -10q-1 -13 -16 -14q-8 0 -16 6q-7 5 -13 18v-24q-13 3 -29 3z" />
    <glyph glyph-name="uniFF53" unicode="&#xff53;" horiz-adv-x="99" 
d="M47 33q-14 0 -22 6q-13 9 -13 26q-1 22 29 27q1 1 3 1q37 9 35 20q-2 20 -25 22q-27 -2 -36 -32h-6v34h6l5 -9q10 10 30 10q16 0 27 -8q10 -10 10 -25q2 -24 -27 -29q-47 -9 -41 -19q3 -19 24 -19q20 1 28 26h5v-28h-4l-5 7q-10 -10 -23 -10z" />
    <glyph glyph-name="uniFF54" unicode="&#xff54;" horiz-adv-x="71" 
d="M19 117v3q0 17 18 17q23 0 30 -13l-4 -3q-7 10 -14 9q-12 0 -10 -11v-78h23v-6h-23v-33q0 1 -19 1v32h-15v6h14v76z" />
    <glyph glyph-name="uniFF55" unicode="&#xff55;" horiz-adv-x="128" 
d="M106 31q-13 3 -29 3h-6v6h15v57q0 15 -11 26q-7 7 -20 7q-16 0 -16 -19v-80q-14 3 -29 3h-5v6h14v74q0 23 30 23q12 0 21 -3q11 -6 17 -18v19h28h5v-6h-14v-98z" />
    <glyph glyph-name="uniFF56" unicode="&#xff56;" horiz-adv-x="113" 
d="M60 138l35 -96h13v-6h-35v6h16l-26 73h-1l-25 -73h14v-6h-46v6h12l34 96h9z" />
    <glyph glyph-name="uniFF57" unicode="&#xff57;" horiz-adv-x="156" 
d="M54 138l23 -73h1l25 73h8l29 -96h14v-6h-39v6h18l-20 68l-24 -74h-9l-23 74l-21 -68h15v-6h-49v6h14l30 96h8z" />
    <glyph glyph-name="uniFF58" unicode="&#xff58;" horiz-adv-x="113" 
d="M51 96l24 36h-13v6h47v-6h-12l-35 -52l26 -37h14v-6h-36v6h14l-22 32l-21 -32h14v-6h-48v6h14l31 47l-30 42h-15v6h37v-6h-14z" />
    <glyph glyph-name="uniFF59" unicode="&#xff59;" horiz-adv-x="113" 
d="M72 37v6h17l-25 68l-28 -68h16v-6h-49v6h12l39 95l-10 26l-1 2q-4 15 -9 15q-1 0 -3 -3q-5 -6 -11 -6q-9 1 -10 11q2 10 12 11q20 2 33 -41l41 -110h13v-6h-37z" />
    <glyph glyph-name="uniFF5A" unicode="&#xff5a;" horiz-adv-x="99" 
d="M26 47q5 -6 18 -5h22l-60 89v6h83v-37h-5q-4 16 -7 22q-6 9 -15 9h-32l60 -89v-6h-77v33h6q1 -14 7 -22z" />
    <glyph glyph-name="v" unicode="v" horiz-adv-x="140" 
d="M47 43q-3 -10 -3 -15q0 -7 9 -9v-2h-50v2q6 0 9 5l6 15l31 86q3 8 3 10q0 5 -6 6v2h43v-2q-6 -1 -6 -6q0 -6 4 -13l32 -80q4 -11 8 -17q3 -5 10 -6v-2h-37v2q9 0 9 8l-3 10l-32 85z" />
    <glyph glyph-name="w" unicode="w" horiz-adv-x="200" 
d="M104 19h-2l-34 105l-21 -82l-2 -13q0 -8 8 -10v-2h-50v2q7 0 10 5t6 17l25 83l2 11q0 4 -5 6v2h38v-2q-4 -1 -4 -5l2 -7l20 -58l20 56q3 6 3 10q0 3 -4 4v2h39v-2q-6 -1 -6 -5l3 -11l26 -81l3 -9l3 -8q1 -2 5 -6q4 -2 8 -2v-2h-40v2q9 2 9 9l-3 16l-23 75z" />
    <glyph glyph-name="x" unicode="x" horiz-adv-x="143" 
d="M99 46q4 -6 7 -9l8 -8q3 -3 9 -7l9 -3v-2h-43v2q8 2 8 6t-10 17l-11 15l-10 -15q-8 -11 -8 -17q0 -4 8 -6v-2h-55v2q4 0 8 3t7 7q4 6 7 9l5 8l21 31l-38 47l-10 11q-5 5 -10 6v2h39v-2q-7 -1 -7 -6t15 -25l18 -23l19 29q10 14 10 19q0 4 -8 6v2h53v-2q-4 -2 -6 -4
q-3 -1 -7 -7l-6 -7l-39 -57z" />
    <glyph glyph-name="y" unicode="y" horiz-adv-x="144" 
d="M51 40l-3 -13q0 -6 8 -8v-2h-51v2q6 0 10 6q4 5 7 16l28 68q11 27 11 39q0 7 -3 14q-3 8 -8 13q-7 5 -14 5t-10 -6q-4 -4 -4 -12q0 -5 1 -7l-2 -1l-16 35q10 9 25 9q13 0 22 -6q9 -5 13 -14q8 -16 10 -22l44 -114l4 -8l3 -7q2 -3 5 -5l7 -3v-2h-39v2q9 2 9 8q0 3 -1 5
l-2 6l-3 9l-24 64z" />
    <glyph glyph-name="z" unicode="z" horiz-adv-x="128" 
d="M41 17q-11 0 -15 -4l-8 39h2q11 -24 50 -24l15 1l-79 114h82q15 0 21 3l15 -43l-2 -1q-6 16 -20 22q-13 7 -33 7l-24 -1l79 -113h-83z" />
    <glyph glyph-name="zacute" unicode="&#x17a;" horiz-adv-x="128" 
d="M41 17q-11 0 -15 -4l-8 39h2q11 -24 50 -24l15 1l-79 114h82q15 0 21 3l15 -43l-2 -1q-6 16 -20 22q-13 7 -33 7l-24 -1l79 -113h-83zM67 -2h4l37 -43h-28z" />
    <glyph glyph-name="uni0410" unicode="&#x410;" horiz-adv-x="183" 
d="M90 73q9 3 23 13q10 10 14 18q5 12 5 19q0 15 -12 18v2h58v-2l-6 -3l-4 -4q-2 -2 -4 -7l-2 -5l-44 -126q-2 -8 -2 -10q0 -8 7 -9v-2h-56v2q8 2 8 8t-4 15l-42 109q-5 14 -11 24l-5 5l-8 3v2h52v-2q-7 -2 -10 -5q-4 -3 -4 -9q0 -9 4 -18l15 -41q13 0 28 5zM103 64
q-6 -3 -18 -7q-14 -2 -19 -2l23 -61l28 82q-6 -7 -14 -12z" />
    <glyph glyph-name="uni0411" unicode="&#x411;" horiz-adv-x="163" 
d="M24 125q-2 6 -4 10q-4 4 -12 6v2h77q70 0 70 -48q0 -17 -11 -31q-12 -14 -35 -23q-24 -8 -56 -8v-25v-6v-5q0 -4 2 -6t7 -3h18q22 0 38 8q14 7 22 27l2 -1l-12 -51l-5 3q-2 1 -10 1h-107v2q11 2 14 8q3 7 3 21v105q0 11 -1 14zM95 51q17 8 24 18q7 11 7 25q0 11 -6 18
q-6 9 -17 14q-13 5 -28 5q-13 0 -16 -1q-3 0 -5 -3q-1 -1 -1 -9v-74q27 0 42 7z" />
    <glyph glyph-name="uni0412" unicode="&#x412;" horiz-adv-x="168" 
d="M8 -23q11 2 14 9l3 22v103q0 11 -1 14q-2 6 -4 10q-4 4 -12 6v2h64q25 0 34 -1q13 -1 25 -6q14 -5 22 -17q8 -11 8 -27q0 -13 -8 -26q-8 -12 -20 -20q-14 -8 -28 -12l13 -7l13 -8l9 -10q3 -6 3 -13q0 -10 -6 -14q-7 -5 -15 -6q-6 -1 -20 -1h-94v2zM91 39q19 9 29 20
q11 14 11 30q0 11 -4 19t-14 15q-14 8 -40 8q-8 0 -14 -2q-4 -1 -5 -5q-1 -3 -1 -13v-57zM55 -9q5 -5 25 -5q10 0 24 2q9 3 9 13q0 11 -10 18q-13 9 -24 13q-4 2 -26 10v-34q0 -11 2 -17z" />
    <glyph glyph-name="uni0413" unicode="&#x413;" horiz-adv-x="149" 
d="M130 -26q-2 1 -9 1h-111v2q9 2 12 5q2 3 4 11q1 4 1 15v103q0 11 -1 14q-2 6 -4 10q-4 4 -12 6v2h62v-2q-8 -2 -11 -6q-3 -3 -5 -10q-1 -3 -1 -15v-101q0 -9 2 -15q2 -5 6 -6q6 -2 16 -2q18 0 31 6q11 5 22 14q9 9 12 19l2 -1l-12 -53z" />
    <glyph glyph-name="uni0414" unicode="&#x414;" horiz-adv-x="207" 
d="M182 137q-5 0 -8 -7q-4 -7 -4 -19v-103q0 -15 3 -22t14 -9v-2h-113v2q8 2 8 10q0 5 -3 10q-8 12 -16 28q-7 14 -12 29q-7 23 -8 28q-4 17 -5 28q-2 8 -6 17q-4 10 -11 10q-3 0 -6 -3l-12 51h2q3 -8 13 -22q7 -9 20 -15q13 -5 27 -5h74q15 0 28 5q12 7 20 15q10 14 13 22
h2l-12 -51q-5 3 -8 3zM67 129q-6 -2 -7 -6q-2 -6 -2 -13q0 -19 5 -42q4 -18 13 -38q9 -19 16 -29q3 -5 13 -11q7 -4 16 -4t15 2q3 2 5 7q1 3 1 14v101q0 11 -5 16q-4 4 -14 4h-45q-8 0 -11 -1z" />
    <glyph glyph-name="uni0415" unicode="&#x415;" horiz-adv-x="164" 
d="M117 -25h-109v2q11 2 14 9t3 22v103q0 11 -1 14q-2 6 -4 10q-4 4 -12 6v2h117q9 0 12 3l22 -63l-3 -1q-24 49 -77 49q-12 0 -18 -3q-5 -1 -7 -8q-1 -3 -1 -17v-69h6q15 0 20 1l13 3q7 3 11 9q5 7 8 17h2l-10 -58l-2 1q0 11 -6 12q-6 3 -17 3h-25v-14q0 -9 2 -15
q1 -4 7 -6q3 -1 14 -1q15 0 27 4q13 5 23 12q11 9 15 22l2 -1l-12 -52q-4 4 -14 4z" />
    <glyph glyph-name="uni0401" unicode="&#x401;" horiz-adv-x="166" 
d="M117 -25h-109v2q11 2 14 9t3 22v103q0 11 -1 14q-2 6 -4 10q-4 4 -12 6v2h117q9 0 12 3l22 -63l-3 -1q-24 49 -77 49q-12 0 -18 -3q-5 -1 -7 -8q-1 -3 -1 -17v-69h6q15 0 20 1l13 3q7 3 11 9q5 7 8 17h2l-10 -58l-2 1q0 11 -6 12q-6 3 -17 3h-25v-14q0 -9 2 -15
q1 -4 7 -6q3 -1 14 -1q15 0 27 4q13 5 23 12q11 9 15 22l2 -1l-12 -52q-4 4 -14 4zM51 -50q5 5 9 5q6 0 10 -4q3 -5 3 -10q0 -7 -3 -11q-4 -4 -10 -4t-9 4q-4 4 -4 11q0 5 4 9zM88 -50q5 5 10 5q6 0 10 -4q3 -5 3 -10q0 -7 -3 -11q-4 -4 -11 -4q-5 0 -9 4t-4 11q0 5 4 9z
" />
    <glyph glyph-name="uni0416" unicode="&#x416;" horiz-adv-x="279" 
d="M171 141q-8 -2 -11 -6q-3 -3 -5 -10q-1 -4 -1 -16v-55l20 -19q18 19 34 45l12 27q6 15 6 24q0 3 -2 7q-3 3 -7 3v2h57v-2q-8 -2 -11 -7q-4 -4 -9 -18l-5 -11q-21 -53 -56 -87l19 -16q2 -1 4.5 -3l6.5 -5l12 -9l12 -6q8 -2 13 -2v-2h-62v2q7 0 7 6q0 7 -10 17l-22 20
l-19 17v-31q0 -14 3 -21q3 -6 14 -8v-2h-62v2q11 2 14 8q3 7 3 21v31l-20 -17l-20 -20q-11 -11 -11 -17t6 -6v-2h-61v2q10 0 17 4q3 2 6.5 3.5t7.5 4.5q1 1 17 13l19 16q-34 33 -57 87l-5 11l-7 18q-4 5 -12 7v2h56v-2q-4 0 -6 -3q-3 -3 -3 -7q0 -9 6 -24q7 -17 13 -27
q14 -24 33 -45l21 19v55q0 12 -1 16q-2 6 -4 10q-5 5 -12 6v2h62v-2z" />
    <glyph glyph-name="uni0417" unicode="&#x417;" horiz-adv-x="153" 
d="M126 -12q-9 -9 -21 -13q-13 -4 -35 -4q-12 0 -18 1l-12 1q-7 0 -10 -4l-17 48l2 1q7 -12 14 -19t17 -11q11 -3 24 -3q32 0 32 24q0 9 -8 17q-9 7 -23 12q-12 4 -31 4v12q27 0 43 3q17 5 26 12q8 10 8 23t-6 22q-7 10 -20 14q-15 5 -31 5t-32 -11q-14 -10 -22 -26h-2
l15 50q1 -1 9 -1h17q8 1 19 1q21 0 36 -4q15 -3 26 -11t15 -17q5 -12 5 -22q0 -21 -14 -32q-17 -12 -39 -16q15 -4 27 -15q12 -9 12 -22q0 -12 -6 -19z" />
    <glyph glyph-name="uni0418" unicode="&#x418;" horiz-adv-x="184" 
d="M130 11v100q0 11 -2 21q-3 7 -14 9v2h61v-2q-6 -1 -11 -6q-4 -4 -4 -10q-1 -3 -1 -7.5t-1 -8.5v-103q0 -11 1 -15q2 -6 5 -9q2 -3 11 -5v-2h-61v2q12 2 14 5q2 6 2 12l-76 66v-54q0 -11 1 -15q2 -6 5 -9q2 -3 11 -5v-2h-62v2q11 2 14 9t3 22v103q0 11 -1 14q-2 6 -4 10
q-5 5 -12 6v2h62v-2q-8 -2 -11 -6q-3 -3 -5 -10q-1 -4 -1 -16v-31z" />
    <glyph glyph-name="uni0419" unicode="&#x419;" horiz-adv-x="184" 
d="M130 11v100q0 11 -2 21q-3 7 -14 9v2h61v-2q-6 -1 -11 -6q-4 -4 -4 -10q-1 -3 -1 -7.5t-1 -8.5v-103q0 -11 1 -15q2 -6 5 -9q2 -3 11 -5v-2h-61v2q12 2 14 5q2 6 2 12l-76 66v-54q0 -11 1 -15q2 -6 5 -9q2 -3 11 -5v-2h-62v2q11 2 14 9t3 22v103q0 11 -1 14q-2 6 -4 10
q-5 5 -12 6v2h62v-2q-8 -2 -11 -6q-3 -3 -5 -10q-1 -4 -1 -16v-31zM67 -47q4 7 11 10q7 4 15 4q9 0 16 -4q7 -3 11 -10q3 -4 5 -15h-3q-3 5 -11 11q-7 4 -18 4q-18 0 -29 -15h-3q2 7 6 15z" />
    <glyph glyph-name="uni041A" unicode="&#x41a;" horiz-adv-x="183" 
d="M25 125q-2 6 -4 10q-5 5 -12 6v2h62v-2q-8 -2 -11 -6q-3 -3 -5 -10q-1 -4 -1 -16v-55l24 -20q21 22 35 46l13 26q6 17 6 25q0 9 -9 10v2h56v-2q-8 -2 -11 -7q-4 -6 -8 -18l-5 -11q-22 -54 -57 -87l19 -16l18 -13q3 -3 7 -5l6 -3q7 -4 17 -4v-2h-62v2q7 1 7 6q0 6 -10 15
l-24 22l-22 17v-31q0 -14 3 -21q3 -6 14 -8v-2h-62v2q11 2 14 9t3 22v103q0 11 -1 14z" />
    <glyph glyph-name="uni041B" unicode="&#x41b;" horiz-adv-x="168" 
d="M111 -9q3 6 3 18v101q0 12 -1 15q-2 6 -4 10q-5 4 -12 6v2h62v-2q-8 -2 -11 -6q-3 -3 -5 -10q-1 -3 -1 -14v-103q0 -15 3 -22t14 -9v-2h-113v2q8 2 8 10q0 5 -3 10q-13 17 -22 40q-8 20 -13 43q-6 29 -7 37q-2 22 -2 26h46v-2q-12 -2 -17 -11q-6 -7 -6 -20q0 -19 5 -42
q4 -18 13 -38q9 -19 16 -29q11 -15 29 -15q13 0 18 5z" />
    <glyph glyph-name="uni041C" unicode="&#x41c;" horiz-adv-x="202" 
d="M149 -8v119v15q-2 6 -4 10q-3 3 -12 5v2h61v-2q-6 -1 -11 -6q-4 -4 -4 -10q-1 -4 -1 -16v-103q0 -11 1 -15q0 -5 4 -9q3 -3 11 -5v-2h-61v2q4 1 4 5q0 5 -6 16l-29 47l-30 -54q-3 -6 -3 -9q0 -4 4 -5v-2h-64v2q10 1 13 9q3 7 3 22v103q0 12 -1 15q-2 6 -4 9q-5 5 -11 6v2
h49v-2q-6 -1 -11 -6q-4 -4 -4 -10q-1 -4 -1 -16v-117l51 91z" />
    <glyph glyph-name="uni041D" unicode="&#x41d;" horiz-adv-x="184" 
d="M130 34v77q0 12 -2 22q-3 6 -14 8v2h61v-2q-6 -1 -11 -6q-4 -4 -4 -10q-1 -3 -1 -7.5t-1 -8.5v-103q2 -15 4 -21q1 -6 13 -8v-2h-61v2q7 0 11 4q3 3 5 11v16v13h-76v-15q0 -11 1 -15q2 -6 5 -9q2 -3 11 -5v-2h-62v2q11 2 14 9t3 22v103q0 11 -1 14q-2 6 -4 10q-5 5 -12 6
v2h62v-2q-8 -2 -11 -6q-3 -3 -5 -10q-1 -4 -1 -16v-75h76z" />
    <glyph glyph-name="uni041E" unicode="&#x41e;" horiz-adv-x="204" 
d="M67 140q16 6 34 6t35 -6q15 -5 29 -18q12 -9 20 -27q7 -15 7 -34t-6 -36q-7 -16 -19 -29q-12 -11 -30 -19q-17 -6 -36 -6q-18 0 -35 6q-18 8 -29 19q-13 12 -19 28q-7 15 -7 35q0 13 3 23q3 11 9 22q7 12 15 19q13 13 29 17zM72 120q-16 -13 -23 -31q-8 -21 -8 -39
q0 -17 6 -32t18 -24t30 -9q17 0 33 11q15 12 25 31q9 20 9 42q0 18 -6 31q-8 16 -19 24q-14 9 -30 9q-21 0 -35 -13z" />
    <glyph glyph-name="uni041F" unicode="&#x41f;" horiz-adv-x="184" 
d="M9 -23q7 2 11 5q2 3 4 11q1 4 1 15v103q0 11 -1 14q-2 6 -4 10q-5 5 -11 6v2h61v-2q-8 -2 -11 -6q-3 -3 -5 -10q-1 -3 -1 -15v-101q0 -9 2 -15q2 -5 6 -6q6 -2 16 -2h29q10 0 16 2t7 6q1 3 1 15v101q0 12 -1 15q-2 7 -5 10q-5 5 -11 6v2h61v-2q-6 -1 -11 -6q-4 -4 -4 -10
q-1 -3 -1 -14v-103q0 -15 3 -22q1 -7 13 -9v-2h-165v2z" />
    <glyph glyph-name="uni0420" unicode="&#x420;" horiz-adv-x="148" 
d="M9 -23q7 2 11 5q2 3 4 11q1 4 1 15v103q0 12 -1 15q-2 6 -4 9q-5 5 -11 6v2h61v-2q-8 -2 -11 -6q-3 -3 -5 -10q-1 -4 -1 -16v-44q12 -3 28 -8q9 -3 29 -13q14 -7 24 -18q9 -10 9 -23q0 -17 -11 -23q-12 -5 -30 -5h-93v2zM54 -5q1 -4 7 -7q6 -2 16 -2q19 0 28 4t9 17
q0 27 -61 46v-42q0 -13 1 -16z" />
    <glyph glyph-name="uni0421" unicode="&#x421;" horiz-adv-x="184" 
d="M175 93q-19 40 -57 40q-18 0 -31 -7q-13 -6 -24 -18q-12 -14 -16 -28q-6 -15 -6 -31q0 -11 5 -26q5 -12 12 -21q6 -9 18 -14q11 -3 24 -3q11 0 23 3q14 6 20 11q8 8 13 19l2 -1l-12 -48q-3 5 -10 5l-8 -1l-28 -2q-20 0 -35 4q-13 4 -29 16q-13 10 -19 26q-6 17 -6 33
t4 28q3 12 11 24q7 12 18 21q28 23 74 23l31 -1q7 0 9 1l19 -52z" />
    <glyph glyph-name="uni0422" unicode="&#x422;" horiz-adv-x="162" 
d="M135 -4q14 8 21 27l3 -1l-13 -51l-4 3q-3 1 -11 1h-98q-8 0 -10 -1l-5 -3l-13 51l3 1q8 -20 22 -27q14 -8 38 -8v123q0 15 -3 22q-3 6 -14 8v2h62v-2q-9 -2 -11 -5q-3 -3 -5 -10q-1 -4 -1 -16v-122q23 0 39 8z" />
    <glyph glyph-name="uni0423" unicode="&#x423;" horiz-adv-x="178" 
d="M63 132q-22 0 -22 -27q0 -4 2 -18h-3l-19 46q17 14 35 14q5 0 8 -1q25 -3 43 -45l44 -98q2 -6 10 -19q4 -5 12 -7v-2h-45v2q9 2 9 11q0 6 -5 19l-28 67l-38 -66q-11 -19 -11 -25q0 -5 6 -6v-2h-56v2q8 2 13 7l13 21l60 98q-12 26 -28 29z" />
    <glyph glyph-name="uni0424" unicode="&#x424;" horiz-adv-x="220" 
d="M125 -13q2 -5 5 -7l11 -3v-2h-62v2q11 2 14 6t3 16q-23 2 -33 5q-16 4 -28 12t-18 18q-7 10 -7 25q0 17 11 30q9 12 31 20q20 8 44 9q0 9 -1 12q-2 6 -4 7q-3 2 -12 4v2h62v-2q-7 -1 -11 -4q-3 -2 -5 -7q-1 -3 -1 -12q23 -2 33 -5q14 -3 27 -11q11 -7 19 -18q7 -10 7 -23
q0 -19 -11 -33q-9 -12 -30 -20q-19 -7 -45 -9q0 -9 1 -12zM68 97q-11 -6 -20 -20q-7 -11 -7 -25q0 -19 15 -30q13 -10 40 -12v97q-14 -1 -28 -10zM145 17q11 5 18 12t12 17q4 9 4 21q0 19 -15 29q-13 9 -40 11v-97q7 1 21 7z" />
    <glyph glyph-name="uni0425" unicode="&#x425;" horiz-adv-x="183" 
d="M127 6l9 -12q1 -2 6 -7q3 -3 9 -7q5 -3 11 -3v-2h-50v2q8 2 8 6q0 8 -10 21l-17 24l-17 -26q-7 -10 -7 -16q0 -7 11 -9v-2h-66v2q10 1 18 9q3 4 16 23l29 43l-45 64l-5 8q-4 4 -6 8q-4 4 -7 5q-3 2 -9 4v2h53v-2q-12 -1 -12 -10q0 -7 15 -30l24 -36l33 50q6 9 6 15
q0 10 -12 11v2l67 1v-3q-8 -2 -12 -6q-7 -7 -11 -14l-54 -80z" />
    <glyph glyph-name="uni0427" unicode="&#x427;" horiz-adv-x="179" 
d="M35 57q13 13 33 13q26 0 57 -17v58q0 12 -2 22q-3 6 -14 8v2h61v-2q-8 -2 -11 -6q-4 -4 -4 -10l-2 -16v-103l2 -15q0 -5 4 -9q2 -3 11 -5v-2h-61v2q7 0 11 4q2 3 4 11q1 4 1 16v32q-23 13 -46 13q-13 0 -21 -8t-8 -22v-17q0 -14 3 -21q3 -6 14 -8v-2h-62v2q11 2 14 9
t3 22v18q0 19 13 31z" />
    <glyph glyph-name="uni0426" unicode="&#x426;" horiz-adv-x="192" 
d="M151 148q13 6 20 15q10 14 13 22h3l-13 -51q-2 2 -3 2q-5 0 -9 -7q-5 -7 -5 -20v-103q0 -14 3 -21q3 -6 14 -8v-2h-62v2q8 0 12 4q2 3 4 11q1 4 1 16v101q0 11 -1 14q-1 5 -6 6q-6 2 -17 2h-28q-10 0 -16 -2q-4 -1 -6 -6q-2 -6 -2 -14v-101q0 -12 1 -16q2 -8 5 -11
q3 -4 11 -4v-2h-61v2q7 2 11 5q2 3 4 9q1 4 1 15v103q0 15 -3 22q-3 9 -13 10v2h115q14 0 27 5z" />
    <glyph glyph-name="uni0428" unicode="&#x428;" horiz-adv-x="240" 
d="M140 129q-3 -1 -5 -6q-2 -6 -2 -14v-102q0 -12 1 -16q2 -6 5 -9q2 -3 11 -5v-2h-61v2q11 2 14 9q2 10 2 22v103q0 9 -1 12q-1 5 -6 6q-6 2 -12 2h-9q-10 0 -16 -2q-4 -1 -6 -6q-2 -6 -2 -14v-101q0 -12 1 -16q2 -8 5 -11q3 -4 11 -4v-2h-61v2q7 2 11 5q2 3 4 9q1 4 1 15
v103q0 15 -3 22q-3 9 -13 10v2h221v-2q-11 -2 -14 -10q-3 -7 -3 -22v-103q0 -14 3 -21q3 -6 14 -8v-2h-61v2q7 0 11 4q3 3 5 11v16v101q0 11 -1 14q-1 5 -6 6q-6 2 -16 2h-9q-7 0 -13 -2z" />
    <glyph glyph-name="uni0429" unicode="&#x429;" horiz-adv-x="247" 
d="M207 148q13 6 20 15q10 14 13 22h3l-13 -51q-2 2 -3 2q-5 0 -9 -7q-5 -7 -5 -20v-103q0 -14 3 -21q3 -6 14 -8v-2h-61v2q7 0 11 4q3 3 5 11v16v101q0 11 -1 14q-1 5 -6 6q-6 2 -16 2h-9q-7 0 -13 -2q-3 -1 -5 -6q-2 -6 -2 -14v-102q0 -12 1 -16q2 -6 5 -9q2 -3 11 -5v-2
h-61v2q11 2 14 9q2 10 2 22v103q0 9 -1 12q-1 5 -6 6q-6 2 -12 2h-9q-10 0 -16 -2q-4 -1 -6 -6q-2 -6 -2 -14v-101q0 -12 1 -16q2 -8 5 -11q3 -4 11 -4v-2h-61v2q7 2 11 5q2 3 4 9q1 4 1 15v103q0 15 -3 22q-3 9 -13 10v2h171q14 0 27 5z" />
    <glyph glyph-name="uni042C" unicode="&#x42c;" horiz-adv-x="153" 
d="M136 63q-14 -14 -34 -21q-22 -7 -48 -9v-25q0 -9 1 -12q0 -2 2 -8q2 -5 5 -7q4 -2 10 -4v-2h-63v2q11 2 14 9t3 22v103q0 11 -1 14q-2 6 -4 10q-5 5 -12 6v2h69q23 0 39 -6q15 -4 23 -16q8 -11 8 -26q0 -18 -12 -32zM88 52q15 8 24 18q8 11 8 24q0 11 -5 19q-6 9 -16 13
q-12 5 -23 5q-9 0 -15 -2q-4 -1 -6 -6q-1 -3 -1 -11v-68q21 2 34 8z" />
    <glyph glyph-name="uni042A" unicode="&#x42a;" horiz-adv-x="188" 
d="M60 125q-2 7 -5 10q-5 5 -11 6v2h69q22 0 38 -6q16 -4 24 -16q8 -11 8 -26q0 -18 -12 -32q-14 -14 -34 -21q-22 -7 -48 -9v-25q0 -15 3 -22q3 -8 13 -9v-2h-72q-8 0 -10 -1l-5 -3l-12 51l2 1q8 -18 17 -27q10 -10 25 -10h10v125v14zM122 52q15 8 24 18q8 11 8 24
q0 11 -5 19q-4 8 -15 13q-12 5 -23 5q-9 0 -15 -2q-4 -1 -6 -6q-1 -3 -1 -11v-68q20 2 33 8z" />
    <glyph glyph-name="uni042B" unicode="&#x42b;" horiz-adv-x="230" 
d="M136 63q-14 -14 -34 -21q-22 -7 -48 -9v-25q0 -9 1 -12q0 -2 2 -8q2 -5 5 -7q4 -2 10 -4v-2h-63v2q11 2 14 9t3 22v103q0 11 -1 14q-2 6 -4 10q-5 5 -12 6v2h69q23 0 39 -6q15 -4 23 -16q8 -11 8 -26q0 -18 -12 -32zM205 -9q2 -6 5 -9q2 -3 11 -5v-2h-61v2q10 1 13 9
q3 7 3 22v103q0 12 -1 15q-2 6 -4 9q-5 5 -11 6v2h61v-2q-8 -2 -11 -6q-3 -3 -5 -10q-1 -4 -1 -16v-102q0 -12 1 -16zM88 52q15 8 24 18q8 11 8 24q0 11 -5 19q-6 9 -16 13q-12 5 -23 5q-9 0 -15 -2q-4 -1 -6 -6q-1 -3 -1 -11v-68q21 2 34 8z" />
    <glyph glyph-name="uni0404" unicode="&#x404;" horiz-adv-x="179" 
d="M52 14q8 -15 21 -22t29 -7q38 0 54 33l3 -1l-17 -48q-4 4 -11 4l-11 -1q-7 -1 -18 -1q-23 0 -38 7q-19 8 -30 20q-12 12 -20 30q-7 17 -7 38q0 19 8 35q6 13 22 25q14 11 32 15q20 5 39 5q11 0 20 -1h16q8 0 9 1l14 -50h-2q-5 13 -13 19q-8 8 -21 13t-23 5q-19 0 -36 -9
q-16 -7 -24 -25q-9 -16 -9 -39h79v-14h-78q5 -19 12 -32z" />
    <glyph glyph-name="uni042D" unicode="&#x42d;" horiz-adv-x="179" 
d="M56 60h79q0 21 -8 39q-10 18 -25 25q-17 9 -36 9q-10 0 -23 -5t-21 -13q-8 -6 -13 -19h-2l14 50q1 -1 9 -1h17q8 1 19 1q18 0 40 -5q19 -5 32 -15q14 -11 21 -25q8 -16 8 -35q0 -21 -7 -38q-8 -18 -19 -30q-12 -12 -30 -20q-17 -7 -39 -7q-11 0 -17 1l-12 1q-7 0 -11 -4
l-17 48l3 1q17 -33 54 -33q16 0 29 7t21 22q7 13 12 32h-78v14z" />
    <glyph glyph-name="uni042E" unicode="&#x42e;" horiz-adv-x="261" 
d="M86 93q6 16 18 28q10 12 27 18q14 7 33 7q18 0 34 -6q15 -6 27 -18q10 -10 18 -27q7 -15 7 -34t-6 -36q-6 -14 -18 -29q-11 -11 -28 -19q-16 -6 -35 -6q-17 0 -32 6q-17 7 -26 16q-13 11 -18 23q-6 11 -8 30h-25v-40q0 -11 1 -15q2 -6 5 -9q2 -3 11 -5v-2h-62v2
q11 2 14 9t3 22v103q0 11 -1 14q-2 6 -4 10q-5 5 -12 6v2h62v-2q-8 -2 -11 -6q-3 -3 -5 -10q-1 -4 -1 -16v-50h24q2 20 8 34zM136 121q-14 -12 -20 -32q-7 -18 -7 -39q0 -27 12 -47q11 -18 36 -18q15 0 25 6q12 8 20 18q9 15 13 27q4 15 4 33q0 16 -5 31q-4 14 -16 24
q-12 9 -28 9q-20 0 -34 -12z" />
    <glyph glyph-name="uni042F" unicode="&#x42f;" horiz-adv-x="176" 
d="M40 -19q-11 8 -11 20q0 9 5 17q4 7 13 12q5 4 21 13q-25 33 -41 66q-8 18 -12 23q-4 7 -10 9v2h54v-2q-9 -1 -9 -10q0 -4 2 -10l8 -16l9 -17l11 -17l12 -18l30 11v45q0 13 -1 16q-2 6 -4 10q-4 4 -12 6v2h62v-2q-11 -2 -14 -9t-3 -21v-103q0 -15 3 -22t14 -9v-2h-99
q-17 0 -28 6zM96 42q-17 -7 -26 -16q-11 -9 -11 -19t4 -14q5 -5 11 -6q4 -1 16 -1h20l8 3q2 1 4 5v14v44q-22 -8 -26 -10z" />
    <glyph glyph-name="uni04AE" unicode="&#x4ae;" horiz-adv-x="170" 
d="M141 -1l8 -12q1 -2 7 -6q4 -2 10 -4v-2h-50v2q12 1 12 8q0 6 -12 26l-23 38l-24 -38q-10 -16 -10 -24q0 -9 12 -10v-2h-66v2q3 0 9 2l6 6q2 4 6 8l4 8l41 64v46q0 12 -1 15q-2 6 -4 10q-3 3 -11 5v2h61v-2q-9 -2 -11 -5q-3 -3 -5 -10q-1 -4 -1 -17v-44z" />
    <glyph glyph-name="uni04E8" unicode="&#x4e8;" horiz-adv-x="204" 
d="M192 61q0 -19 -6 -36q-7 -16 -19 -29q-12 -11 -30 -19q-17 -6 -36 -6q-18 0 -35 6q-18 8 -29 19q-13 12 -19 28q-7 15 -7 35q0 13 3 23q3 11 9 22q7 12 15 19q13 13 29 17q16 6 34 6t35 -6q15 -5 29 -18q12 -9 20 -27q7 -15 7 -34zM41 64l119 -17q2 14 2 22q0 18 -6 31
q-8 16 -19 24q-14 9 -30 9q-21 0 -35 -13q-16 -13 -23 -31q-8 -21 -8 -25zM153 27l4 9l-116 14q0 -17 6 -32t18 -24t30 -9q17 0 33 11q15 12 25 31z" />
    <glyph glyph-name="uni0430" unicode="&#x430;" horiz-adv-x="150" 
d="M143 141q-12 -3 -15 -12q-3 -7 -3 -24v-48q0 -17 -4 -26t-13 -13t-26 -4q-10 0 -22 2q-4 1 -23 7l-8 2q-4 0 -8 -4l-4 42q5 -10 13 -19q5 -5 19 -11q9 -4 22 -4q8 0 16 2q5 2 8 8q2 8 2 15v5l-26 6q-14 4 -31 11q-15 7 -23 16q-9 11 -9 24q0 14 12 21q10 9 28 9
q11 0 21 -3q9 -3 18 -9q7 -4 12 -14q2 13 9 23h35v-2zM88 115q-9 16 -30 16q-8 0 -15 -5q-6 -4 -6 -14q0 -18 19 -28q20 -11 41 -15v7q0 24 -9 39z" />
    <glyph glyph-name="uni0431" unicode="&#x431;" horiz-adv-x="158" 
d="M27 -5q-9 15 -14 39q-4 20 -4 47q0 19 9 34q10 16 25 23q16 8 35 8q21 0 37 -9q15 -7 25 -23q9 -15 9 -36q0 -20 -9 -35q-10 -15 -24 -22q-15 -7 -36 -7q-18 0 -33 9q-17 12 -23 23q0 -17 11 -31q11 -15 26 -20q10 -4 16 -5q3 -1 7.5 -2t10.5 -2q8 -1 15 -5q10 -4 16 -15
t6 -24h-1q0 2 -3 7q-3 4 -9 6q-19 4 -21 4l-24 5q-12 2 -19 6q-16 7 -28 25zM48 40q10 -13 31 -13q13 0 24 8q8 7 13 20q4 12 4 27q0 12 -5 25q-4 11 -14 19q-8 7 -21 7q-14 0 -23 -9q-9 -7 -14 -21q-5 -15 -5 -27q0 -23 10 -36z" />
    <glyph glyph-name="uni0432" unicode="&#x432;" horiz-adv-x="148" 
d="M7 19q10 1 13 8q2 10 2 21v63q0 11 -2 21q-3 8 -13 9v2h74q16 0 31 -5q14 -5 22 -13q8 -10 8 -23q0 -12 -12 -23q-12 -8 -30 -13q11 -3 18 -10t7 -16q0 -10 -7 -16q-8 -5 -17 -6q-7 -1 -24 -1h-70v2zM106 84q6 9 6 20q0 13 -10 20q-11 8 -25 9q-15 0 -21 -2q-5 -2 -6 -5
q-2 -6 -2 -15v-30l39 -9q11 4 19 12zM48 48q0 -12 1 -15q2 -4 6 -5q3 -1 19 -1q23 0 23 16q0 15 -24 21l-25 6v-22z" />
    <glyph glyph-name="uni0433" unicode="&#x433;" horiz-adv-x="124" 
d="M7 19q10 1 13 8q2 10 2 21v63q0 12 -1 15q-2 6 -4 10q-2 3 -10 5v2h56v-2q-10 0 -12 -8q-3 -7 -3 -22v-63q0 -9 1 -12q2 -5 5 -6q2 -1 12 -1q22 0 33 8q10 7 18 28l3 -1l-13 -51q-1 3 -5 3q-2 1 -10 1h-85v2z" />
    <glyph glyph-name="uni0434" unicode="&#x434;" horiz-adv-x="177" 
d="M154 139q-10 0 -10 -22v-69q0 -14 3 -22q3 -7 13 -7v-2h-99v2q7 0 7 7q0 5 -3 8q-10 11 -16 27q-6 13 -10 29q-5 15 -6 28q-3 21 -11 21l-6 -2l-12 48h2q4 -11 14 -23q8 -9 20 -14t26 -5h44q42 0 60 42h2l-12 -48zM60 132q-5 -2 -6 -4q-3 -3 -3 -10q0 -17 4 -32
q3 -14 9 -28q4 -12 13 -21q9 -11 24 -11q6 0 12 2q3 2 5 7v13v70q0 9 -4 12t-14 3h-29q-9 0 -11 -1z" />
    <glyph glyph-name="uni0435" unicode="&#x435;" horiz-adv-x="144" 
d="M115 26q-16 -12 -38 -12q-18 0 -34 8q-16 9 -25 24t-9 34q0 16 8 29q8 14 19 21t26 12q12 4 26 4l26 -3h5q2 0 6 2l13 -43l-2 -1q-7 15 -13 20q-7 5 -15 8q-8 4 -16 4q-14 0 -24 -7q-12 -6 -20 -17q-9 -12 -10 -24l98 -27q-5 -20 -21 -32zM41 51q5 -11 13 -18q8 -6 20 -6
t20 8q7 7 12 20l-69 20q0 -15 4 -24z" />
    <glyph glyph-name="uni0451" unicode="&#x451;" horiz-adv-x="148" 
d="M116 26q-17 -12 -38 -12q-18 0 -34 8q-16 9 -25 24t-9 34q0 16 8 29q8 14 19 21t26 12q12 4 26 4l26 -3h5q4 0 6 2l14 -43l-3 -1q-9 16 -13 20q-7 5 -15 8q-8 4 -16 4q-14 0 -24 -7q-11 -5 -19 -17t-11 -24l98 -27q-5 -20 -21 -32zM42 51q5 -11 13 -18q8 -6 20 -6t20 8
q7 7 12 20l-69 20q0 -15 4 -24zM47 -7q4 4 9 4q6 0 10 -4q3 -5 3 -10q0 -7 -3 -11q-4 -4 -10 -4t-10 4t-4 11q0 5 5 10zM84 -7q4 4 10 4t10 -4q3 -5 3 -10q0 -7 -3 -11q-4 -4 -11 -4q-5 0 -9 4t-4 11q0 6 4 10z" />
    <glyph glyph-name="uni0436" unicode="&#x436;" horiz-adv-x="237" 
d="M147 141q-7 0 -10 -4q-4 -4 -4 -10q-1 -3 -1 -16v-27l16 -16q5 4 16 18l16 26q7 13 7 21q0 4 -3 5q-3 3 -6 3v2h55v-2l-6 -2l-3 -3l-3 -5l-4 -5q-5 -11 -15 -29q-10 -16 -16 -24l-19 -21l6 -5l11 -10q3 -3 6 -4.5t5 -3.5q3 -3 11 -7l11 -3v-2h-52v2q7 1 7 6q0 6 -9 15
l-31 32v-24q0 -14 3 -22q1 -7 12 -7v-2h-57v2q10 0 13 7q3 8 3 22v24l-32 -32q-9 -9 -9 -15q0 -5 7 -6v-2h-52v2q11 1 20 7l24 21l7 5q-14 14 -19 21q-6 8 -16 24q-16 28 -16 29l-6 11q-2 2 -9 4v2h54v-2q-3 0 -5 -3q-3 -1 -3 -5q0 -8 7 -21q6 -13 16 -26q9 -14 16 -18
l16 16v27q0 15 -3 22q-3 8 -13 8v2h57v-2z" />
    <glyph glyph-name="uni0437" unicode="&#x437;" horiz-adv-x="122" 
d="M91 21q-13 -7 -37 -7q-10 0 -15 1l-10 1q-4 0 -7 -3l-13 41l2 1q8 -14 18 -22q8 -7 25 -7q8 0 15 5q5 5 5 13q0 13 -9 17q-9 6 -30 6v10q29 0 41 6q11 8 11 22q0 8 -5 15q-4 7 -14 10q-9 3 -19 3q-12 0 -25 -8q-14 -8 -18 -17h-2l8 37q8 -2 13 -2q8 0 15 1q6 1 13 1
q19 0 34 -5q13 -4 21 -14q7 -8 7 -21q0 -16 -10 -23q-12 -9 -31 -13q12 -1 21 -9q8 -8 8 -18q0 -13 -12 -21z" />
    <glyph glyph-name="uni0438" unicode="&#x438;" horiz-adv-x="158" 
d="M106 132q-3 8 -13 9v2h57v-2q-10 0 -12 -8q-3 -7 -3 -22v-63q0 -14 3 -22q1 -7 12 -7v-2h-57v2q10 1 13 6t3 8l-61 53v-38q0 -14 3 -22q1 -7 12 -7v-2h-56v2q10 1 13 8q2 10 2 21v63q0 11 -2 21q-3 8 -13 9v2h56v-2q-10 0 -12 -8q-3 -7 -3 -22v-11l61 -53v64q0 14 -3 21z
" />
    <glyph glyph-name="uni0439" unicode="&#x439;" horiz-adv-x="158" 
d="M106 132q-3 8 -13 9v2h57v-2q-10 0 -12 -8q-3 -7 -3 -22v-63q0 -14 3 -22q1 -7 12 -7v-2h-57v2q10 1 13 6t3 8l-61 53v-38q0 -14 3 -22q1 -7 12 -7v-2h-56v2q10 1 13 8q2 10 2 21v63q0 11 -2 21q-3 8 -13 9v2h56v-2q-10 0 -12 -8q-3 -7 -3 -22v-11l61 -53v64q0 14 -3 21z
M52 -17q4 7 11 10q7 4 15 4q9 0 16 -4q7 -3 11 -10q3 -4 5 -15h-2q-4 5 -12 11q-7 4 -18 4q-18 0 -29 -15h-3q2 7 6 15z" />
    <glyph glyph-name="uni043A" unicode="&#x43a;" horiz-adv-x="159" 
d="M53 26q1 -7 12 -7v-2h-56v2q10 1 13 8q2 10 2 21v63q0 11 -2 21q-3 8 -13 9v2h56v-2q-7 0 -10 -4q-2 -4 -4 -10q-1 -3 -1 -16v-27l18 -16q6 3 17 18l16 26q7 13 7 21q0 4 -3 5q-3 3 -6 3v2h54v-2q-1 -1 -2.5 -1t-2.5 -1l-4 -3q-1 -1 -1 -2.5t-1 -2.5l-4 -5l-24 -43
q-11 -18 -26 -31l6 -5l11 -10l10 -8q3 -3 11 -7l12 -3v-2h-52v2q7 1 7 6q0 6 -9 15l-34 32v-24q0 -14 3 -22z" />
    <glyph glyph-name="uni043B" unicode="&#x43b;" horiz-adv-x="143" 
d="M88 28q3 2 5 7v13v63q0 12 -2 22q-3 8 -13 8v2h57v-2q-10 0 -13 -8q-3 -7 -3 -22v-63q0 -14 3 -22q3 -7 13 -7v-2h-99v2q7 1 7 7q0 4 -3 8q-33 44 -33 109h42v-2q-12 -2 -17 -8q-6 -6 -6 -14q0 -24 8 -48t17 -34q11 -11 25 -11q6 0 12 2z" />
    <glyph glyph-name="uni043C" unicode="&#x43c;" horiz-adv-x="174" 
d="M124 34v77q0 11 -2 21q-3 8 -13 9v2h56v-2q-8 -2 -10 -5q-2 -4 -4 -10q-1 -4 -1 -17v-60q0 -12 1 -15q3 -8 4 -10q2 -3 10 -5v-2h-58v2q5 2 5 5q0 5 -7 16l-20 33l-21 -39q-3 -6 -3 -10t4 -5v-2h-58v2q10 1 13 9q2 10 2 22v61q0 11 -2 21q-3 8 -13 9v2h45v-2
q-7 -1 -10 -6q-3 -3 -5 -11q-1 -4 -1 -15v-75l42 77z" />
    <glyph glyph-name="uni043D" unicode="&#x43d;" horiz-adv-x="158" 
d="M106 133q-3 8 -13 8v2h57v-2q-10 0 -12 -8q-3 -7 -3 -22v-63q0 -14 3 -22q1 -7 12 -7v-2h-57v2q10 0 13 7q3 8 3 22v11h-61v-11q0 -14 3 -22q1 -7 12 -7v-2h-56v2q10 0 13 7q2 10 2 22v63q0 12 -2 22q-3 8 -13 8v2h56v-2q-10 0 -12 -8q-3 -7 -3 -22v-41h61v41q0 15 -3 22
z" />
    <glyph glyph-name="uni043E" unicode="&#x43e;" horiz-adv-x="158" 
d="M18 115q10 16 25 23q16 8 35 8q21 0 37 -9q15 -7 26 -24q9 -15 9 -35q0 -19 -9 -34q-10 -16 -25 -23t-36 -7q-18 0 -36 8q-15 7 -25 23t-10 36q0 19 9 34zM48 40q10 -13 31 -13q13 0 24 8q8 7 13 20q4 12 4 27q0 12 -5 25q-4 11 -14 19q-8 7 -21 7q-14 0 -23 -9
q-9 -7 -14 -21q-5 -15 -5 -27q0 -23 10 -36z" />
    <glyph glyph-name="uni043F" unicode="&#x43f;" horiz-adv-x="158" 
d="M104 30q2 1 4 6q1 3 1 12v63q0 12 -1 15q-2 6 -4 10q-3 3 -11 5v2h57v-2q-10 0 -12 -8q-3 -7 -3 -22v-63q0 -14 3 -22q1 -7 12 -7v-2h-143v2q10 1 13 8q2 10 2 21v63q0 12 -1 15q-2 6 -4 10q-2 3 -10 5v2h56v-2q-10 0 -12 -8q-3 -7 -3 -22v-63q0 -9 1 -12q2 -5 4 -6
q4 -2 10 -2h30q7 0 11 2z" />
    <glyph glyph-name="uni0440" unicode="&#x440;" horiz-adv-x="158" 
d="M7 19q10 1 13 8q2 10 2 21v117q0 11 -2 21q-3 8 -13 9v2h56v-2q-9 -1 -12 -9q-3 -7 -3 -21v-23l28 1q23 0 38 -7t26 -21q9 -13 9 -33q0 -21 -9 -36q-10 -15 -26 -22q-15 -7 -39 -7h-68v2zM95 34q11 6 19 18q7 11 7 28q0 13 -5 26q-5 11 -17 19q-10 7 -25 7q-12 0 -16 -3
q-6 -2 -8 -8t-2 -14v-79h18q16 0 29 6z" />
    <glyph glyph-name="uni0441" unicode="&#x441;" horiz-adv-x="140" 
d="M133 107q-6 11 -18 19q-13 7 -27 7q-13 0 -24 -7q-12 -8 -19 -20q-8 -14 -8 -29q0 -11 5 -24q4 -11 15 -19q10 -7 23 -7q15 0 25 7t17 20h1l-7 -40q-4 3 -11 3l-16 -2l-19 -1q-17 0 -31 8t-22 22t-8 32q0 16 7 29q5 12 17 22q11 9 25 14q15 5 29 5l17 -1l8 -1l4 -1
q2 0 6 2l13 -37z" />
    <glyph glyph-name="uni0442" unicode="&#x442;" horiz-adv-x="141" 
d="M117 37q11 8 19 28l2 -1l-13 -51q-1 3 -4 3q-2 1 -11 1h-78q-9 0 -11 -1q-2 0 -4 -3l-13 51l2 1q6 -13 12 -21t16 -12q9 -3 24 -3v82q0 14 -3 21t-14 9v2h60v-2q-11 -2 -14 -9t-3 -21v-82q22 0 33 8z" />
    <glyph glyph-name="uni0443" unicode="&#x443;" horiz-adv-x="141" 
d="M52 40q-5 -12 -5 -13q0 -6 9 -8v-2h-52v2q5 0 10 6q5 7 9 16l29 68q12 26 12 39q0 5 -2 15q-1 8 -7 13q-7 5 -13 5q-7 0 -12 -6q-4 -5 -4 -14q0 -4 1 -6l-2 -1l-15 35q12 9 26 9q17 0 28 -11q7 -9 16 -31l39 -114l3 -8q1 -3 2 -4.5t2 -2.5q2 -4 4 -5l8 -3v-2h-40v2
q10 1 10 8q0 4 -6 20l-22 64z" />
    <glyph glyph-name="uni0444" unicode="&#x444;" horiz-adv-x="220" 
d="M76 17q-14 0 -25 4q-12 4 -21 12q-10 7 -15 20q-6 14 -6 29q0 14 5 26q4 11 14 19q9 8 21 12q11 4 25 4l23 -1v23q0 11 -2 21q-3 8 -13 9v2h56v-2q-10 -1 -12 -9q-3 -7 -3 -21v-23l23 1q19 0 33 -7q14 -8 23 -21t9 -33q0 -14 -5 -29q-6 -13 -15 -20q-10 -7 -21 -12
q-11 -4 -25 -4h-22v-49l-41 7v2q7 0 10 4q2 3 4 9q1 4 1 16v11h-21zM96 124q-1 5 -6 6q-6 2 -14 2q-13 0 -21 -7q-9 -7 -13 -19q-5 -13 -5 -26q0 -16 6 -28q6 -11 17 -17q10 -6 24 -6h13v78q0 14 -1 17zM136 29q15 0 25 6q9 5 16 17q6 12 6 28q0 15 -4 26t-14 19q-8 7 -21 7
q-7 0 -13 -2q-4 -1 -6 -6q-2 -6 -2 -17v-78h13z" />
    <glyph glyph-name="uni0445" unicode="&#x445;" horiz-adv-x="146" 
d="M101 46q4 -6 7 -9l8 -8q3 -3 9 -7l9 -3v-2h-43v2q8 2 8 6t-10 17l-11 15l-10 -15q-8 -11 -8 -17q0 -4 8 -6v-2h-55v2q4 0 8 3t7 7q4 6 7 9l5 8l21 31l-38 47l-10 11q-5 5 -10 6v2h39v-2q-7 -1 -7 -6t15 -25l18 -23l19 29q10 14 10 19q0 4 -8 6v2h53v-2q-4 -2 -6 -4
q-3 -1 -7 -7l-6 -7l-39 -57z" />
    <glyph glyph-name="uni0447" unicode="&#x447;" horiz-adv-x="153" 
d="M101 132q-3 8 -13 9v2h57v-2q-10 0 -12 -8q-3 -7 -3 -22v-63q0 -14 3 -22q1 -7 12 -7v-2h-57v2q10 1 13 8q2 10 2 21v14q-6 5 -18 10q-9 4 -20 4q-10 0 -16 -6q-6 -4 -6 -15v-9q0 -13 3 -21q2 -6 12 -6v-2h-56v2q10 1 13 8q2 10 2 21v9q0 15 10 24q9 10 26 10
q28 0 50 -19v39q0 11 -2 21z" />
    <glyph glyph-name="uni0446" unicode="&#x446;" horiz-adv-x="167" 
d="M127 148q13 6 20 15q10 14 13 22h3l-13 -48q-4 2 -6 2q-9 0 -9 -25v-66q0 -14 3 -22q1 -7 12 -7v-2h-57v2q10 1 13 8q3 8 3 21v63q0 10 -1 13q-2 5 -4 6q-6 2 -11 2h-30q-6 0 -10 -2q-2 -1 -4 -6q-1 -3 -1 -13v-63q0 -14 3 -22q1 -7 12 -7v-2h-56v2q10 1 13 8q2 10 2 21
v63q0 11 -2 21q-3 8 -13 9v2h93q14 0 27 5z" />
    <glyph glyph-name="uni0448" unicode="&#x448;" horiz-adv-x="230" 
d="M86 19q10 1 13 8q2 10 2 21v63v13q-2 5 -4 6q-6 2 -11 2h-23q-6 0 -10 -2q-2 -1 -4 -6q-1 -3 -1 -13v-63q0 -14 3 -22q1 -7 12 -7v-2h-56v2q10 1 13 8q2 10 2 21v63q0 11 -2 21q-3 8 -13 9v2h215v-2q-10 0 -13 -8q-3 -7 -3 -22v-63q0 -14 3 -22q3 -7 13 -7v-2h-57v2
q10 1 13 8q2 10 2 21v63v13q-2 5 -4 6q-6 2 -11 2h-22q-7 0 -11 -2q-2 -1 -4 -6q-1 -3 -1 -13v-63q0 -14 3 -22q3 -7 13 -7v-2h-57v2z" />
    <glyph glyph-name="uni0449" unicode="&#x449;" horiz-adv-x="238" 
d="M199 148q12 7 20 15q10 14 13 22h2l-12 -48q-4 2 -6 2q-10 0 -10 -25v-66q0 -14 3 -22q3 -7 13 -7v-2h-57v2q10 1 13 8q2 10 2 21v63v13q-2 5 -4 6q-6 2 -11 2h-22q-7 0 -11 -2q-2 -1 -4 -6q-1 -3 -1 -13v-63q0 -14 3 -22q3 -7 13 -7v-2h-57v2q10 1 13 8q2 10 2 21v63v13
q-2 5 -4 6q-6 2 -11 2h-23q-6 0 -10 -2q-2 -1 -4 -6q-1 -3 -1 -13v-63q0 -14 3 -22q1 -7 12 -7v-2h-56v2q10 1 13 8q2 10 2 21v63q0 11 -2 21q-3 8 -13 9v2h165q14 0 27 5z" />
    <glyph glyph-name="uni044C" unicode="&#x44c;" horiz-adv-x="138" 
d="M104 138q15 -5 22 -13q7 -7 7 -19q0 -15 -11 -26q-10 -10 -30 -16q-22 -5 -44 -5v-11q0 -13 3 -21q3 -6 15 -8v-2h-59v2q10 1 13 8q2 10 2 21v63q0 11 -2 21q-3 8 -13 9v2h64q18 0 33 -5zM79 73q10 4 19 13q6 8 6 19q0 13 -10 20t-28 7q-10 0 -12 -1q-3 -1 -4 -5
q-2 -6 -2 -14v-43q19 0 31 4z" />
    <glyph glyph-name="uni044A" unicode="&#x44a;" horiz-adv-x="167" 
d="M52 121l-2 10q-2 5 -4 6q-2 2 -9 4v2h64q19 0 34 -5q14 -5 21 -13q7 -7 7 -19q0 -15 -11 -26q-10 -10 -30 -16q-22 -5 -43 -5v-11q0 -13 3 -21q3 -6 15 -8v-2h-66q-12 0 -15 -4l-12 51l2 1q4 -12 11 -21q5 -9 14 -13q7 -4 22 -4v84q-1 3 -1 10zM109 73q10 4 19 13
q6 8 6 19q0 10 -4 15q-4 6 -14 9q-9 3 -20 3q-9 0 -11 -1q-4 -1 -5 -5q-1 -3 -1 -14v-43q18 0 30 4z" />
    <glyph glyph-name="uni044B" unicode="&#x44b;" horiz-adv-x="209" 
d="M104 138q15 -5 22 -13q7 -7 7 -19q0 -15 -11 -26q-10 -10 -30 -16q-22 -5 -44 -5v-11q0 -13 3 -21q3 -6 15 -8v-2h-59v2q10 1 13 8q2 10 2 21v63q0 11 -2 21q-3 8 -13 9v2h64q18 0 33 -5zM189 26q1 -7 12 -7v-2h-57v2q11 2 14 8q2 10 2 21v63q0 14 -3 21q-3 8 -13 9v2h57
v-2q-10 0 -12 -8q-3 -7 -3 -22v-63q0 -14 3 -22zM79 73q10 4 19 13q6 8 6 19q0 13 -10 20t-28 7q-10 0 -12 -1q-3 -1 -4 -5q-2 -6 -2 -14v-43q19 0 31 4z" />
    <glyph glyph-name="uni0454" unicode="&#x454;" horiz-adv-x="137" 
d="M96 81v-12h-61q2 -12 7 -22q6 -9 15 -15t20 -6q10 0 19 3q10 6 15 10q4 5 10 15l2 -1l-13 -38q-2 1 -8 1l-12 -1q-6 -1 -14 -1q-12 0 -27 5q-13 6 -22 15q-11 9 -15 22q-6 14 -6 28q0 15 6 25q5 13 15 20q9 8 21 12q11 4 26 4q10 0 18 -1q7 -1 16 -1q6 0 12 2l7 -37
l-1 -1q-14 26 -43 26q-14 0 -24 -7q-12 -8 -18 -19q-7 -10 -7 -25v-1h62z" />
    <glyph glyph-name="uni044D" unicode="&#x44d;" horiz-adv-x="131" 
d="M91 107q-7 11 -18 19q-11 7 -25 7q-29 0 -43 -26l-1 1l7 37q6 -2 12 -2q9 0 17 1q7 1 17 1q15 0 26 -4t22 -12q9 -7 15 -20q5 -12 5 -25t-5 -28q-6 -13 -15 -22q-12 -10 -23 -15q-15 -5 -27 -5q-8 0 -14 1l-12 1q-6 0 -8 -1l-13 38l2 1q6 -10 11 -15t15 -10q8 -3 18 -3
q11 0 20 6t15 15q5 10 7 22h-61v12h62v1q0 15 -6 25z" />
    <glyph glyph-name="uni044E" unicode="&#x44e;" horiz-adv-x="215" 
d="M48 48q0 -14 3 -22q1 -7 12 -7v-2h-56v2q10 1 13 8q2 10 2 21v63q0 11 -2 21q-3 8 -13 9v2h56v-2q-10 0 -12 -8q-3 -7 -3 -22v-29h21q0 20 9 33q9 16 24 23q16 8 33 8q19 0 35 -9q16 -7 25 -24q9 -15 9 -35q0 -19 -8 -35q-10 -15 -24 -22t-34 -7q-18 0 -32 7
q-16 8 -24 20q-10 13 -12 30h-22v-23zM108 40q7 -13 29 -13q13 0 23 8q7 7 12 20q3 14 3 27q0 14 -4 25t-12 19q-8 7 -21 7q-14 0 -23 -9q-9 -7 -12 -21q-4 -12 -4 -27q0 -22 9 -36z" />
    <glyph glyph-name="uni044F" unicode="&#x44f;" horiz-adv-x="151" 
d="M27 112q-15 26 -23 29v2h55v-2q-10 -1 -10 -10q0 -5 3 -10q10 -22 29 -44l14 3l7 2v30q0 10 -2 20q-3 8 -13 8v3h57v-2q-10 0 -13 -8q-3 -7 -3 -22v-63q0 -11 1 -15q3 -7 5 -10q3 -4 10 -4v-2h-73q-25 0 -37 4q-14 5 -14 19q0 19 35 31q-18 23 -28 41zM57 56
q-8 -5 -8 -13q0 -16 25 -16q17 0 21 1q5 2 6 4q1 3 1 14v24l-27 -5q-11 -3 -18 -9z" />
    <glyph glyph-name="uni04AF" unicode="&#x4af;" horiz-adv-x="154" 
d="M127 42q7 -11 7 -12q1 -3 7 -7t9 -5v-2h-45v2q11 2 11 9t-11 29l-21 41l-21 -41q-9 -18 -9 -27q0 -10 10 -11v-2h-59v2q4 0 8 3q4 4 5 6q2 4 6 8q3 6 3 10l37 70v50v17q-2 6 -4 10q-5 5 -10 6v2h55v-2q-7 -1 -10 -6q-4 -4 -4 -11q-1 -4 -1 -18v-48z" />
    <glyph glyph-name="uni04E9" unicode="&#x4e9;" horiz-adv-x="158" 
d="M150 78q0 -19 -9 -34q-10 -16 -25 -23t-36 -7q-18 0 -36 8q-15 7 -25 23t-10 36q0 19 9 34q10 16 25 23q16 8 35 8q21 0 37 -9q15 -7 26 -24q9 -15 9 -35zM38 88l81 -16q1 3 1 10q0 12 -5 25q-4 11 -14 19q-8 7 -21 7q-14 0 -23 -9q-9 -7 -14 -21zM116 55q2 4 2 7l-80 14
q0 -23 10 -36t31 -13q13 0 24 8q8 7 13 20z" />
    <glyph glyph-name="Alpha" unicode="&#x391;" 
d="M72 135l21 -57h53l19 57h-21v8h71v-8h-20l-60 -177h-8l-64 177h-22v8h56v-8h-25zM120 1l23 69h-48z" />
    <glyph glyph-name="Beta" unicode="&#x392;" 
d="M76 -32v167h-22v8h81q66 -2 67 -48q-2 -38 -52 -46v-2q45 -7 45 -44q-4 -39 -66 -42h-75v7h22zM170 93q3 46 -34 42h-32v-82h29q37 0 37 40zM166 7q2 41 -37 38h-25v-77h27q35 0 35 39z" />
    <glyph glyph-name="Gamma" unicode="&#x393;" 
d="M110 135v-167h32q44 0 49 41h6v-48h-138v7h22v167h-22v8h74v-8h-23z" />
    <glyph glyph-name="uni0394" unicode="&#x394;" 
d="M51 143h154l-75 -185h-5zM68 119l50 -123l49 123h-99z" />
    <glyph glyph-name="Epsilon" unicode="&#x395;" 
d="M195 90q-5 47 -46 45h-43v-80h7q31 -1 33 31h7v-69h-7q-1 32 -33 30h-7v-79h30q46 -1 51 38h7v-45h-139v7h22v167h-22v8h146v-53h-6z" />
    <glyph glyph-name="Zeta" unicode="&#x396;" 
d="M190 90q-6 47 -38 45h-63l108 -162v-12h-126l-3 45h8q8 -38 43 -38h49l-109 166v9h137l1 -53h-7z" />
    <glyph glyph-name="Eta" unicode="&#x397;" 
d="M89 135v-83h77v83h-23v8h75v-8h-23v-167h23v-7h-75v7h23v77h-77v-77h23v-7h-74v7h22v167h-22v8h74v-8h-23z" />
    <glyph glyph-name="Theta" unicode="&#x398;" 
d="M214 52q-7 -86 -86 -94q-79 7 -86 94q8 88 86 92q78 -5 86 -92zM76 52q-1 -88 52 -87q52 -2 52 82q0 47 -12.5 70t-39.5 22q-54 2 -52 -87zM151 58v23h8v-69h-8v23h-46v-23h-8v69h8v-23h46z" />
    <glyph glyph-name="Iota" unicode="&#x399;" 
d="M142 135v-167h27v-7h-82v7h27v167h-27v8h82v-8h-27z" />
    <glyph glyph-name="Kappa" unicode="&#x39a;" 
d="M93 135v-86l75 86h-25v8h73v-8h-14l-86 -99l72 -68h23v-7h-64v7h29l-83 80v-80h24v-7h-77v7h24v167h-24v8h77v-8h-24z" />
    <glyph glyph-name="Lambda" unicode="&#x39b;" 
d="M70 135l48 -135h1l45 135h-23v8h73v-8h-20l-63 -177h-6l-64 177h-19v8h52v-8h-24z" />
    <glyph glyph-name="Mu" unicode="&#x39c;" 
d="M55 135v-167l60 175h7l58 -173h1v165h-24v8h77v-8h-24v-167h24v-7h-57l-47 138h-1l-48 -138h-58v7h24v167h-25v8h56v-8h-23z" />
    <glyph glyph-name="Nu" unicode="&#x39d;" 
d="M68 135v-160h1l120 171h6v-178h24v-7h-57v7h25v130l-95 -137h-54v7h23v167h-24v8h57v-8h-26z" />
    <glyph glyph-name="Xi" unicode="&#x39e;" 
d="M57 97l-13 61h7l4 -15h140l-4 15h7l13 -61h-7l-4 21h-139l4 -21h-8zM72 62h107l-4 23h7l15 -68h-8l-4 20h-107l4 -20h-8l-14 68h8zM57 -56l-13 60h7l5 -18h140l-4 18h8l12 -60h-7l-4 17h-140l4 -17h-8z" />
    <glyph glyph-name="Omicron" unicode="&#x39f;" 
d="M214 52q-7 -86 -86 -94q-79 7 -86 94q8 88 86 92q78 -5 86 -92zM76 52q-1 -88 52 -87q52 -2 52 82q0 47 -12.5 70t-39.5 22q-54 2 -52 -87z" />
    <glyph glyph-name="Pi" unicode="&#x3a0;" 
d="M89 135v-167h77v167h-23v8h75v-8h-23v-167h23v-7h-180v7h22v167h-22v8h74v-8h-23z" />
    <glyph glyph-name="Rho" unicode="&#x3a1;" 
d="M105 135v-75h28q68 -2 71 -53q-3 -44 -68 -46h-84v7h25v167h-25v8h79v-8h-26zM172 10q2 44 -42 42h-25v-84h28q41 -2 39 42z" />
    <glyph glyph-name="Sigma" unicode="&#x3a3;" 
d="M185 156l21 -62h-9l-7 24h-101l78 -67l-78 -83h68q17 -3 26 26h8l-16 -48h-7l2 12q0 3 -4 3h-116v5l92 96l-92 79v2h132l-5 13h8z" />
    <glyph glyph-name="Tau" unicode="&#x3a4;" 
d="M142 135v-167h18q24 0 36 36l3 5h8l-6 -48h-146l-6 48h8l2 -5q14 -36 37 -36h18v167h-25v8h78v-8h-25z" />
    <glyph glyph-name="Upsilon" unicode="&#x3a5;" 
d="M141 135v-73l33 -72q6 -16 18 -16q9 0 14 11q4 5 5 4q3 0 3 -5q-5 -20 -22 -23q-14 0 -25 24l-30 70l-40 -75q-11 -19 -26 -19q-21 0 -29 21q0 5 3 4l5 -3q5 -5 9 -5q6 0 14 14l3 4l37 67v72h-24v8h75v-8h-23z" />
    <glyph glyph-name="Phi" unicode="&#x3a6;" 
d="M115 -32v25q-76 6 -76 58q0 56 76 59v25h-23v8h74v-8h-23v-25q73 -3 76 -57q0 -54 -76 -60v-25h23v-7h-74v7h23zM65 53q0 -51 50 -54v104q-48 -1 -50 -50zM193 53q-2 49 -50 50v-104q50 3 50 54z" />
    <glyph glyph-name="Chi" unicode="&#x3a7;" 
d="M73 135l47 -71l44 71h-21v8h73v-8h-19l-60 -96l46 -71h22v-7h-52v7h21l-42 64l-40 -64h20v-7h-70v7h18l55 88l-52 79h-23v8h58v-8h-25z" />
    <glyph glyph-name="Psi" unicode="&#x3a8;" 
d="M77 19q-4 -37 -25 -34q-24 1 -24 33h7q2 -18 9 -18h1q6 0 7 15q6 72 62 77v43h-23v8h74v-8h-23v-43q55 -4 62 -77q0 -17 8 -15q8 0 9 18h7q-2 -32 -24 -33q-22 -3 -25 34q-4 42 -12 51q-6 14 -25 15v-117h23v-7h-74v7h23v117q-34 1 -37 -66z" />
    <glyph glyph-name="uni03A9" unicode="&#x3a9;" 
d="M81 33q0 -66 47 -68q46 1 47 68q0 57 -29 110h61l15 -46h-7l-8 23h-43q43 -43 43 -84q-4 -73 -79 -78q-74 4 -79 78q-1 40 43 84h-43l-8 -23h-7l15 46h61q-30 -53 -29 -110z" />
    <glyph glyph-name="alpha" unicode="&#x3b1;" 
d="M168 45q0 24 -9 40q-14 -54 -50 -53q-46 4 -51 58q1 51 45 53q25 0 44 -22q7 22 26 22q18 -2 25 -14q0 -2 -3 -4l-4 2q-5 4 -10 4h-1q-11 0 -16 -25q-1 -3 -1 -7q20 -31 19 -59q0 -5 -3 -5h-7q-5 0 -4 10zM134 67l3 20l6 25q-19 23 -37 22q-25 0 -25 -39q2 -55 31 -56
q16 0 22 28z" />
    <glyph glyph-name="beta" unicode="&#x3b2;" 
d="M133 146q54 -3 56 -47q0 -36 -47 -44q32 -12 32 -36q0 -46 -53 -49q-52 1 -54 54v170h21v-65q17 17 45 17zM120 -21q30 2 31 39q0 30 -19 29q-6 0 -9 -1t-7 -1q-11 2 -11 10q0 9 10 9h9q3 -1 8 -1q30 3 31 34q-1 37 -34 37q-40 -2 -41 -36v-79q0 -38 32 -40z" />
    <glyph glyph-name="gamma" unicode="&#x3b3;" 
d="M95 30q-28 0 -30 32q0 8 4 9q2 0 4 -5q3 -15 20 -15q10 2 17 7q17 17 29 61q3 12 7 19l-3 5q-12 26 -12 38v3q0 10 10 10q12 0 14 -17q1 -9 1 -39l4 -9q30 -63 30 -88q0 -12 -7 -12h-1q-8 0 -11 20q-6 34 -17 64h-1q-21 -83 -58 -83z" />
    <glyph glyph-name="delta" unicode="&#x3b4;" 
d="M115 32q9 5 11 6q-50 7 -52 51q5 51 53 54q51 -1 54 -51q-2 -41 -50 -69q-47 -24 -41 -32v-2q0 -10 16 -10t41 17l10 10q7 5 8 5q3 0 3 -2q-20 -41 -57 -44q-31 1 -31 29q0 21 35 38zM158 92q-2 44 -29 44q-29 -2 -29 -44q0 -44 29 -46q27 1 29 46z" />
    <glyph glyph-name="epsilon" unicode="&#x3b5;" 
d="M75 115q1 28 49 29q46 -1 52 -31q-1 -6 -8 -7q-4 1 -8 8q-13 25 -35 24q-24 0 -24 -20q0 -26 19 -27q-1 0 11 2l10 1h2q7 0 9 -8q-1 -7 -11 -8q-5 0 -8 1l-10 1q-11 -2 -12 -14q2 -26 22 -27q14 2 23 18q6 12 13 12q11 0 12 -12q-1 -22 -48 -25q-45 2 -45 31q0 16 23 21
q-34 7 -36 31z" />
    <glyph glyph-name="zeta" unicode="&#x3b6;" 
d="M163 158q0 15 -17 17q-10 0 -21 -6q-7 -4 -12 -4q-9 0 -9 9q2 14 30 15q39 -3 40 -36q0 -26 -33 -26q-35 2 -32 -29q-2 -17 18 -70l4 -9q1 -9 16 -13q1 -1 2.5 -1t2.5 -1q17 -7 18 -18q0 -9 -9 -9q-6 0 -17 12q-12 13 -20 13q-14 0 -14 -13v-2q0 -4 7 -9q1 0 3 -2l4 -4
q0 -3 -3 -3q-19 4 -21 22q0 18 21 18h6q-42 76 -41 101q-1 33 34 33h12q31 0 31 15z" />
    <glyph glyph-name="eta" unicode="&#x3b7;" 
d="M126 82q0 -37 26 -39q21 0 21 32v108v2q0 10 11 10q12 0 12 -16v-102q-2 -44 -43 -45q-29 2 -39 25h-1q-4 -24 -25 -25q-24 1 -26 28v4q0 4 1 6.5t3 1.5q3 2 3 -5q2 -18 16 -18q18 0 18 31v63h23v-61z" />
    <glyph glyph-name="theta" unicode="&#x3b8;" 
d="M178 60q-4 -82 -50 -88q-46 6 -50 88q4 82 50 86q46 -5 50 -86zM128 141q-25 -1 -25 -66v-15h50v15q-2 65 -25 66zM128 -22q24 2 25 54v18h-50v-18q2 -53 25 -54z" />
    <glyph glyph-name="iota" unicode="&#x3b9;" 
d="M97 107q0 36 32 36q30 0 30 -30q-1 -15 -5 -15h-1q-3 0 -3 10q-1 19 -15 19q-15 0 -15 -15v-78h-23v73z" />
    <glyph glyph-name="kappa" unicode="&#x3ba;" 
d="M105 93l3 -2l34 44q8 9 25 9q18 0 18 -2q0 -4 -3 -4h-3q-9 0 -14 -9l-40 -53l4 -5q12 -15 17 -15q1 1 5 1h4h3q12 0 12 -12q0 -13 -15 -13q-14 2 -23 18q-17 29 -39 35v-51h-23v109h23v-45q4 0 12 -5z" />
    <glyph glyph-name="lambda" unicode="&#x3bb;" 
d="M142 120q9 24 28 24q19 -1 20 -13q0 -5 -2 -5q-1 0 -3 2v1q-1 4 -8 4q-7 4 -17 -29q-12 -33 -31 -72l-2 -3q-32 -56 -52 -57q-3 0 -3 3q-2 2 3 5q5 5 7 6q7 7 18 34l10 19l-44 104h26l23 -90h1z" />
    <glyph glyph-name="uni03BC" unicode="&#x3bc;" 
d="M136 88q2 45 -22 42q-25 -1 -27 -27v-69h-22v29q0 34 -3 64l-2 20q-1 10 -1 25v5q0 20 12 18h2q11 0 10 -23q0 -18 -1 -29v-23q11 24 32 24q25 1 33 -26h1q5 26 27 26q24 -1 26 -30q0 -12 -4 -12q-2 0 -4 6q-2 23 -18 22q-16 0 -16 -23v-73h-23v54z" />
    <glyph glyph-name="nu" unicode="&#x3bd;" 
d="M102 144q75 -35 82 -90q0 -22 -13 -22q-12 2 -12 10q0 1 2 11l4 14q-3 33 -43 58v-93l-51 1v8h28v101q0 1 3 2z" />
    <glyph glyph-name="xi" unicode="&#x3be;" 
d="M79 104q0 39 50 41q38 -2 38 17q0 15 -20 16q-11 0 -22 -7q-7 -4 -12 -4t-5 6q1 13 28 16q39 -1 40 -32q-2 -15 -12 -22q-9 -4 -24 -5t-22 -5q-14 -6 -14 -23q0 -31 33 -34l20 3h6h2q6 0 8 -10q0 -8 -9 -10q-4 0 -10 3q-10 3 -21 3q-22 0 -22 -25q1 -28 35 -32
q22 -1 22 -13q-1 -7 -8 -8q-4 0 -12 6q-9 6 -14 6q-15 0 -15 -11q0 -3 4 -7q3 -3 3 -5q-1 -3 -5 -3q-14 3 -16 15q0 15 26 18q-43 10 -43 35q0 26 34 30q-41 10 -43 41z" />
    <glyph glyph-name="omicron" unicode="&#x3bf;" 
d="M73 88q1 54 55 56q52 -1 55 -56q-3 -52 -55 -56q-54 5 -55 56zM158 88q-1 51 -30 51q-30 0 -30 -51q0 -48 30 -50q28 1 30 50z" />
    <glyph glyph-name="pi" unicode="&#x3c0;" 
d="M51 80h7q5 -27 28 -27h21q0 11 -9 39q-7 27 -7 37q0 13 14 15q13 -2 14 -16l-2 -16q-2 -20 -2 -59h43q-1 30 -6 51l-2 22q0 17 13 18q14 0 14 -18l-5 -30q-6 -27 -6 -43h39v-21h-115q-35 2 -39 48z" />
    <glyph glyph-name="rho" unicode="&#x3c1;" 
d="M130 144q48 -2 51 -52q-1 -58 -53 -60q-47 1 -49 49v107v1q0 6 12 6q11 0 11 -7v-51q11 7 28 7zM101 89q-2 -52 27 -50q28 -1 28 50q0 50 -28 49q-28 1 -27 -49z" />
    <glyph glyph-name="sigma" unicode="&#x3c3;" 
d="M57 88q1 54 55 56q52 -1 55 -56q0 -22 -12 -37h44v-19h-87q-54 5 -55 56zM142 88q-1 51 -30 51q-30 0 -30 -51q0 -48 30 -50q28 1 30 50z" />
    <glyph glyph-name="tau" unicode="&#x3c4;" 
d="M78 67v3l1 8h6v-4q0 -21 17 -21h27q-1 33 -8 58q-3 15 -2 17v2q0 12 14 14q14 -2 14 -16l-3 -17q-7 -32 -7 -58h43v-21h-69q-35 0 -33 35z" />
    <glyph glyph-name="upsilon" unicode="&#x3c5;" 
d="M134 143q52 -1 55 -80q-2 -30 -19 -32q-11 2 -11 11q0 7 4 15q9 17 9 34q-5 41 -31 42q-22 3 -20 -32l2 -36q-1 -31 -29 -33q-24 1 -27 22q0 4 2 4q1 1 6 -6q5 -5 9 -5q13 0 13 16v33q-2 47 37 47z" />
    <glyph glyph-name="phi" unicode="&#x3c6;" 
d="M134 143q65 -5 69 -56q-3 -47 -65 -55v-25q1 -11 1 -24q0 -20 -11 -18h-2q-10 0 -9 18v24q1 11 1 25q-64 8 -65 55q4 51 69 56l2 50h8zM79 86q2 -44 40 -47l3 98q-42 -3 -43 -51zM177 86q-3 48 -43 51l3 -98q38 3 40 47z" />
    <glyph glyph-name="chi" unicode="&#x3c7;" 
d="M187 36q0 -6 -3 -6q-5 2 -6 4q-20 39 -41 64l-1 -1l-15 -36q-14 -31 -34 -31q-23 0 -23 7q-1 3 7 3q12 0 16 7q7 7 17 32l15 36q-46 51 -48 74q0 4 5 6q2 0 6 -9l2 -2q21 -40 37 -55l3 -3l12 29q15 45 38 40q19 -2 20 -7q0 -4 -10 -3q-11 3 -22 -26l-20 -50
q41 -48 45 -73z" />
    <glyph glyph-name="psi" unicode="&#x3c8;" 
d="M192 88q0 -19 -10 -36q4 2 8 1q9 0 9 -10q-1 -10 -11 -11q-20 0 -21 31v41q-1 34 -33 32q0 -24 1 -41l3 -114q-1 -7 -10 -8q-10 1 -10 8q-1 5 2 114l1 20q0 17 1 21q-32 2 -33 -32v-41q-3 -31 -21 -31q-11 2 -11 11q0 10 9 10q2 1 8 -1q-11 19 -10 36q1 50 58 55l2 51h8
l2 -51q55 -4 58 -55z" />
    <glyph glyph-name="omega" unicode="&#x3c9;" 
d="M160 32q-3 0 -3 2q0 1 3 4q19 19 19 51q-2 44 -24 44q-18 -1 -19 -19q0 -5 3 -17q4 -12 4 -22q0 -15 -15 -15t-15 15q0 9 3 22q2 5 4 17q-1 17 -19 19q-22 0 -24 -44q0 -31 18 -51q4 -3 4 -4q0 -2 -3 -2q-42 11 -44 61q3 48 47 50q20 0 29 -20q8 20 29 20q42 -1 47 -50
q-3 -50 -44 -61z" />
    <glyph glyph-name="uni1820" unicode="&#x1820;" horiz-adv-x="376" 
d="M189 61q-11 -1 -25 -1l-22 -2h-3q-2 1 -7 12q-4 11 -6 13q-15 -9 -23 -23q-7 -12 -13 -27q-4 -2 -6 -2q-4 0 -24 9l-28 14q-32 12 -32 14l2 4h9q24 -7 37 -7q16 0 34 7l58 34q3 -1 3 -4l-3 -7q-4 -5 -4 -7q0 -9 19 -9h1l8 1q50 -1 63 -3q51 -13 96 -42l31 -28l5 -5
q4 -4 4 -5q5 -4 7 -4l3 -6q0 -2 -3 -5q-4 -10 -5 -10q-1 -5 -1 -13q-2 -11 -3 -11q-11 5 -14 17l-6 26q-3 15 -10 25q-26 19 -33 23q-38 23 -85 23q-13 0 -24 -1z" />
    <glyph glyph-name="uni1821" unicode="&#x1821;" horiz-adv-x="370" 
d="M129 64q-7 0 -12 -1q-6 -1 -13 -1q-2 0 -6 2l-12 2q-4 -4 -6 -12q0 -19 -1 -20v-9q-2 -7 -3 -8q-4 -3 -10 -3l-8 2q-13 3 -27 12q-25 12 -31 28q14 -7 35 -7q26 0 27 7l6 16q5 17 7 19t3 2q6 0 18 -13q18 -3 33 -3h20q30 0 63 13q78 30 110 56l24 36q11 13 21 17
q1 -1 2 0q1 -1 0 -4q0 -3 -1 -4q-8 -14 -8 -28q0 -5 1 -8v-8l-35 -12q0 -2 -31 -18q-100 -54 -151 -54q-10 0 -15 1z" />
    <glyph glyph-name="uni1822" unicode="&#x1822;" horiz-adv-x="326" 
d="M175 53l-15 -2h-21q-2 0 -7 12q-4 12 -6 12q-22 -13 -36 -51q-4 -2 -6 -2t-26 11l-26 12l-17 7q-15 5 -15 8l2 4h9q27 -8 37 -8q13 0 34 8l58 34q3 -1 3 -4l-3 -9l-4 -6q1 -10 23 -10h4q28 4 37 8q12 4 31 23h3q1 0 1 -2v-3q0 -5 -4 -11l-5 -10q0 -16 17 -16q7 0 39 19
q32 20 42 21q2 0 2 -2l-1 -2q-28 -24 -30 -26l-23 -24q-13 -12 -18 -12h-4q-11 0 -18 8q-5 5 -15 25q-1 2 -3 0q-16 -9 -39 -12z" />
    <glyph glyph-name="uni1823" unicode="&#x1823;" horiz-adv-x="212" 
d="M204 77q-8 -13 -11 -16q-3 0 -11 -4l-13 -4h-4q-7 0 -21 3q-12 4 -21 4h-6l-6 -1q-3 -1 -7 -1q-2 0 -6 2l-12 5q-4 -4 -6 -12q0 -19 -1 -20v-9q-2 -7 -3 -8q-4 -3 -10 -3l-8 2q-13 3 -27 12q-25 12 -31 28q14 -7 35 -7q26 0 27 7q2 0 9 19q2 21 7 21q6 0 18 -16
q6 0 11 -1q4 -1 10 -1q4 0 7 1l4 27q14 29 40 32q20 0 24 -1q12 -5 19 -18q1 -3 1 -10q0 -23 -8 -31zM159 73q15 0 31 8q7 7 8 14q-1 9 -6 15q-7 4 -22 4q-12 0 -20 -7q-10 -7 -12 -18l-1 -5q0 -3 3 -8q8 -3 19 -3z" />
    <glyph glyph-name="uni1824" unicode="&#x1824;" horiz-adv-x="227" 
d="M114 58l-10 -1q-2 0 -6 2l-12 5q-4 -4 -6 -12q0 -19 -1 -20v-9q-2 -7 -3 -8q-4 -3 -10 -3l-8 2q-13 3 -27 12q-25 12 -31 28q14 -7 35 -7q26 0 27 7q2 0 9 19q2 21 7 21q6 0 18 -16q6 0 11 -1q4 -1 10 -1q4 0 7 1l4 24q3 11 12 21q14 13 28 14q17 0 27 -2q8 -2 14 -11
q6 -7 6 -16q0 -6 -3 -14t-7 -12l-2 -2q-2 -2 -2 -3l2 -1l25 1v-16l-35 1q-3 0 -11 -4l-13 -4h-4q-6 0 -20 3q-12 4 -21 4q-2 0 -10 -2zM158 73q15 0 31 8q7 7 8 14q-1 9 -6 15q-7 4 -22 4q-12 0 -20 -7q-10 -7 -12 -18l-1 -5q0 -3 3 -8q7 -3 19 -3z" />
    <glyph glyph-name="uni1825" unicode="&#x1825;" horiz-adv-x="272" 
d="M215 60l-22 1l-11 -4l-13 -4h-4q-6 0 -20 3q-12 4 -21 4h-7l-6 -1q-3 -1 -7 -1q-2 0 -6 2l-12 6q-4 -4 -6 -12q0 -20 -1 -21v-9q-2 -7 -3 -8q-4 -3 -10 -3l-8 2q-13 3 -27 12q-25 12 -31 28q14 -7 35 -7q26 0 27 7q2 0 9 19q2 21 7 21q6 0 18 -16q6 0 11 -1q4 -1 10 -1h7
q2 20 3 24q4 13 16 23q12 11 25 12q17 0 27 -2q8 -2 14 -11q6 -7 6 -16q0 -6 -3 -14t-7 -12l-2 -2q-2 -2 -2 -3l2 -1q7 0 12 1l17 3q12 3 22 13l16 19q3 0 3 -7q0 -10 -8 -29q-9 -18 -18 -17zM158 73q15 0 31 8q7 7 8 14q-1 9 -6 15q-7 4 -22 4q-12 0 -20 -7q-10 -7 -12 -18
l-1 -5q0 -3 3 -8q7 -3 19 -3z" />
    <glyph glyph-name="uni1826" unicode="&#x1826;" horiz-adv-x="314" 
d="M218 60l-25 1q-3 0 -11 -4l-13 -4h-4q-6 0 -20 3q-12 4 -21 4l-10 -2l-10 -1q-2 0 -6 2l-12 5q-4 -4 -6 -12q0 -19 -1 -20v-9q-2 -7 -3 -8q-4 -3 -10 -3l-8 2q-13 3 -27 12q-25 12 -31 28q14 -7 35 -7q26 0 27 7q2 0 9 19q2 21 7 21q6 0 18 -16q6 0 11 -1q4 -1 10 -1
q4 0 7 1q2 20 3 24q4 13 16 23q12 11 25 12q17 0 27 -2q8 -2 14 -11q6 -7 6 -16q0 -6 -3 -14t-7 -12l-2 -2q-2 -2 -2 -3l2 -1q8 0 15 1l10 2q11 5 35 24l34 28l3 1l1 -2q-3 -13 -18 -28q-3 -2 -23 -22l-1 -1l1 -2h55v-16l-21 2q-3 1 -10 1q-6 0 -9 -1q-2 0 -7 -3l-9 -2
q-6 0 -11 17q-14 -12 -30 -14zM158 73q15 0 31 8q7 7 8 14q-1 9 -6 15q-7 4 -22 4q-12 0 -20 -7q-10 -7 -12 -18l-1 -5q0 -3 3 -8q7 -3 19 -3z" />
    <glyph glyph-name="uni1827" unicode="&#x1827;" horiz-adv-x="323" 
d="M323 107v-4q0 -10 -8 -29q-9 -18 -18 -17l-30 3l-65 3q-21 0 -40 -3q-7 -7 -12 -7q-2 0 -5 4l-1 6l2 12q-3 0 -20 -15q-3 1 -7 1l-19 -1q-10 0 -17 4q-4 -4 -6 -12q0 -19 -1 -20v-9q-2 -7 -3 -8q-4 -3 -10 -3q-2 0 -8 2q-16 4 -33 15q-18 13 -22 25q14 -7 32 -7
q26 0 27 7l6 15l3 11q5 9 7 9q6 0 16 -12q-1 0 15 -2q14 0 20 1l52 52q29 31 53 51q6 2 12 2q14 0 21 -6q2 -4 2 -8t-9 -18q-10 -12 -13 -12t-6 13q-1 3 -1 7q-1 6 -3 6h-2l-45 -41q-34 -37 -34 -40t4 -8h26l69 2q27 2 33 3q7 2 17 8l9 11q5 8 9 12q2 0 3 -3zM100 60z" />
    <glyph glyph-name="uni1828" unicode="&#x1828;" horiz-adv-x="163" 
d="M153 148q1 -1 1 -5t-1 -7q-6 -2 -7 -2q-9 0 -14 8q-6 8 -6 18q0 4 1 6q8 -2 26 -18zM161 59q-4 -4 -16 -4h-4q-8 2 -13 25q-17 -10 -25 -26q-7 -12 -13 -27q-4 -2 -6 -2q-4 0 -24 9l-28 14q-32 12 -32 14l2 4l9 -1q24 -7 37 -7q15 0 34 6l60 39l5 1q0 -4 -5 -11l-7 -9
q5 -10 12 -12q10 0 17 4v-16q-2 0 -3 -1z" />
    <glyph glyph-name="uni1829" unicode="&#x1829;" horiz-adv-x="128" 
d="M38 60q-10 -5 -12 -5h-4q-4 2 -6 6l-2 13l-7 -9l-4.5 -3t-2.5 -2v16l11 9l16 16l2 1l2 -1q-1 -6 -10 -20l-1 -2q-2 -2 0 -4t6 -2q23 0 50 33h2q1 1 2 0l2 -1q0 -4 -4 -8q-16 -20 -16 -42q0 -12 9 -12t25 13q6 7 22 19q4 2 7 2t4 -1v-16q-15 -3 -19 -7q-6 -3 -17 -14
q-13 -11 -20 -15h-6q-7 0 -13 7q-7 7 -7 14v3l4 20q-9 -6 -13 -8z" />
    <glyph glyph-name="uni182A" unicode="&#x182a;" horiz-adv-x="124" 
d="M26 60h-17q3 -18 9 -27q14 -14 28 -14t30 11l27 24l14 14l8 8v-16q-2 -3 -11 -12l-7 -7l-21 -20q-22 -21 -42 -21q-7 0 -14 4q-10 5 -16 11q-4 4 -9 19l-5 26l2 17l9 24q7 13 18 18l11 5q8 3 11 3q36 0 39 -20v-2q0 -3 -3 -9q-4 -16 -11 -28q-9 -8 -22 -9h-17q-4 1 -11 1
zM16 82q-1 -1 -1 -3q0 -7 21 -7q10 0 17 1l11 5q5 3 5 9t-1 7q-4 9 -26 9q-24 -9 -26 -21z" />
    <glyph glyph-name="uni182B" unicode="&#x182b;" horiz-adv-x="127" 
d="M2 60h-2v16h52q14 2 14 14q0 6 -4 10t-11 6q-17 0 -25 6q-4 7 -4 14q0 5 4 10l6 -7q11 -6 33 -8q19 -11 17 -29l-3 -12q-7 -12 -9 -14q-3 -2 -13 -3l-12 -1h-16l-15 -3v-4q0 -7 1 -12q11 -17 32 -17q14 0 33 12l19 14l15 12l14 12v-16l-14 -12l-32 -28q-22 -16 -39 -15
q-11 2 -15 4l-11 7q-7 9 -12 23z" />
    <glyph glyph-name="uni182C" unicode="&#x182c;" horiz-adv-x="157" 
d="M66 7q-7 -3 -20 -3q-15 1 -23 13q-8 11 -8 27q0 6 1 10q-6 0 -11 6q-5 8 -5 14q0 10 6 10q3 0 5 -1q5 -8 7 -9q4 -2 10 -2q20 0 18 21q0 2 2 4q9 -3 9 -11q0 -5 -1 -9t-5 -8q-3 -3 -11 -8q-7 -4 -12 -9l-3 -12q0 -1 2 -7q8 -11 16 -11q20 0 35 15l51 50l9 8q5 5 8 5
q4 0 2 -5l-12 -15q3 -3 10 -5q8 0 12 1v-16q-4 -4 -9 -4t-11 6l-4 16l-23 -25q-21 -22 -21 -24q-13 -16 -24 -22z" />
    <glyph glyph-name="uni182D" unicode="&#x182d;" horiz-adv-x="157" 
d="M104 143q8 -6 10 -9q2 -8 -1 -13q-6 -2 -7 -2q-6 0 -11 12l-5 12q0 8 1 9zM68 139q7 -5 11 -9q2 -8 -1 -13l-6 -1q-5 0 -7 2t-5 9q0 3 -4 12q0 8 1 9q4 -4 11 -9zM66 7q-7 -3 -20 -3q-15 1 -23 13q-8 11 -8 27q0 6 1 10q-6 0 -11 6q-5 8 -5 14q0 10 6 10q3 0 5 -1
q5 -8 7 -9q4 -2 10 -2q20 0 18 21q0 2 2 4q9 -3 9 -11q0 -5 -1 -9t-5 -8q-3 -3 -11 -8q-7 -4 -12 -9l-3 -12q0 -1 2 -7q8 -11 16 -11q20 0 35 15l51 50l9 8q5 5 8 5q4 0 2 -5l-12 -15q3 -3 10 -5q8 0 12 1v-16q-4 -4 -9 -4t-11 6l-4 16l-23 -25q-21 -22 -21 -24
q-13 -16 -24 -22z" />
    <glyph glyph-name="uni182E" unicode="&#x182e;" horiz-adv-x="161" 
d="M143 106l2 -2l-9 -18q1 -12 8 -13q5 0 17 3v-16l-6 -3q-6 -2 -11 -2q-8 2 -11 11q-1 1 -4 14q-18 -8 -35 -41q-3 -15 -5 -13q12 -22 19 -27q10 -6 21 -10q17 -8 17 -9l-4 -2q-1 -2 -3 0h-4q-6 2 -35 2q-7 1 -9 3q-5 2 -8 8l-4 11l3 22q-6 -2 -37 13q-37 17 -43 22l-2 2
q0 3 5 3q7 0 19 -4q14 -3 20 -2q28 -1 58 19z" />
    <glyph glyph-name="uni182F" unicode="&#x182f;" horiz-adv-x="158" 
d="M50 36l-49 22l-1 1q0 2 1 3q24 -3 58 -3q14 2 26 9l52 38q1 -1 3 -1v-3q0 -3 -4 -10l-4 -8q3 -10 11 -10t16 2v-16q-14 -8 -22 -8q-9 0 -10 28q-29 -23 -29 -25q-6 -7 -6 -14v-4q0 -10 -9 -13l1 -24v-5q0 -10 -4 -18q-5 -9 -26 -13q-22 -5 -26 -9q-4 -2 -6 -2q0 6 17 23
l22 22q14 20 14 28z" />
    <glyph glyph-name="uni1830" unicode="&#x1830;" horiz-adv-x="149" 
d="M139 55l-4 -1q-5 -2 -6 4l-4 15q-1 1 -7 -5.5l-10 -10.5l-17 -14l-17 -14q-34 -29 -36 -31q-5 -14 -11 -14q-8 0 -8 12q0 4 1 5l8 17q8 16 9 24q2 5 -2 10q-4 6 -7 7q-28 10 -26 18q5 5 16 5q21 0 31 -13q2 -4 2 -9t-3 -19q-3 -12 -3 -18q3 0 11 7l22 19l46 40
q11 14 15 14q1 0 1 -2q0 -3 -3 -11q-3 -7 -3 -11t4 -4l13 1v-16l-7 -3z" />
    <glyph glyph-name="uni1831" unicode="&#x1831;" horiz-adv-x="149" 
d="M139 55l-4 -1q-5 -2 -6 4l-4 15q-1 1 -7 -5.5l-10 -10.5l-17 -14l-17 -14q-34 -29 -36 -31q-5 -14 -11 -14q-8 0 -8 12q0 4 1 5l8 17q8 16 9 24q2 5 -2 10q-4 6 -7 7q-28 10 -26 18q5 5 16 5q21 0 31 -13q2 -4 2 -9t-3 -19q-3 -12 -3 -18q3 0 11 7l22 19l46 40
q11 14 15 14q1 0 1 -2q0 -3 -3 -11q-3 -7 -3 -11t4 -4l13 1v-16l-7 -3zM28 -50q-8 0 -12 7q-5 8 -5 17q0 4 2 6l12 -9q9 -7 11 -13q0 -8 -8 -8zM57 -52q-6 0 -11 8t-5 16q0 5 1 7q1 -3 12 -11q9 -5 11 -12q0 -8 -8 -8z" />
    <glyph glyph-name="uni1832" unicode="&#x1832;" horiz-adv-x="139" 
d="M123 54q-6 0 -9 19l-21 -24q-41 -41 -62 -39q-14 2 -21 7q-7 6 -9 20l-1 7l1 8q1 10 10 20t19 10h4q3 0 11 -2q7 -1 13 -9q6 -7 6 -14v-5q0 -3 -2 -3q-6 16 -20 19q-9 2 -13 -1q-5 -3 -10 -9t-3 -11q1 -8 7 -14q4 -4 13 -4q11 0 20 6q25 17 67 65h1q1 0 2 -4q0 -6 -6 -17
l-1 -3l2 -2q1 -1 3 -1h3l13 3v-16q-6 -4 -17 -6z" />
    <glyph glyph-name="uni1833" unicode="&#x1833;" horiz-adv-x="185" 
d="M199 194q3 -1 8 -8v-5q-16 -30 -19 -33q-8 -15 -17 -26q-12 -14 -22 -14q-4 0 -6 1q-14 14 -23 27l-2 1l-8 -6l-28 -23l-22 -19q3 -13 8 -13h118v-16l-21 1h-90q-10 -5 -14 -5q-5 0 -6 7l-2 21l-24 -21q-5 -4 -11 -5q-7 0 -12 6q-6 8 -6 14t6 6q6 -6 11 -6l6 1
q70 55 85 66q51 40 72 47q7 3 19 2zM183 173q-6 3 -10 3q-19 -10 -45 -28v-4l15 -15l5 -4h2q8 0 16 11q19 23 19 32z" />
    <glyph glyph-name="uni1834" unicode="&#x1834;" horiz-adv-x="176" 
d="M177 76v-16q-25 -1 -29 -7q0 -1 -2 -3l-3 -1q-4 -4 -8 -4q-7 0 -12 17q-5 1 -16 1t-17 -1l-33 -4l-21 -3q-3 0 -13 -6l-11 -6q-12 5 -11 43l2 4l4 3h1q4 0 11 -7l8 -9l70 -2q18 0 24 -1h4q5 5 6 21q-16 4 -26 11q-9 6 -15 20q2 2 6 0q4 -1 4 -4q10 -3 17 -3q9 0 18 4
q5 3 17 7q4 2 7 2q1 0 7 -2l1 -2q0 -3 -1 -4l-16 -19l-4 -6l-6 -3q-5 -15 -5 -18q0 -7 9 -7l17 2q11 3 16 3z" />
    <glyph glyph-name="uni1835" unicode="&#x1835;" horiz-adv-x="141" 
d="M139 61l-21 -1h-7l-9 -1l-8 -3q-7 -3 -11 -3q-8 0 -9 4l-3 7q-2 6 -2 9q-3 0 -5 -2q-13 -22 -21 -22q-6 0 -34 20l-8 8q-1 1 -1 6l2 2l8 -3q5 -2 19 -5h7q6 0 17 8l60 58q3 4 6 4q3 -1 3 -3q0 -4 -26 -35q-22 -20 -20 -30q2 -5 17 -5h18l31 2v-16q-1 1 -3 1z" />
    <glyph glyph-name="uni1836" unicode="&#x1836;" horiz-adv-x="137" 
d="M16 54h-3q-1 -1 -3 1q-6 2 -7 12q-3 5 -2 11q1 1 3 1l9 -2q6 -1 9 0q4 0 12 4q16 10 20 14q47 29 47 38q-1 4 -18 16q-1 1 1 3l18 4h4q5 0 13 -2q9 -3 10 -10q-5 -10 -10 -14l-14 -11q-9 -7 -27 -19q-20 -15 -20 -21q0 -2 8 -4q8 -1 20.5 -0.5t26.5 0.5q7 1 25 1v-16
q-17 1 -44 1q-17 0 -20 -1q-7 -4 -13 -4q-7 0 -8 7l-2 13q-32 -22 -35 -22z" />
    <glyph glyph-name="uni1837" unicode="&#x1837;" horiz-adv-x="119" 
d="M10 72q9 0 21 9l19 19l-2 15q0 3 -3 7q-4 4 -4 8q0 2 5 2q7 0 21 -11h1q6 0 14 11l21 27q2 2 3 0q1 0 1 -2q0 -14 -22 -39l-35 -40q1 -7 21 -5q14 0 25 1t25 1v-16l-24 1h-13l-16 -1q-15 -5 -21 -4q-4 5 -4 12v8l-17 -16q-8 -2 -11 -2q-9 0 -14 9q-1 3 0 7l6 -1h3z" />
    <glyph glyph-name="uni1838" unicode="&#x1838;" horiz-adv-x="178" 
d="M80 127q35 38 52 50q6 2 12 2q12 0 22 -7q1 -2 1 -6t-9 -18q-10 -12 -13 -12q-2 0 -3 1l-3 12l-3 12h-1l-2 2l-23 -19l-22 -22q-32 -38 -32 -39q0 -4 3 -9q9 -1 26 -1q28 0 95 3v-16l-76 2h-13q-13 0 -27 -2q-7 -7 -12 -7q-2 0 -5 3l1 17l-19 -14l-12 -2l-11 3
q-4 4 -5 10q-2 5 2 7l8 -3l16 3q20 14 53 50z" />
    <glyph glyph-name="uni1839" unicode="&#x1839;" horiz-adv-x="124" 
d="M15 154q6 -1 14 -6q7 -4 10 -10q1 -2 1 -14l11 3q36 0 39 -20v-2q0 -3 -3 -9q-4 -16 -11 -28q-9 -8 -22 -9h-17q-4 1 -11 1h-17q3 -18 9 -27q14 -14 28 -14q15 0 29 11q27 24 28 25l14 13l8 8v-16q-2 -3 -11 -12l-28 -27q-22 -21 -42 -21q-7 0 -14 4q-10 5 -16 11
q-4 4 -9 19l-5 26l2 17q8 21 10 24q6 10 19 19q-5 3 -13 13q-6 8 -6 15q0 5 3 6zM16 82q-1 -1 -1 -3q0 -7 21 -7q10 0 17 1l11 5q5 3 5 9t-1 7q-4 9 -26 9q-24 -9 -26 -21z" />
    <glyph glyph-name="uni183A" unicode="&#x183a;" horiz-adv-x="123" 
d="M56 26q11 0 18 3l13 9q9 7 21 19q-2 -2 16 19v-16q-18 -22 -23 -27q-4 -2 -14 -15l-12 -9q-7 -3 -19 -3q-10 0 -21 9q-5 5 -9 17q-2 12 -2 17l1 10q-12 -2 -14 -1q-11 8 -11 15q0 5 3 6q4 -2 8 -2h3q13 0 14 13q-1 7 -4 20q2 2 3 2q4 0 16 -14q7 1 14 7l15 12l3 2
q2 0 3 -1q-1 -12 -16 -23q-26 -17 -26 -41q0 -27 20 -28z" />
    <glyph glyph-name="uni183B" unicode="&#x183b;" horiz-adv-x="126" 
d="M43 107l12 10q1 1 4 1l2 -1q0 -8 -5 -16l-10 -10q-4 -3 -6 -8l-3 -6l12 1l25 -2q5 -3 5 -6t-9 -8l-35 -2v-4q0 -30 23 -30q8 0 16 4l14 8l14 14l13 12l12 12v-16q-9 -11 -26 -28q-18 -19 -26 -23q-7 -3 -19 -3q-19 0 -27 18q-5 12 -8 35q-21 0 -21 16q0 5 3 6q4 -2 8 -2
q5 0 11 2q2 1 8 7q8 14 13 19z" />
    <glyph glyph-name="uni183C" unicode="&#x183c;" horiz-adv-x="193" 
d="M130 132h-1q2 18 16 38q23 24 37 24q9 0 8 -10q0 -8 -3 -16q-5 -8 -11 -8q-3 0 -8 3q-6 3 -9 3q-5 0 -12 -5l-8 -14q-7 -15 -9 -15zM162 176q0 -8 12 -8q10 0 10 20h-4q-13 -7 -18 -12zM194 76v-16q-42 -3 -43 -7q0 -1 -2 -3l-3 -1q-4 -4 -8 -4q-7 0 -12 17q-5 1 -16 1
t-17 -1l-35 -5l-22 -3q-3 0 -13 -6l-11 -5q-12 5 -11 43l2 4l4 3h1q4 0 11 -7l8 -9l74 -2q17 0 23 -1h4q5 5 6 26q-16 4 -26 11q-9 6 -15 20q2 2 6 0q4 -1 4 -4q10 -3 17 -3q9 0 18 4q5 3 17 7q4 2 7 2q1 0 7 -2l1 -2q0 -3 -1 -4l-17 -18q-1 0 -4 -5t-5 -5q-5 -22 -5 -23
q0 -7 9 -7l24 2q15 3 23 3z" />
    <glyph glyph-name="uni183D" unicode="&#x183d;" horiz-adv-x="193" 
d="M128 129v2q0 1 5 16l6 18l12 18q12 11 19 13q5 0 8 -3t3 -8l-2 -9q-3 -10 -6 -10t-6 14q-12 -5 -19 -15q-10 -17 -10 -19q-7 -16 -10 -17zM194 76v-16q-42 -3 -43 -7q0 -1 -2 -3l-3 -1q-4 -4 -8 -4q-7 0 -12 17q-4 1 -15 1t-18 -1l-38 -5l-19 -3q-2 0 -10 -6l-8 -5
q-18 5 -17 43l2 4l4 3h1q4 0 11 -7l8 -9l74 -2q17 0 23 -1h4q3 4 7 26q-15 4 -25 10q-11 8 -17 21q2 2 6 0q4 -1 4 -4q10 -3 17 -3q9 0 18 4q5 3 17 7q4 2 7 2q1 0 7 -2l1 -2q0 -3 -1 -4l-16 -19q-1 0 -4 -5q-4 -4 -6 -4q-5 -22 -5 -23q0 -7 9 -7l24 2q15 3 23 3z" />
    <glyph glyph-name="uni183E" unicode="&#x183e;" horiz-adv-x="301" 
d="M146 75q3 0 5 2q10 10 36 29q21 12 39 25q46 31 53 31q8 0 8 -8q0 -5 -5 -20v-5q1 -4 1 -11q0 -9 -1 -14q-5 -5 -14 -11q-11 -6 -15 -10q-3 -6 -2 -7h52v-16l-29 2q-10 1 -28 1q-7 0 -15 -3l-10 -3q-9 0 -9 9q0 5 3 8q8 3 17 3l6 11q2 6 18 16q16 12 16 18t-7 12
q-1 1 -4 1q-12 0 -32 -15q-4 -4 -26 -22l-27 -21q-23 -19 -30 -21l-4 -1h-3q-2 1 -7 12q-4 11 -6 13q-15 -9 -23 -23q-7 -12 -13 -27q-4 -2 -6 -2q-4 0 -24 9l-28 14q-32 12 -32 14l2 4h9q24 -7 37 -7q16 0 34 7l58 34q4 2 6 2q3 0 3 -2q0 -3 -1 -5q-4 -7 -12 -13
q1 -10 10 -10z" />
    <glyph glyph-name="uni183F" unicode="&#x183f;" horiz-adv-x="172" 
d="M173 76v-16q-1 1 -3 1q-3 0 -9 -3l-10 -2h-3q-2 1 -7 12l-6 12q-11 -6 -23 -23l-15 -28q0 -21 -4 -29q-9 -18 -20 -20l-6 -1l-6 -1q-4 0 -15 3l-14 7q-2 1 -14 14q-11 13 -14 33l-4 24q0 5 1 8t1 8q5 30 27 52q22 24 52 33q15 -4 15 -17q0 -11 -10 -20q-2 -1 -5 -1t-3 3
l1 4l1 6q0 6 -8 6q-16 0 -35 -22q-29 -32 -29 -61q0 -25 14 -48q14 -21 39 -21h6q12 3 20 21v9q2 8 0 10q-7 2 -13 6l-33 16l-19 9v2q0 5 6 5q23 -5 29 -5q16 0 34 7l58 34q4 2 6 2q3 0 3 -2q0 -3 -1 -5q-4 -7 -12 -13q1 -10 10 -11z" />
    <glyph glyph-name="uni1840" unicode="&#x1840;" horiz-adv-x="302" 
d="M75 30l-10 5l-9 4q-5 3 -11 5l-13 7q-32 12 -32 14l2 4h9q24 -7 37 -7q16 0 34 7l58 34q4 2 6 2q3 0 3 -2q0 -3 -1 -5q-4 -7 -12 -13q1 -10 10 -10q3 0 5 2q10 10 36 29q21 12 39 25q46 31 53 31q8 0 8 -8q0 -5 -5 -20v-5q1 -4 1 -11q0 -9 -1 -14q-5 -5 -14 -11
q-11 -6 -15 -10q-3 -6 -2 -7h52v-16l-29 2q-10 1 -28 1q-10 0 -16 -2l-9 -5q-9 0 -9 10q0 5 3 8q8 3 17 3l6 11q2 6 18 16q16 12 16 18t-7 12q-1 1 -4 1q-12 0 -32 -15q-4 -4 -26 -22l-27 -21q-23 -19 -30 -21l-4 -1h-3q-2 1 -7 12q-4 11 -6 13q-15 -9 -23 -23
q-7 -12 -13 -27q-4 -2 -6 -2q1 -9 1 -23q0 -16 -3 -23q-7 -8 -27 -13l-17 -6l-16 -5q0 5 17 22l22 22q14 20 14 28z" />
    <glyph glyph-name="uni1841" unicode="&#x1841;" horiz-adv-x="155" 
d="M137 118q0 -9 -1 -14q-5 -5 -14 -11q-19 -13 -17 -16q20 -2 51 -1v-16l-28 2q-13 1 -28 1q-14 -2 -20 -4q-1 -3 -6 -3q-8 0 -8 10q0 5 3 8q8 3 17 3q2 5 6 11q2 5 18 17q16 13 16 17q0 6 -7 12q-1 1 -4 1q-13 0 -32 -15l-25 -20l-29 -23q-19 -15 -29 -17v16q5 0 6 1
q54 42 74 54q46 31 53 31q8 0 8 -8q0 -5 -5 -20v-5q1 -4 1 -11z" />
    <glyph glyph-name="uni1842" unicode="&#x1842;" horiz-adv-x="222" 
d="M117 77q2 20 3 24q4 13 16 23q12 11 25 12q17 0 27 -2q8 -2 14 -11q6 -7 6 -16q0 -6 -3 -14t-7 -12l-2 -2q-2 -2 -2 -3l2 -1l27 1v-16l-37 1q-3 0 -11 -4l-13 -4h-4q-7 0 -20 3q-12 4 -21 4l-48 1q-3 0 -11 -4l-13 -4h-4q-7 0 -20 3q-12 4 -21 4v17q2 20 3 24q4 13 16 23
q12 11 25 12q17 0 27 -2q8 -2 14 -11q6 -7 6 -16q0 -6 -3 -14t-7 -12l-2 -2q-2 -2 -2 -3l2 -1l27 1q6 0 11 1zM34 73q15 0 31 8q7 7 8 14q-1 9 -6 15q-7 4 -22 4q-12 0 -20 -7q-10 -7 -12 -18l-1 -5q0 -3 3 -8q8 -3 19 -3zM151 73q15 0 31 8q7 7 8 14q-1 9 -6 15q-7 4 -22 4
q-12 0 -20 -7q-10 -7 -12 -18l-1 -5q0 -3 3 -8q8 -3 19 -3z" />
    <glyph glyph-name="uniFF10" unicode="&#xff10;" horiz-adv-x="128" 
d="M20 6q-12 22 -14 61q0 28 11 55q15 32 47 32t47 -32q9 -21 11 -55q-2 -37 -15 -62q-17 -26 -43 -26q-29 0 -44 27zM97 67q0 81 -33 82q-34 0 -33 -82q0 -80 33 -81q33 1 33 81z" />
    <glyph glyph-name="uniFF11" unicode="&#xff11;" horiz-adv-x="128" 
d="M101 151q-15 -1 -20 -3q-4 -3 -4 -12v-154h-3l-46 23v4q18 -7 18 -6q11 0 9 12v116q0 10 -5 15t-20 5v4h71v-4z" />
    <glyph glyph-name="uniFF12" unicode="&#xff12;" horiz-adv-x="128" 
d="M94 135h-61l43 -46q33 -35 33 -62q0 -22 -16 -35q-14 -11 -31 -11q-18 0 -31 10q-17 11 -23 41l5 1q12 -33 35 -33q38 0 39 36q0 30 -34 67l-45 48v3h100l14 -35l-4 -1q-10 19 -24 17z" />
    <glyph glyph-name="uniFF13" unicode="&#xff13;" horiz-adv-x="128" 
d="M49 68q17 0 23 5q19 11 20 34q-3 38 -34 39q-8 0 -21 -8q-11 -6 -16 -6q-10 1 -10 9q2 12 28 13q31 0 50 -13q20 -17 21 -44q0 -36 -32 -48q24 -15 24 -35q0 -14 -11 -25q-7 -10 -29 -10q-37 1 -50 41l3 1q15 -27 38 -27q27 2 28 27q0 30 -42 43v4h10z" />
    <glyph glyph-name="uniFF14" unicode="&#xff14;" horiz-adv-x="128" 
d="M95 -18h-12l-80 114v16h72v43h20v-43h26v-16h-26v-114zM74 9h1v87h-62z" />
    <glyph glyph-name="uniFF15" unicode="&#xff15;" horiz-adv-x="128" 
d="M102 3l10 -22l-2 -2q-4 7 -12 7h-53l-28 60q-1 2 1 4q25 0 47 11q26 14 26 43q-1 40 -35 45q-7 0 -17 -7q-12 -9 -21 -9q-10 0 -10 10q1 13 32 14q38 0 57 -24q12 -15 12 -36q1 -28 -14 -43q-17 -22 -59 -26l10 -22h51q5 0 5 -3z" />
    <glyph glyph-name="uniFF16" unicode="&#xff16;" horiz-adv-x="128" 
d="M37 11q-28 28 -28 68q0 31 12 53q17 23 44 23q30 0 43 -19q11 -16 12 -39q-1 -51 -47 -54h-3q-12 0 -27 9l-4 3q13 -61 76 -73l-1 -4q-47 2 -77 33zM97 107q-2 41 -28 42q-34 -3 -36 -62q0 -19 5 -24q8 -8 24 -8q34 1 35 52z" />
    <glyph glyph-name="uniFF17" unicode="&#xff17;" horiz-adv-x="128" 
d="M16 -7l-11 26l4 2l5 -7l7 -8q6 -6 18 -6h56l-51 151h17l54 -165v-4h-95z" />
    <glyph glyph-name="uniFF18" unicode="&#xff18;" horiz-adv-x="128" 
d="M32 144q11 10 34 10q51 -2 51 -44q0 -25 -40 -53q35 -17 35 -42q-3 -34 -45 -36q-17 0 -33 10q-15 12 -15 30q-3 21 32 48q-37 24 -34 48q0 17 15 29zM97 120q-1 27 -28 28q-31 -2 -32 -36q0 -23 20 -40q45 28 40 48zM65 -14q28 2 29 28q0 25 -24 38q-32 -18 -32 -40
q1 -24 27 -26z" />
    <glyph glyph-name="uniFF19" unicode="&#xff19;" horiz-adv-x="128" 
d="M92 120q26 -29 26 -70q-5 -68 -57 -72q-24 0 -38 17q-15 17 -15 45q0 19 11 35q12 15 35 15q20 0 37 -14l1 1q-8 28 -25 47q-21 22 -53 27l1 4q48 -3 77 -35zM89 70q-10 7 -25 9q-32 -2 -33 -49q2 -44 28 -45q34 1 34 65v10q0 7 -4 10z" />
    <glyph glyph-name="zero" unicode="0" horiz-adv-x="163" 
d="M143 22q-4 -15 -14 -28q-10 -11 -21 -17q-13 -6 -27 -6q-16 0 -29 7q-14 8 -23 20q-10 15 -14 29q-5 18 -5 33t5 33q5 17 13 28q9 12 22 18q11 7 28 7q15 0 29 -6q11 -6 22 -18q9 -11 14 -28q5 -18 5 -35q0 -19 -5 -37zM54 122q-9 -10 -12 -27q-4 -13 -4 -31
q0 -31 10 -55q9 -26 33 -26q13 0 22 9q9 11 13 24q4 15 4 36q0 24 -4 40q-4 19 -14 30q-9 12 -24 12t-24 -12z" />
    <glyph glyph-name="one" unicode="1" horiz-adv-x="163" 
d="M66 123q-2 8 -8 13q-7 5 -18 5v2h83v-2q-12 -1 -18 -6q-5 -4 -7 -12q-2 -10 -2 -21v-134l-56 15v3l11 -1q10 0 13 8q3 9 3 22v87q0 16 -1 21z" />
    <glyph glyph-name="two" unicode="2" horiz-adv-x="163" 
d="M147 95q-5 11 -11 15q-8 5 -13 6q1 0 -23 2h-44l19 -16l39 -38q12 -16 17 -24q5 -12 5 -24q0 -14 -9 -25q-10 -10 -24 -15q-17 -5 -29 -5q-13 0 -19 1q-7 1 -19 5q-12 3 -19 7l10 45l3 -1q0 -10 1 -15q2 -8 5 -11q8 -8 16 -12t20 -4q15 0 26 8q9 8 9 24q0 9 -3 18l-9 18
l-12 17l-14 16q-12 14 -24 24q-24 21 -34 29l-4 3h115h8l3 3l17 -51h-3z" />
    <glyph glyph-name="three" unicode="3" horiz-adv-x="163" 
d="M133 -25h-82q-7 0 -9 -1l-5 -3l-12 42l2 1q4 -7 9 -12q3 -2 11 -4q3 -1 15 -1h40l-57 45l21 -2q12 0 27 5q13 4 22 15q8 11 8 25t-7 24q-8 11 -20 17t-25 6q-10 0 -18 -4q-9 -3 -16 -11q-6 -7 -6 -16q0 -5 3 -13l-2 -1l-26 39q34 20 64 20q18 0 39 -8q19 -8 29 -24
q11 -16 11 -35q0 -15 -8 -29q-7 -14 -21 -21q-11 -6 -30 -8l48 -38z" />
    <glyph glyph-name="four" unicode="4" horiz-adv-x="163" 
d="M151 68q-5 9 -10 10q-8 2 -19 2h-6v-54v-18q0 -10 1 -15l2 -14h-3q-8 23 -26 29v72h-61q1 -3 12 -17l10 -14l25 -38q7 -11 10 -22q3 -9 3 -20q0 -8 -1 -12l-36 27q7 0 7 10q0 22 -28 60l-8 12l-8 12q-4 4 -6 10q-2 8 -2 10q8 -2 20 -2h63v15q0 13 -3 20q-3 9 -13 10v2h57
v-2q-10 -1 -12 -9q-3 -7 -3 -21v-15h16q8 0 9 1l4 4l8 -32z" />
    <glyph glyph-name="five" unicode="5" horiz-adv-x="163" 
d="M120 -26q-1 1 -8 1h-68q-12 0 -16 -4q2 16 2 24q0 16 -3 32l-9 29q23 -9 46 -9q15 0 27 4q14 4 22 13q8 10 8 23t-7 23q-8 11 -20 17q-14 6 -26 6q-19 0 -28 -10q-10 -9 -10 -22q0 -4 2 -10l-2 -2l-24 40q28 18 61 18q14 0 31 -5q16 -5 26 -13q10 -7 18 -20q6 -12 6 -26
q0 -19 -10 -32q-9 -11 -28 -20q-15 -7 -35 -7h-8h-12l-16 3q4 -12 4 -29h57q8 0 10 1q3 2 3 6v1l2 1l10 -36q-3 3 -5 3z" />
    <glyph glyph-name="six" unicode="6" horiz-adv-x="163" 
d="M94 -29q-25 0 -44 10q-18 10 -29 32q-10 20 -10 49q0 21 8 42q8 22 23 31q17 11 39 11q19 0 33 -7q15 -7 24 -21q9 -13 9 -31q0 -15 -8 -29q-7 -13 -21 -21q-13 -7 -31 -7q-12 0 -27 5q-13 6 -23 16q0 -18 7 -33q8 -16 19 -24q12 -9 28 -9q8 0 14 3q5 3 10 9q3 8 3 15v6
h3l14 -40q-18 -7 -41 -7zM83 43q8 0 15 3q8 5 12 10q11 13 11 33q0 10 -5 22q-5 11 -14 17t-22 6t-21 -7q-10 -6 -15 -17q-5 -12 -5 -23q0 -19 11 -30q14 -14 33 -14z" />
    <glyph glyph-name="seven" unicode="7" horiz-adv-x="163" 
d="M30 -26l-5 -3l-13 44l3 1q3 -7 8 -13q3 -3 11 -5q4 -1 16 -1h72q-3 11 -9 20q-7 11 -15 20q-1 1 -13 17q-11 13 -18 25q-10 15 -15 29q-5 15 -7 35h32q0 -19 6 -36q5 -18 12 -32l21 -38q12 -19 18 -33q5 -15 5 -27q0 -5 -1 -8q-3 6 -16 6h-84q-7 0 -8 -1z" />
    <glyph glyph-name="eight" unicode="8" horiz-adv-x="163" 
d="M146 76q-4 -7 -10 -13q-4 -4 -14 -10q-4 -2 -16 -4q7 -1 17 -7q7 -5 12 -12q4 -7 4 -17q0 -14 -9 -24q-10 -10 -22 -14t-28 -4q-17 0 -29 4q-14 5 -23 14q-10 10 -10 26q0 12 10 22q9 11 22 12q-17 4 -29 16t-12 30q0 13 7 23q6 10 16 16q11 8 23 9q12 3 24 3q16 0 33 -6
q16 -4 27 -17q10 -11 10 -30q0 -9 -3 -17zM62 58q10 -2 16 -2q20 0 31 10q11 11 11 29q0 11 -5 21q-5 8 -15 13q-12 5 -22 5t-20 -5q-10 -4 -15 -14t-5 -21q0 -18 10 -28q7 -5 14 -8zM104 -10q9 7 9 23q0 14 -9 21q-11 8 -25 8q-9 0 -17 -3q-9 -3 -13 -10q-5 -7 -5 -16
t5 -17q4 -6 13 -10q8 -3 17 -3q15 0 25 7z" />
    <glyph glyph-name="nine" unicode="9" horiz-adv-x="163" 
d="M32 98l-15 40q24 8 43 8q22 0 37 -7q16 -6 28 -18q11 -13 17 -29t6 -36q0 -25 -7 -43q-7 -19 -24 -31q-17 -11 -40 -11q-19 0 -33 7q-16 8 -24 20q-10 13 -10 32q0 10 5 22q4 8 14 17q8 8 19 11q9 4 22 4q16 0 29 -6q13 -4 22 -15q0 16 -3 26t-11 22q-7 10 -19 17
q-12 6 -24 6q-10 0 -15 -4q-7 -3 -11 -10q-4 -5 -4 -14l1 -7zM55 66q-9 -6 -13 -16q-5 -12 -5 -22t5 -22q4 -10 14 -17q9 -6 21 -6q13 0 23 6q10 8 15 17q5 12 5 23q0 12 -6 22q-6 11 -16 15q-10 6 -22 6t-21 -6z" />
    <glyph glyph-name="uni2460" unicode="&#x2460;" horiz-adv-x="274" 
d="M23 75q9 92 105 102q95 -11 104 -102q-9 -94 -104 -105q-96 10 -105 105zM226 75q-7 87 -98 96q-91 -9 -99 -96q9 -90 99 -99q91 9 98 99zM139 141v-138q-26 5 -37 3h-11v5h11h4q15 0 13 9v121h-26v5h71v-5h-25z" />
    <glyph glyph-name="uni2461" unicode="&#x2461;" horiz-adv-x="274" 
d="M23 75q9 92 105 102q95 -10 105 -102q-10 -95 -105 -105q-96 10 -105 105zM227 75q-9 87 -99 96q-91 -9 -99 -96q9 -90 99 -99q90 9 99 99zM155 128h-58l37 -33q40 -33 40 -54q0 -35 -45 -38q-41 1 -43 36q1 16 16 17q9 -1 11 -12q-1 -9 -11 -11q-4 0 -9 3l-1 -2v-2
q5 -21 28 -22q28 4 32 34q4 21 -52 73l-18 18v11h88l4 -35h-6q0 21 -13 17z" />
    <glyph glyph-name="uni2462" unicode="&#x2462;" horiz-adv-x="274" 
d="M23 75q9 92 105 102q95 -10 105 -102q-10 -95 -105 -105q-96 10 -105 105zM227 75q-9 87 -99 96q-91 -9 -99 -96q9 -90 99 -99q90 9 99 99zM166 33q-3 -28 -40 -31q-33 2 -36 22q0 13 12 13q10 0 10 -11q0 -5 -6 -7q-5 -2 -3 -5q2 -7 17 -8q24 1 25 25l-1 6q-1 6 0 7
q-4 21 -29 23q-1 1 -7 -1h-4q-5 0 -5 3q0 4 7 4h2q6 -2 9 -2q33 2 35 31q0 43 -32 41q-26 -3 -27 -12q0 -3 4 -3q10 -1 10 -12q-2 -8 -11 -10q-12 1 -14 15q3 24 39 26q45 -1 53 -41q0 -30 -39 -38v-1q30 -10 31 -34z" />
    <glyph glyph-name="uni2463" unicode="&#x2463;" horiz-adv-x="274" 
d="M23 75q9 92 105 102q95 -10 105 -102q-10 -95 -105 -105q-96 10 -105 105zM227 75q-9 87 -99 96q-91 -9 -99 -96q9 -90 99 -99q90 9 99 99zM134 141h-16v5h51v-5h-16v-34h19v16h5v-38h-5v17h-19v-99h-14l-60 93v11h55v34zM83 102l51 -81v81h-51z" />
    <glyph glyph-name="uni2464" unicode="&#x2464;" horiz-adv-x="274" 
d="M23 75q9 92 105 102q95 -10 105 -102q-10 -95 -105 -105q-96 10 -105 105zM227 75q-9 87 -99 96q-91 -9 -99 -96q9 -90 99 -99q90 9 99 99zM96 12l-2 20q-2 26 -2 39q12 -5 24 -5q36 2 37 39q-1 38 -35 40q-21 -3 -25 -13q0 -2 4 -3q9 -1 9 -9q-2 -11 -11 -12
q-13 1 -13 14q5 26 38 27q49 -1 54 -47q-4 -37 -46 -43q-18 0 -30 5l2 -42h41h2q19 0 19 -22h-4q0 7 -19 6h-34q-9 2 -9 6z" />
    <glyph glyph-name="uni2465" unicode="&#x2465;" horiz-adv-x="274" 
d="M23 75q9 92 105 102q95 -10 105 -102q-10 -95 -105 -105q-96 10 -105 105zM227 75q-9 87 -99 96q-91 -9 -99 -96q9 -90 99 -99q90 9 99 99zM79 88q3 58 48 59q47 -2 50 -47q-5 -42 -43 -47q-16 0 -32 14q8 -54 63 -61v-4q-79 10 -86 86zM131 58q24 1 24 41q0 44 -28 43
q-29 3 -26 -48v-7q0 -8 1 -12q11 -15 29 -17z" />
    <glyph glyph-name="uni2466" unicode="&#x2466;" horiz-adv-x="274" 
d="M23 75q9 92 105 102q95 -10 105 -102q-10 -95 -105 -105q-96 10 -105 105zM227 75q-9 87 -99 96q-91 -9 -99 -96q9 -90 99 -99q90 9 99 99zM88 36q4 -19 11 -17h61l-39 82q-10 19 -9 29q0 16 13 16q12 -2 13 -14q0 -4 -3 -10q-3 -7 -3 -17q0 -15 10 -34l21 -45l10 -19v-4
h-80l-10 33h5z" />
    <glyph glyph-name="uni2467" unicode="&#x2467;" horiz-adv-x="274" 
d="M23 75q9 92 105 102q95 -10 105 -102q-10 -95 -105 -105q-96 10 -105 105zM227 75q-9 87 -99 96q-91 -9 -99 -96q9 -90 99 -99q90 9 99 99zM79 110q3 37 49 38q44 -1 49 -38q-1 -31 -42 -39q36 -8 37 -34q-5 -33 -44 -34q-41 2 -44 34q1 27 37 34q-40 8 -42 39zM156 108
l-2 18q-6 17 -25 17q-22 0 -27 -17q-2 -6 -2 -18q0 -31 29 -33q26 1 27 33zM103 37q-1 -30 25 -30q25 0 25 30q-2 32 -25 33q-25 -1 -25 -33z" />
    <glyph glyph-name="uni2468" unicode="&#x2468;" horiz-adv-x="274" 
d="M23 75q9 92 105 102q95 -10 105 -102q-10 -95 -105 -105q-96 10 -105 105zM227 75q-9 87 -99 96q-91 -9 -99 -96q9 -90 99 -99q90 9 99 99zM177 61q-5 -58 -48 -59q-48 3 -50 47q4 43 43 47q15 1 32 -14q-8 54 -63 60v5q78 -9 86 -86zM125 91q-24 0 -24 -37
q-3 -48 28 -47q26 -3 26 42q0 16 -1 18v7q-12 17 -29 17z" />
    <glyph glyph-name="uni2469" unicode="&#x2469;" horiz-adv-x="274" 
d="M233 75q-10 -95 -105 -105q-96 10 -105 105q9 92 105 102q95 -10 105 -102zM227 75q-9 87 -99 96q-42 -4 -68 -26h69v-5h-24v-138q-25 4 -37 3h-8v5h9h4q13 0 13 9v121h-26v5q-26 -23 -31 -70q9 -90 99 -99q90 9 99 99zM215 73q-5 -69 -48 -73q-42 4 -47 73q5 68 47 72
q44 -4 48 -72zM193 72q1 73 -26 68q-14 2 -20.5 -14.5t-5.5 -53.5q-2 -72 26 -68q28 -5 26 68z" />
    <glyph glyph-name="uni2160" unicode="&#x2160;" horiz-adv-x="261" 
d="M139 -6h20v-6h-64v6h20v160h-20v5h64v-5h-20v-160z" />
    <glyph glyph-name="uni2161" unicode="&#x2161;" horiz-adv-x="266" 
d="M185 154h-19v-160h19v-6h-114v6h19v160h-19v5h114v-5zM111 -5l34 -1v160h-34v-159z" />
    <glyph glyph-name="uni2162" unicode="&#x2162;" horiz-adv-x="269" 
d="M53 -5h19v158h-19v5h150v-5h-19v-158h19v-6h-150v6zM118 153h-25v-158h25v158zM163 153h-25v-158h25v158z" />
    <glyph glyph-name="uni2163" unicode="&#x2163;" horiz-adv-x="271" 
d="M42 -8h19v161h-19v4h59v-4h-20v-161h17l49 169h6l46 -169h15v-6h-41v6h20l-35 130h-1l-37 -130h17v-6h-95v6z" />
    <glyph glyph-name="uni2164" unicode="&#x2164;" horiz-adv-x="268" 
d="M125 160h7l51 -167h17v-6h-46v6h22l-39 128l-41 -128h19v-6h-61v6h18z" />
    <glyph glyph-name="uni2165" unicode="&#x2165;" horiz-adv-x="271" 
d="M132 -8h20l-35 129h-1l-36 -129h17v-6h-56v6h16l49 169h6l47 -169h16v161h-19v4h59v-4h-19v-161h19v-6h-83v6z" />
    <glyph glyph-name="uni2166" unicode="&#x2166;" horiz-adv-x="271" 
d="M215 152h-15v-160h15v-6h-102v6h15l-28 129h-1l-30 -129h15v-6h-45v6h12l40 169h5l37 -168h14v159h-17v5h85v-5zM162 -7h21v159h-20z" />
    <glyph glyph-name="uni2167" unicode="&#x2167;" horiz-adv-x="272" 
d="M96 -6h16l-27 126l-26 -126h12v-6h-40v6h12l36 165h3l34 -165h12v156h-15v6h110v-6h-14v-156h14v-6h-127v6zM161 150h-18v-156h18v156zM193 150h-17v-156h17v156z" />
    <glyph glyph-name="uni2168" unicode="&#x2168;" horiz-adv-x="271" 
d="M128 154h-19l34 -69l34 69h-17v4h55v-4h-13l-45 -92l34 -68h17v-6h-42v6h17l-31 60l-29 -60h16v-6h-101v6h18v160h-18v4h90v-4zM77 -6h21l41 85l-38 75h-24v-160z" />
    <glyph glyph-name="uni2169" unicode="&#x2169;" horiz-adv-x="269" 
d="M120 85l39 69h-19v4h63v-4h-16l-51 -92l39 -67h19v-6h-48v6h20l-35 60l-34 -60h18v-6h-62v6h17l46 84l-43 75h-20v4h49v-4h-21z" />
    <glyph glyph-name="uni216A" unicode="&#x216a;" horiz-adv-x="272" 
d="M121 -4h18l-31 59l-31 -59h16v-6h-56v6h15l42 83l-39 74h-18v4h45v-4h-19l35 -68l35 68h-17v4h103v-4h-19v-157h19v-6h-98v6zM179 153h-21l-45 -91l34 -66h32v157z" />
    <glyph glyph-name="uni216B" unicode="&#x216b;" horiz-adv-x="272" 
d="M221 154h-16v-160h16v-6h-118v6h15l-25 60l-25 -60h13v-6h-46v6h13l33 85l-30 75h-16v5h37v-5h-15l28 -69l29 69h-15v5h122v-5zM97 62l28 -68h26v160h-18zM168 -6h20v160h-20v-160z" />
    <glyph glyph-name="uni2170" unicode="&#x2170;" 
d="M141 180v-153q-18 5 -35 5h-10v9h21v139h-21v9h64v-9h-19zM128 -6q15 -2 16 -17q-2 -12 -16 -14q-12 1 -14 14q0 17 14 17z" />
    <glyph glyph-name="uni2171" unicode="&#x2171;" 
d="M105 180v-155q-18 6 -34 5h-10v9h20v141h-20v9h62v-9h-18zM177 180v-155q-18 6 -34 5h-10v9h20v141h-20v9h62v-9h-18zM93 -7q14 -1 16 -15q-1 -13 -16 -15q-12 1 -14 15q0 15 14 15zM164 -7q14 0 15 -15q-1 -12 -15 -15q-13 1 -15 15q2 13 15 15z" />
    <glyph glyph-name="uni2172" unicode="&#x2172;" 
d="M74 180v-153q-14 5 -33 4h-10v9h20v140h-20v9h61v-9h-18zM140 180v-153q-14 5 -33 4h-10v9h20v140h-20v9h60v-9h-17zM207 180v-153q-14 5 -34 4h-10v9h21v140h-21v9h61v-9h-17zM62 -8q14 -2 15 -15q-1 -10 -15 -13q-13 1 -15 13q0 15 15 15zM128 -8q14 -1 15 -15
q-2 -12 -15 -13q-13 1 -15 13q0 15 15 15zM194 -8q13 -2 15 -15q-2 -12 -15 -13q-13 1 -15 13q0 15 15 15z" />
    <glyph glyph-name="uni2173" unicode="&#x2173;" 
d="M78 180v-149q-14 5 -33 4h-10v9h20v136h-20v10h60v-10h-17zM165 190l42 -149h14v-9h-41v9h19l-30 112h-1l-29 -112h16v-9h-54v9h14l40 149h10zM66 -7q13 -2 15 -15q-2 -13 -15 -14q-12 1 -14 14q2 14 14 15z" />
    <glyph glyph-name="uni2174" unicode="&#x2174;" 
d="M134 189l56 -148h19v-9h-55v9h25l-41 111l-40 -111h22v-9h-73v9h19l54 148h14z" />
    <glyph glyph-name="uni2175" unicode="&#x2175;" 
d="M97 191l40 -150h14v-9h-39v9h18l-30 113l-29 -113h16v-9h-53v9h14l39 150h10zM205 180v-152q-19 5 -33 4h-9v9h19v139h-19v9h59v-9h-17zM193 -9q14 0 15 -16q-2 -11 -15 -14q-12 1 -14 14q1 15 14 16z" />
    <glyph glyph-name="uni2176" unicode="&#x2176;" 
d="M73 191l37 -152h13v-8h-36v8h16l-27 115h-1l-25 -115h14v-8h-48v8h13l35 152h9zM167 180v-154q-13 6 -30 5h-8v9h17v140h-17v9h54v-9h-16zM224 180v-154q-16 6 -30 5h-8v8h18v141h-18v9h54v-9h-16zM156 -11q13 -2 14 -13q-1 -10 -14 -12q-12 1 -12 12q0 13 12 13z
M213 -11q13 -1 14 -14q-1 -10 -14 -12q-10 1 -12 12q0 14 12 14z" />
    <glyph glyph-name="uni2177" unicode="&#x2177;" 
d="M53 190l34 -149h11v-9h-34v9h16l-24 113h-1l-24 -113h13v-9h-43v9h11l32 149h9zM139 181v-149q-12 5 -28 4h-8v9h17v136h-17v8h50v-8h-14zM190 181v-149q-12 5 -28 4h-8v9h17v136h-17v8h50v-8h-14zM241 181v-149q-12 5 -27 4h-9v9h17v136h-17v8h50v-8h-14zM129 -12
q11 0 12 -12q-2 -10 -12 -11q-10 1 -11 11q0 12 11 12zM180 -12q11 0 12 -12q-2 -10 -12 -11q-10 1 -12 11q0 12 12 12zM231 -13q11 -1 12 -12q-2 -8 -12 -11q-10 1 -12 11q0 12 12 12z" />
    <glyph glyph-name="uni2178" unicode="&#x2178;" 
d="M72 180v-148q-13 4 -36 4h-11v9h22v135h-22v9h67v-9h-20zM158 124l31 56h-17v9h59v-9h-15l-44 -80l33 -59h18v-9h-46v9h18l-28 51l-26 -51h17v-9h-60v9h17l38 75l-36 64h-19v9h47v-9h-18zM59 -7q16 -2 17 -15q-1 -12 -17 -15q-14 1 -16 15q2 15 16 15z" />
    <glyph glyph-name="uni2179" unicode="&#x2179;" 
d="M120 124l36 56h-20v9h72v-9h-19l-53 -81l40 -58h22v-10h-55v10h21l-33 50l-32 -50h21v-10h-72v10h20l47 75l-44 64h-23v9h56v-9h-21z" />
    <glyph glyph-name="asterisk" unicode="*" horiz-adv-x="133" 
d="M45 25q-3 3 -8 5l17 12q1 -9 10 -23l2 -2l2 3q8 11 10 22l17 -12q-8 -3 -15 -13l-6 -6l4 -1q14 -3 19 -3h5l-7 -19q-2 3 -8 7q-7 4 -14 5l-2 1v-3q0 -15 5 -23h-22q6 7 6 24v2l-2 -1q-14 -4 -22 -12l-7 20l8 -1q8 0 18 3l3 1l-2 3l-4 5q-5 5 -7 6z" />
    <glyph glyph-name="backslash" unicode="\" horiz-adv-x="138" 
d="M106 143l-71 -168h-16l71 168h16z" />
    <glyph glyph-name="periodcentered" unicode="&#xb7;" horiz-adv-x="100" 
d="M40 55q5 5 10 5q7 0 12 -5q4 -4 4 -12q0 -7 -4 -11q-5 -5 -12 -5q-5 0 -10 5t-5 11q0 7 5 12z" />
    <glyph glyph-name="colon" unicode=":" horiz-adv-x="81" 
d="M25 140q4 6 12 6q7 0 12 -6q5 -7 5 -13q0 -8 -4 -13q-5 -5 -12 -5q-8 0 -13 5q-5 7 -5 14t5 12zM25 64q4 6 12 6q7 0 12 -6q5 -7 5 -13q0 -3 -2 -9q-1 -4 -6 -7q-6 -2 -8 -2q-8 0 -13 5q-5 7 -5 14t5 12z" />
    <glyph glyph-name="comma" unicode="," horiz-adv-x="81" 
d="M34 113v3q0 2 -5 14l-9 20q-5 12 -9 15h21l29 -52h-27z" />
    <glyph glyph-name="ellipsis" unicode="&#x2026;" 
d="M26 81q1 16 16 16q16 0 17 -16q-1 -14 -17 -16q-15 1 -16 16zM111 81q1 16 17 16q15 0 16 -16q-1 -15 -16 -16q-16 1 -17 16zM197 81q1 16 17 16q14 0 15 -16q-1 -14 -15 -16q-16 1 -17 16z" />
    <glyph glyph-name="exclam" unicode="!" horiz-adv-x="87" 
d="M30 140q5 6 11 6q9 0 13 -6q4 -5 4 -13t-4 -13q-5 -5 -12 -5t-12 5q-5 7 -5 14t5 12zM31 24v25q0 30 -7 50q7 -7 18 -7q12 0 19 7q-7 -20 -7 -50v-25q0 -25 11 -49h-45q11 24 11 49z" />
    <glyph glyph-name="numbersign" unicode="#" horiz-adv-x="163" 
d="M116 -25l-12 47h-28l12 -47h-14l-12 47h-28l-4 13h30l-12 46h-28l-4 13h29l-12 49h14l12 -49h28l-11 49h13l12 -49h29l4 -13h-30l11 -46h29l3 -13h-29l11 -47h-13zM90 81h-28l12 -46h27z" />
    <glyph glyph-name="period" unicode="." horiz-adv-x="81" 
d="M25 140q4 6 12 6q7 0 12 -6q5 -7 5 -13q0 -8 -4 -13q-5 -5 -12 -5q-8 0 -13 5q-5 7 -5 14t5 12z" />
    <glyph glyph-name="question" unicode="?" horiz-adv-x="133" 
d="M45 140q5 6 11 6q7 0 12 -6q5 -7 5 -13q0 -8 -4 -13q-5 -5 -12 -5t-12 5q-5 7 -5 13q0 8 5 13zM124 11q0 -12 -8 -22q-10 -10 -22 -14t-26 -4q-11 0 -23 2q-12 3 -19 7q-9 4 -14 4q-3 0 -5 -1l11 49h2q-1 -3 -1 -8q0 -12 7 -22q6 -9 17 -15q12 -5 22 -5q8 0 15 3
q6 2 11 9q4 5 4 14q0 11 -6 18l-19 18l-17 14q-9 9 -11 12q-4 4 -4 13t7 16q11 -6 13 -7q4 -1 16 -1h2v-2q-6 -2 -10 -4q-5 -3 -5 -9t5 -11q2 -2 16 -10l15 -9q27 -15 27 -35z" />
    <glyph glyph-name="quotedbl" unicode="&#x22;" horiz-adv-x="71" 
d="M29 26v-51h-13v51h13zM55 26v-51h-13v51h13z" />
    <glyph glyph-name="quotesingle" unicode="'" horiz-adv-x="46" 
d="M28 26v-51h-12v51h12z" />
    <glyph glyph-name="semicolon" unicode=";" horiz-adv-x="81" 
d="M34 113v3q0 2 -5 14l-9 20q-5 12 -9 15h21l29 -52h-27zM37 64q5 6 11 6q8 0 12 -6q5 -7 5 -13q0 -3 -2 -9q-1 -3 -5 -7q-6 -2 -9 -2q-7 0 -12 5q-5 7 -5 14t5 12z" />
    <glyph glyph-name="slash" unicode="/" horiz-adv-x="107" 
d="M97 -10q1 -4 5 -10q2 -3 7 -3v-2h-31v2q6 1 6 6q0 4 -4 13l-66 165l-5 11q-3 5 -9 6v2h31v-2l-4 -2q-1 -1 -1 -4q0 -5 4 -14l64 -161z" />
    <glyph glyph-name="twodotenleader" unicode="&#x2025;" horiz-adv-x="242" 
d="M67 82q14 -2 15 -14q-1 -13 -15 -15q-12 1 -14 15q1 13 14 14zM127 82q14 -2 15 -14q-1 -13 -15 -15q-13 2 -15 15q1 12 15 14z" />
    <glyph glyph-name="underscore" unicode="_" horiz-adv-x="128" 
d="M0 180h128v-20h-128v20z" />
    <glyph glyph-name="uni2016" unicode="&#x2016;" 
d="M100 -40v234h11v-234h-11zM145 -40v234h11v-234h-11z" />
    <glyph glyph-name="uni2038" unicode="&#x2038;" 
d="M81 151q0 7 8 4l80 -80l80 80h2q6 0 4 -8l-79 -79l78 -78q3 -3 1 -7t-6 -2l-80 80l-77 -77q-4 -5 -8 -1q-3 3 1 8l77 77l-81 81v2zM150 137q1 18 19 19q17 -2 19 -19q-2 -17 -19 -19q-17 1 -19 19zM83 68q1 18 19 19q17 -2 19 -19q-2 -17 -19 -19q-17 1 -19 19zM216 68
q1 18 19 19q17 -2 19 -19q-2 -17 -19 -19q-17 1 -19 19zM150 -1q1 18 19 19q17 -2 19 -19q-2 -17 -19 -19q-17 1 -19 19z" />
    <glyph glyph-name="uni2048" unicode="&#x2048;" horiz-adv-x="250" 
d="M138 118l-3 -4l-6 6q-7 5 -14 5q-6 0 -12 -2q-8 -8 -8 -18q0 -21 22 -21q14 0 21 12l4 8q5 9 12 9l44 -1q6 -1 6 -5t-7 -5l-39 -4q-5 -2 -7 -5q-5 -7 -5 -8q-4 -7 -13 -13q-11 -5 -20 -4q-16 2 -23 11q-9 11 -9 26q0 22 14 31q10 5 18 5h6q14 -3 18 -16q1 -2 1 -7z
M230 114q3 4 8 4t9 -4q3 -4 3 -8q0 -5 -3 -10q-4 -3 -9 -3t-8 3q-4 4 -4 10q0 4 4 8zM84 -1q-3 5 -3 10q0 12 8 15q1 1 25 -1.5t47 -4.5l36 -4q7 -1 7 -5t-7 -5l-60 -5q-39 -4 -48 -4q-4 0 -5 4zM230 18q3 4 8 4t9 -4q3 -4 3 -9q0 -4 -3 -9q-4 -3 -9 -3t-8 3q-4 4 -4 9t4 9z
" />
    <glyph glyph-name="uni2049" unicode="&#x2049;" horiz-adv-x="251" 
d="M203 105q0 -4 -7 -5l-60 -5q-39 -4 -48 -4q-4 0 -5 4q-3 5 -3 10q0 12 8 15q1 1 25 -1.5t47 -4.5l36 -4q7 -1 7 -5zM229 96q-4 4 -4 9t4 9q3 4 8 4t9 -4q3 -4 3 -9q0 -4 -3 -9q-4 -3 -9 -3t-8 3zM203 11q0 -4 -7 -5l-39 -4q-5 -2 -7 -5q-5 -7 -5 -8q-4 -7 -13 -13
q-11 -5 -20 -4q-16 2 -23 11q-9 10 -9 26q0 22 14 31q10 5 18 5h6q14 -3 18 -16q1 -2 1 -7l-3 -4l-6 6q-7 5 -14 5q-6 0 -12 -2q-8 -8 -8 -18q0 -21 22 -21q14 0 21 12l4 8q5 9 12 9l44 -1q6 -1 6 -5zM246 18q3 -4 3 -8q0 -5 -3 -10q-4 -3 -9 -3t-8 3q-4 4 -4 10q0 4 4 8
q3 4 8 4t9 -4z" />
    <glyph glyph-name="uniFE14" unicode="&#xfe14;" horiz-adv-x="96" 
d="M4 64q4 4 9 4q6 0 10 -4t4 -10q0 -5 -4 -9t-10 -4q-5 0 -9 4t-4 9q0 6 4 10zM60 44q-4 4 -4 10q0 7 4 10q5 3 10 3q8 0 13 -8l1 -2q3 0 6 3l3 4l2 2q3 0 1 -3q-2 -7 -7 -12q-9 -10 -20 -10q-4 0 -9 3z" />
    <glyph glyph-name="uniFE15" unicode="&#xfe15;" horiz-adv-x="152" 
d="M3 44q-3 5 -3 10q0 12 8 15l38 -4l53 -6q7 -1 7 -5t-7 -5l-91 -9q-4 0 -5 4zM132 63q3 3 8 3q4 0 9 -3q3 -3 3 -9q0 -4 -3 -9q-4 -3 -9 -3t-8 3q-4 4 -4 9q0 6 4 9z" />
    <glyph glyph-name="uniFE16" unicode="&#xfe16;" horiz-adv-x="168" 
d="M58 66l-3 -4q-2 0 -6 6q-7 5 -14 5q-8 0 -12 -2q-8 -8 -9 -19q2 -21 23 -21q14 0 21 13l4 8q5 9 12 9l44 -1q6 -1 6 -5t-7 -5l-39 -4q-6 -2 -7 -5q-5 -7 -5 -8q-4 -7 -13 -13q-11 -5 -20 -4q-16 2 -23 11q-9 10 -10 26q1 22 15 31q8 5 18 5q4 0 6 -1q14 -1 18 -15
q1 -2 1 -7zM150 62q3 4 7 4q6 0 9 -4q3 -3 3 -9q0 -4 -3 -9q-3 -3 -9 -3q-4 0 -7 3q-4 4 -4 9q0 6 4 9z" />
    <glyph glyph-name="uniFE34" unicode="&#xfe34;" 
d="M62 203q0 -6 9 -12q12 -12 12 -22q0 -8 -9 -14l-4 -2q-11 -6 -10 -12q0 -1 8 -9l9 -8q5 -8 5 -14q0 -8 -7 -15q-15 -9 -14 -16q2 -4 10 -12l7 -7q7 -7 7 -13q0 -4 -5 -11l-7 -5q-3 -2 -7 -8q-7 -6 -4 -11l11 -13l8 -8q3 -5 3 -8q0 -7 -7 -14q-2 0 -4 -3q-14 -11 -16 -16
h-14q6 11 22 25q4 3 4 7t-4 8q-5 3 -9 10l-4 5q-3 6 -3 11q0 6 3 9l3 4q6 9 13 13q7 7 0 13q-19 16 -19 24q0 17 18 27q4 4 0 11q-3 4 -15 16q-4 7 -4 12q0 9 10 13q12 6 12 13q0 3 -5 8q-13 9 -16 21v4h13v-1z" />
    <glyph glyph-name="uniFE49" unicode="&#xfe49;" 
d="M20 -38h38l1 2v5q0 2 -1 1h-38q-1 1 -1.5 0.5t0.5 -1.5v-5q0 -1 1 -2zM110 -38h38l1 2v5l-1 1h-38q-1 1 -1.5 0.5t0.5 -1.5v-5q0 -1 1 -2zM200 -38h38l1 2v5q0 2 -1 1h-38q-1 1 -1.5 0.5t0.5 -1.5v-5q0 -1 1 -2z" />
    <glyph glyph-name="uniFE4A" unicode="&#xfe4a;" 
d="M130 -34h2l1 2l1 2q-1 4 -2 5q-3 3 -5 3t-4 -3q-2 -2 -2 -5v-2l2 -2l4 -2zM20 -34h66l1 2v5q0 2 -1 1h-66q-1 1 -1.5 0.5t0.5 -1.5v-5q0 -1 1 -2zM172 -34h66l1 2v5q0 2 -1 1h-66q-1 1 -1.5 0.5t0.5 -1.5v-5q0 -1 1 -2z" />
    <glyph glyph-name="uniFE4B" unicode="&#xfe4b;" 
d="M233 -34q-7 0 -13 3q-10 5 -17 5q-6 0 -14 -4q-7 -4 -16 -4q-7 0 -15 3q-10 4 -17 4q-5 0 -17 -4q-8 -5 -16 -5q-7 0 -17 5q-10 4 -16 4q-5 0 -15 -4q-5 -4 -13 -4q-7 0 -14 4t-17 4q-8 0 -16 -3v-14q8 4 18 4q7 0 14 -3q7 -4 15 -4q7 0 13 3q7 4 16 4q7 0 15 -3
q7 -4 16 -4t16 4q12 4 17 4q7 0 17 -4q8 -4 17 -4q10 0 15 4q10 4 15 4t15 -4t16 -4q9 0 20 6v15q-13 -8 -22 -8z" />
    <glyph glyph-name="uniFE4C" unicode="&#xfe4c;" 
d="M233 -21q-9 0 -13 2q-10 4 -16 4q-5 0 -15 -4q-6 -3 -15 -3q-7 0 -16 3q-7 3 -17 3q-8 0 -17 -3q-8 -3 -16 -3t-17 3q-8 3 -16 3q-7 0 -15 -3q-6 -3 -13 -3q-6 0 -14 3q-7 3 -17 3q-4 0 -16 -2v-10q9 3 16 3q9 0 16 -3q8 -3 16 -3q4 0 12 2q8 3 15 3q4 0 16 -2
q5 -2 16 -2t16 2q9 3 17 3q10 0 17 -3q9 -3 17 -3q9 0 15 3q8 3 15 3q8 0 15 -3q4 -2 14 -2q12 0 22 5v10q-12 -6 -22 -6zM233 -38q-9 0 -13 2q-10 4 -16 4q-5 0 -15 -4q-6 -3 -15 -3q-7 0 -16 3q-7 3 -17 3q-8 0 -17 -3q-8 -3 -16 -3t-17 3q-8 3 -16 3q-7 0 -15 -3
q-6 -3 -13 -3q-6 0 -14 3q-7 4 -17 4q-7 0 -16 -3v-10q9 3 16 3q8 0 16 -3q7 -3 16 -3q4 0 12 2q8 3 15 3q4 0 16 -2q8 -2 13 -2q10 0 19 3q10 2 16 2q9 0 18 -3t17 -3q9 0 15 3q8 3 15 3q8 0 15 -3q4 -2 14 -2q12 0 22 5v10q-12 -6 -22 -6z" />
    <glyph glyph-name="uniFE4D" unicode="&#xfe4d;" 
d="M18.5 183.5q0.5 -0.5 1.5 -0.5h38q1 0 1 2v5q0 1 -1 1h-38q-2 0 -1 -1v-5q-1 -1 -0.5 -1.5zM108.5 183.5q0.5 -0.5 1.5 -0.5h38l1 2v5l-1 1h-38q-2 0 -1 -1v-5q-1 -1 -0.5 -1.5zM198.5 183.5q0.5 -0.5 1.5 -0.5h38q1 0 1 2v5q0 1 -1 1h-38q-2 0 -1 -1v-5q-1 -1 -0.5 -1.5
z" />
    <glyph glyph-name="uniFE4E" unicode="&#xfe4e;" 
d="M130 178l2 1l2 4q0 1 -2 3v2l-5 2q-2 0 -4 -2l-1 -2q-1 -1 -1 -3l2 -4q2 -2 4 -2t3 1zM18.5 179.5q0.5 -0.5 1.5 -0.5h66q1 0 1 2v5q0 1 -1 1h-66q-2 0 -1 -1v-5q-1 -1 -0.5 -1.5zM170.5 179.5q0.5 -0.5 1.5 -0.5h66q1 0 1 2v5q0 1 -1 1h-66q-2 0 -1 -1v-5
q-1 -1 -0.5 -1.5z" />
    <glyph glyph-name="uniFE4F" unicode="&#xfe4f;" 
d="M234 185q-7 0 -13 3q-8 4 -18 4q-7 0 -13 -3q-8 -5 -16 -5q-6 0 -16 4q-7 4 -16 4t-17 -4q-7 -4 -17 -4q-9 0 -17 4q-7 4 -16 4q-7 0 -14 -4q-8 -4 -14 -4q-4 0 -14 4q-8 4 -18 4q-6 0 -14 -3v-14q8 4 16 4q9 0 16 -4q10 -4 14 -4q6 0 14 4q7 4 14 4q9 0 16 -4
q8 -3 15 -3q10 0 18 4t17 4t17 -4q12 -4 16 -4q6 0 16 4q8 3 14 3q9 0 16 -4q8 -3 14 -3q9 0 21 6v15q-9 -8 -21 -8z" />
    <glyph glyph-name="uniFE51" unicode="&#xfe51;" 
d="M83 160q-1 -25 -19 -26q-19 2 -20 16q1 16 20 16h4q3 16 -23 34l3 1q30 -15 35 -41z" />
    <glyph glyph-name="uniFE52" unicode="&#xfe52;" 
d="M63 147q8 11 18 32v2q3 6 8 8t9 -3q2 -4 2 -7q0 -6 -5 -13q-21 -30 -67 -39q17 4 35 20z" />
    <glyph glyph-name="uniFE54" unicode="&#xfe54;" 
d="M83 166q3 -32 -22 -33q-17 2 -18 20q1 15 19 17h5q0 17 -20 31l1 3q28 -10 35 -38zM80 85q-1 -16 -18 -18q-15 1 -17 18q2 17 17 17q16 0 18 -17z" />
    <glyph glyph-name="uniFE56" unicode="&#xfe56;" 
d="M81 168q-1 -15 -17 -17q-17 2 -18 17q1 15 18 17q16 -2 17 -17zM81 98q-1 -16 -18 -18q-15 1 -17 18q2 17 17 17q16 0 18 -17z" />
    <glyph glyph-name="uniFE57" unicode="&#xfe57;" 
d="M114 152q0 10 9 10q8 0 9 -10q-1 -8 -9 -10q-9 2 -9 10zM119 109v-1q0 -4 10 -9l6 -3t7 -5q9 -7 9 -27q-1 -34 -31 -37q-15 2 -15 9q0 8 10 8h4q4 -1 10 -1q17 2 18 18q0 16 -18 23q-16 7 -16 18q0 12 9 22h4q-7 -7 -7 -15z" />
    <glyph glyph-name="uniFE5F" unicode="&#xfe5f;" 
d="M101 61l-8 50h-22v11h20l-8 50h8l9 -50h44l-8 50h8l9 -50h32v-11h-30l8 -50h22v-11h-20l8 -52h-8l-9 52h-44l8 -52h-8l-9 52h-32v11h30zM146 111h-44l8 -50h44z" />
    <glyph glyph-name="uniFE60" unicode="&#xfe60;" 
d="M168 71q-1 10 -22 50q-17 -31 -31 -45q18 -13 20 -33q-2 -23 -22 -25q-22 2 -24 30q0 18 12 34q-31 16 -31 44q0 42 29 44q21 -2 40 -30q11 34 24 30q9 0 22 -11l-2 -5q-9 9 -14 9h-1q-7 0 -14 -20q-5 -11 -6 -17q9 -16 20 -41q2 -4 7 -15q1 -4 15 -4v-5h-32v5q12 0 10 5
zM104 85q21 23 33 51q-14 22 -31 23q-21 -1 -21 -33q-1 -22 19 -41zM113 73q-14 -14 -13 -31q0 -16 12 -18q11 1 12 21q0 19 -11 28z" />
    <glyph glyph-name="uniFE61" unicode="&#xfe61;" 
d="M159 152l-16 -58l32 -30l-2 -11l-36 8l-6 -62h-6l-7 62l-35 -8l-2 11l31 30l-15 58l5 7l26 -43l25 43z" />
    <glyph glyph-name="uniFE68" unicode="&#xfe68;" 
d="M168 170h12l-92 -166h-12z" />
    <glyph glyph-name="uniFF01" unicode="&#xff01;" horiz-adv-x="197" 
d="M168 69q-1 -12 -11 -13q-11 2 -12 13q1 13 12 13q10 0 11 -13zM0 63v11q0 9 5 7l115 -10v-5l-114 -9q-6 -1 -6 6z" />
    <glyph glyph-name="uniFF02" unicode="&#xff02;" horiz-adv-x="113" 
d="M42 7l3 -26q0 -7 -3 -11q-2 -5 -9 -5q-5 0 -8 4t-3 12l3 26l5 30h7zM89 7l3 -26q0 -7 -3 -11q-2 -5 -9 -5t-9 6t-2 10l3 26l5 30h7z" />
    <glyph glyph-name="uniFF03" unicode="&#xff03;" horiz-adv-x="128" 
d="M100 45h26v-13h-24l7 -49h-14l-7 49h-35l7 -49h-14l-7 49h-30v13h28l-7 41h-28v13h26l-7 49h14l8 -49h34l-7 49h14l8 -49h27v-13h-25zM45 86l6 -41h35l-7 41h-34z" />
    <glyph glyph-name="uniFF05" unicode="&#xff05;" horiz-adv-x="213" 
d="M63 150l101 -177h-11q-20 25 -48 26q-7 0 -12 -4q-6 -16 -25 -16t-37 20q-17 22 -19 45q2 30 30 31q44 -4 52 -69v-4l4 1q3 1 7 1q20 0 34 -11l1 1l-90 156h13zM201 78q-1 -25 -26 -28q-18 0 -35 18q-20 22 -22 48q2 28 30 29q44 -3 53 -67zM195 80q-9 53 -40 59
q-17 0 -17 -17q10 -55 41 -64q16 0 16 22zM89 10q-6 47 -41 58q-16 0 -16 -16q9 -51 36 -65h3q3 7 15 12l1 1q2 6 2 10zM98 3h-2h2z" />
    <glyph glyph-name="uniFF06" unicode="&#xff06;" horiz-adv-x="184" 
d="M124 -5q0 -31 -38 -34q-40 3 -41 34q0 14 13 34l2 4q-49 20 -51 54q0 20 13 36q12 15 41 15q29 -2 50 -17l9 15h46v-6h-22l-16 -26q21 -23 26 -66h21v-6h-50v6h23q-2 34 -23 60l-42 -68q39 -15 39 -35zM74 130q-33 -5 -41 -59q-1 -22 30 -33l47 78q-22 15 -36 14zM64 -13
q1 -19 22 -20q19 1 19 26q0 23 -23 32q-18 -27 -18 -38z" />
    <glyph glyph-name="uniFF07" unicode="&#xff07;" horiz-adv-x="56" 
d="M37 -2l3 -26q0 -4 -2 -10q-3 -6 -10 -6t-9 6t-2 10l3 26l5 30h7z" />
    <glyph glyph-name="uniFF0A" unicode="&#xff0a;" horiz-adv-x="128" 
d="M47 74l-12 3q-17 5 -17 12q0 9 9 9q6 0 15 -10q9 -11 20 -17q0 17 -4 29q-2 8 -2 10q1 8 9 10q8 -2 9 -10q0 -2 -2 -10q-4 -12 -4 -29q12 5 21 17q9 10 14 10q9 0 9 -9v-1q0 -8 -17 -11t-26 -9q7 -5 26 -10q17 -5 17 -12q-1 -7 -9 -9q-5 0 -14 10q-11 13 -21 17
q0 -17 4 -29q2 -8 2 -10q-1 -8 -9 -10q-8 2 -9 10q0 1 2 11q1 3 4 14v14q-9 -5 -20 -17q-9 -10 -15 -10q-7 2 -9 9v1q0 8 17 11q19 5 26 10q-7 4 -14 6z" />
    <glyph glyph-name="uniFF0C" unicode="&#xff0c;" horiz-adv-x="154" 
d="M99 58q-14 -11 -23 -11q-10 0 -17 5q-8 6 -8 17q2 15 16 17q12 0 12 -14q0 -7 -4 -11l-2 -2q0 -4 6 -4q7 0 18 8q4 3 13 13l2 3l4 -2q-7 -12 -17 -19z" />
    <glyph glyph-name="uniFF0E" unicode="&#xff0e;" horiz-adv-x="64" 
d="M42 116q5 -5 5 -11q0 -5 -5 -10q-4 -4 -11 -4q-5 0 -10 5q-4 3 -4 9t3 9q3 4 11 4q5 0 11 -2z" />
    <glyph glyph-name="uniFF0F" unicode="&#xff0f;" horiz-adv-x="71" 
d="M15 145l57 -177h-16l-56 177h15z" />
    <glyph glyph-name="uniFF1A" unicode="&#xff1a;" horiz-adv-x="64" 
d="M41 143q6 -3 6 -11q0 -7 -5 -10q-4 -4 -11 -4q-6 0 -10 4q-2 4 -4 10q0 7 4 11q2 0 3 1q3 1 7 1q6 0 10 -2zM42 64q5 -5 5 -10q0 -7 -5 -10q-4 -4 -11 -4q-5 0 -9 4q-5 3 -5 10q0 8 5 11q4 4 9 4q8 0 11 -5z" />
    <glyph glyph-name="uniFF1B" unicode="&#xff1b;" horiz-adv-x="213" 
d="M160 56q-13 -9 -21 -9q-13 0 -19 7q-6 6 -6 15q2 15 16 17q12 0 12 -14q0 -7 -4 -11l-2 -2q0 -4 6 -4q8 0 16 7q8 6 17 17l4 -2q-11 -15 -19 -21zM50 52q-13 2 -14 16q1 12 14 14q14 -2 15 -14q-1 -14 -15 -16z" />
    <glyph glyph-name="uniFF1F" unicode="&#xff1f;" horiz-adv-x="207" 
d="M137 76q-19 0 -26 -13l-5 -6q-12 -15 -18 -20q-13 -10 -30 -10q-39 3 -42 43q4 34 30 37q16 0 16 -14q-2 -11 -12 -11q-9 1 -10 11q-2 5 -3 5q-15 -5 -16 -27q2 -28 28 -32q9 0 14 5l26 28q16 11 35 11q11 0 17 -1v-6h-4zM189 66q-3 -5 -11 -5q-6 0 -9 4q-7 5 -5 11
q0 6 3 10q5 5 11 5q5 0 10 -3q3 -4 3 -12q0 -4 -2 -10z" />
    <glyph glyph-name="uniFF20" unicode="&#xff20;" horiz-adv-x="199" 
d="M117 24q-45 6 -54 62q0 31 27 32q15 -2 29 -17l1 -1q4 16 23 18q42 -5 48 -61q0 -35 -23 -55q-22 -22 -62 -22q-40 1 -67 27t-27 67q2 35 27 59q27 24 70 24q27 0 54 -13l-3 -6q-2 0 -3 1q-28 11 -48 11q-32 0 -55 -21q-22 -22 -22 -53q0 -42 20 -65q22 -25 54 -25
q29 0 51 15q26 20 26 56q-4 48 -36 53q-11 -1 -10 -16l18 -67h-18l-3 10q-4 -13 -17 -13zM100 107q-17 0 -17 -21q3 -45 33 -53q14 0 14 18q-6 48 -30 56z" />
    <glyph glyph-name="uniFF3C" unicode="&#xff3c;" horiz-adv-x="71" 
d="M72 156l-57 -177h-15l56 177h16z" />
    <glyph glyph-name="uniFF3F" unicode="&#xff3f;" horiz-adv-x="128" 
d="M0 155v13h128v-13h-128z" />
    <glyph glyph-name="braceleft" unicode="{" horiz-adv-x="71" 
d="M39 78q-4 -7 -17 -9q12 -3 17 -11q4 -7 4 -22v-41q0 -11 4 -18q5 -6 14 -9q-13 0 -21 3q-7 4 -10 11t-3 21v40q0 13 -3 17q-5 6 -16 9q10 2 14 8q3 3 5 7v11v44q0 7 2 15q2 7 7 11q3 3 11 5q3 1 14 1q-10 -4 -14 -10q-4 -5 -4 -18v-44q0 -14 -4 -21z" />
    <glyph glyph-name="uniFF5B" unicode="&#xff5b;" horiz-adv-x="85" 
d="M55 165q-4 -7 -4 -23v-36q0 -9 -2 -19q-5 -14 -20 -18q14 -4 19 -15q3 -9 3 -21v-39q0 -12 3 -21q3 -10 16 -14v-3q-23 0 -31 11q-6 7 -6 29v41q0 13 -3 20q-3 8 -15 12q13 4 16 14q3 8 2 19v39q0 18 5 26q9 14 32 14v-4q-12 -3 -15 -12z" />
    <glyph glyph-name="braceright" unicode="}" horiz-adv-x="71" 
d="M31 58q5 8 16 11q-11 1 -16 9q-4 7 -4 21v44q0 13 -4 18t-15 10q12 0 16 -1q7 -2 10 -5q6 -6 7 -11q1 -4 1 -15v-44q0 -8 1 -11l4 -7q4 -6 14 -8q-10 -3 -15 -9q-4 -4 -4 -17v-40q0 -11 -2 -21q-3 -7 -10 -11q-7 -3 -22 -3q11 3 15 9q4 5 4 18v41q0 15 4 22z" />
    <glyph glyph-name="uniFF5D" unicode="&#xff5d;" horiz-adv-x="85" 
d="M32 -26q3 9 2 20v39q0 12 3 21q6 10 20 15q-16 5 -20 16q-3 8 -3 21v36q0 16 -3 22q-3 10 -16 13v4q24 0 32 -14q5 -8 5 -26v-39q0 -12 3 -21q3 -7 15 -12q-10 -1 -15 -11q-3 -9 -3 -21v-41q0 -19 -6 -28q-7 -12 -31 -12v3q16 5 17 15z" />
    <glyph glyph-name="bracketleft" unicode="[" horiz-adv-x="76" 
d="M54 -22q9 -9 12 -10h-28l1 2v2l-1 2l-2 2l-14 14q-6 6 -8 7v1q2 2 2 11v120q0 8 -2 12v1q4 2 8 6l12 13q5 5 5 8l-1 2h28q-6 -4 -8 -7l-22 -23v-144z" />
    <glyph glyph-name="bracketright" unicode="]" horiz-adv-x="76" 
d="M21 161q-10 10 -11 10h27v-2l2 -4l1 -2l14 -15q4 -4 8 -6v-1q-3 -3 -3 -12v-120q0 -9 3 -12v-1q-3 -1 -8 -6l-12 -12q-5 -7 -5 -8v-2h-27q5 2 8 6l22 23v145z" />
    <glyph glyph-name="parenleft" unicode="(" horiz-adv-x="87" 
d="M65 162q-6 -8 -11 -22q-5 -16 -8 -33q-4 -16 -4 -38q0 -32 10 -59q9 -28 22 -35l-7 -7q-14 11 -25 30q-10 18 -15 38q-6 20 -6 39q0 16 3 29q3 16 9 28q7 15 15 26q5 8 19 22l9 -8q-6 -2 -11 -10z" />
    <glyph glyph-name="parenright" unicode=")" horiz-adv-x="87" 
d="M22 -15q6 8 11 22l9 32q3 20 3 40q0 23 -4 40q-5 21 -12 34q-8 16 -16 20l7 7q15 -13 25 -31q9 -14 16 -37q5 -22 5 -40q0 -14 -3 -29t-9 -28q-2 -4 -14 -26q-8 -11 -20 -21l-9 8q5 2 11 9z" />
    <glyph glyph-name="uni3008" unicode="&#x3008;" horiz-adv-x="255" 
d="M179 -37q-2 0 -4 2l-55 103l55 102q2 2 3 2q5 -2 4 -5l-54 -99l54 -99q0 -5 -3 -6z" />
    <glyph glyph-name="uni3009" unicode="&#x3009;" horiz-adv-x="255" 
d="M106 -37q-5 2 -5 6l55 99l-55 99q-1 3 5 5q1 0 3 -2l55 -102l-55 -103q-2 -2 -3 -2z" />
    <glyph glyph-name="uni300A" unicode="&#x300a;" horiz-adv-x="254" 
d="M172 -28q-3 0 -4 1l-48 95l48 94l4 2q5 -1 3 -3l-46 -93l46 -94q2 -2 -3 -2zM198 -27q-2 0 -4 2l-48 93l48 92l4 2q4 -1 3 -5l-47 -89l47 -90q1 -4 -3 -5z" />
    <glyph glyph-name="uni300B" unicode="&#x300b;" 
d="M131 -28q3 0 4 1l48 95l-48 94l-4 2q-4 -1 -3 -3l46 -93l-46 -94q-2 -2 3 -2zM105 -27q3 0 3 2l49 93l-49 92q-2 2 -3 2q-4 -1 -3 -5l47 -89l-47 -90q-1 -4 3 -5z" />
    <glyph glyph-name="uni300C" unicode="&#x300c;" 
d="M203 -40h-79v230q4 5 8 0v-222h72q4 -4 -1 -8z" />
    <glyph glyph-name="uni300D" unicode="&#x300d;" 
d="M56 195h79v-230q-4 -5 -8 0v222h-72q-4 4 1 8z" />
    <glyph glyph-name="uni300E" unicode="&#x300e;" horiz-adv-x="254" 
d="M120 180h26v-197h46v-27h-72v224zM140 174h-14v-213h60v15h-46v198z" />
    <glyph glyph-name="uni300F" unicode="&#x300f;" horiz-adv-x="254" 
d="M172 -44h-26v197h-46v27h72v-224zM152 -38h14v213h-60v-15h46v-198z" />
    <glyph glyph-name="uni3010" unicode="&#x3010;" 
d="M140 77q-3 -86 40 -123h-64v246h64q-41 -35 -40 -123z" />
    <glyph glyph-name="uni3011" unicode="&#x3011;" 
d="M116 71q0 95 -40 129h64v-246h-64q40 36 40 117z" />
    <glyph glyph-name="uni3014" unicode="&#x3014;" horiz-adv-x="254" 
d="M168 168q8 -3 3 -8l-43 -21v-142l43 -23q2 -6 -6 -6l-45 24v152z" />
    <glyph glyph-name="uni3015" unicode="&#x3015;" horiz-adv-x="254" 
d="M111 -31q-7 0 -6 7l43 22v142l-43 21q-5 5 3 8l48 -24v-152z" />
    <glyph glyph-name="uni3016" unicode="&#x3016;" 
d="M180 200q-38 -40 -40 -122q2 -80 40 -123h-64v245h64zM135 78q-1 70 34 118h-48v-237h48q-35 49 -34 119z" />
    <glyph glyph-name="uni3017" unicode="&#x3017;" 
d="M116 78q-1 80 -40 122h64v-245h-64q39 45 40 123zM87 196q34 -46 34 -118t-34 -119h48v237h-48z" />
    <glyph glyph-name="uniFE37" unicode="&#xfe37;" horiz-adv-x="85" 
d="M55 165q-4 -7 -4 -23v-36q0 -9 -2 -19q-5 -14 -20 -18q14 -4 19 -15q3 -9 3 -21v-39q0 -12 3 -21q3 -10 16 -14v-3q-23 0 -31 11q-6 7 -6 29v41q0 13 -3 20q-3 8 -15 12q13 4 16 14q3 8 2 19v39q0 18 5 26q9 14 32 14v-4q-12 -3 -15 -12z" />
    <glyph glyph-name="uniFE38" unicode="&#xfe38;" horiz-adv-x="85" 
d="M32 -26q3 9 2 20v39q0 12 3 21q6 10 20 15q-16 5 -20 16q-3 8 -3 21v36q0 16 -3 22q-3 10 -16 13v4q24 0 32 -14q5 -8 5 -26v-39q0 -12 3 -21q3 -7 15 -12q-10 -1 -15 -11q-3 -9 -3 -21v-41q0 -19 -6 -28q-7 -12 -31 -12v3q16 5 17 15z" />
    <glyph glyph-name="uniFE39" unicode="&#xfe39;" horiz-adv-x="254" 
d="M168 168q8 -3 3 -8l-43 -21v-142l43 -23q2 -6 -6 -6l-45 24v152z" />
    <glyph glyph-name="uniFE3A" unicode="&#xfe3a;" horiz-adv-x="254" 
d="M111 -31q-7 0 -6 7l43 22v142l-43 21q-5 5 3 8l48 -24v-152z" />
    <glyph glyph-name="uniFE3B" unicode="&#xfe3b;" 
d="M140 77q-3 -86 40 -123h-64v246h64q-41 -35 -40 -123z" />
    <glyph glyph-name="uniFE3C" unicode="&#xfe3c;" 
d="M116 71q0 95 -40 129h64v-246h-64q40 36 40 117z" />
    <glyph glyph-name="uniFE3D" unicode="&#xfe3d;" horiz-adv-x="254" 
d="M172 -28q-3 0 -4 1l-48 95l48 94l4 2q5 -1 3 -3l-46 -93l46 -94q2 -2 -3 -2zM198 -27q-2 0 -4 2l-48 93l48 92l4 2q4 -1 3 -5l-47 -89l47 -90q1 -4 -3 -5z" />
    <glyph glyph-name="uniFE3E" unicode="&#xfe3e;" 
d="M131 -28q3 0 4 1l48 95l-48 94l-4 2q-4 -1 -3 -3l46 -93l-46 -94q-2 -2 3 -2zM105 -27q3 0 3 2l49 93l-49 92q-2 2 -3 2q-4 -1 -3 -5l47 -89l-47 -90q-1 -4 3 -5z" />
    <glyph glyph-name="uniFE3F" unicode="&#xfe3f;" horiz-adv-x="255" 
d="M179 -37q-2 0 -4 2l-55 103l55 102q2 2 3 2q5 -2 4 -5l-54 -99l54 -99q0 -5 -3 -6z" />
    <glyph glyph-name="uniFE40" unicode="&#xfe40;" horiz-adv-x="255" 
d="M106 -37q-5 2 -5 6l55 99l-55 99q-1 3 5 5q1 0 3 -2l55 -102l-55 -103q-2 -2 -3 -2z" />
    <glyph glyph-name="uniFE41" unicode="&#xfe41;" 
d="M203 -40h-79v230q4 5 8 0v-222h72q4 -4 -1 -8z" />
    <glyph glyph-name="uniFE42" unicode="&#xfe42;" 
d="M56 195h79v-230q-4 -5 -8 0v222h-72q-4 4 1 8z" />
    <glyph glyph-name="uniFE47" unicode="&#xfe47;" horiz-adv-x="254" 
d="M120 180h26v-197h46v-27h-72v224zM140 174h-14v-213h60v15h-46v198z" />
    <glyph glyph-name="uniFE48" unicode="&#xfe48;" horiz-adv-x="254" 
d="M172 -44h-26v197h-46v27h72v-224zM152 -38h14v213h-60v-15h46v-198z" />
    <glyph glyph-name="uniFE59" unicode="&#xfe59;" 
d="M124 79q-3 53 65 89v-2q-54 -38 -50 -87q-3 -47 50 -88v-1q-68 38 -65 89z" />
    <glyph glyph-name="uniFE5A" unicode="&#xfe5a;" 
d="M135 77q1 -53 -66 -90v1q51 40 50 89q2 51 -50 88v2q67 -37 66 -90z" />
    <glyph glyph-name="uniFE5B" unicode="&#xfe5b;" 
d="M130 21q0 8 4 15q2 5 0 3q5 15 5 18q-4 15 -22 20q-1 1 0 1q17 6 22 20q-2 12 -4 16q-5 12 -5 20q0 24 17 33v-1q-8 -11 -8 -31v-2q0 -5 1 -9l2 -8q3 -10 3 -18q-2 -14 -18 -20q15 -7 18 -21l-2 -12q-1 -3 -1 -8l-2 -6q-1 -5 -1 -11v-5q0 -19 8 -25v-2q-19 10 -17 33z
" />
    <glyph glyph-name="uniFE5C" unicode="&#xfe5c;" 
d="M130 134q0 -5 -4 -14q-1 -2 -1 -6q-4 -7 -4 -16q3 -15 22 -19v-2q-18 -3 -22 -19v-3q0 -8 5 -18l4 -15q2 -22 -18 -33v1q9 7 9 31q0 1 -2 11q-1 2 -1 6q-4 13 -3 20q2 12 17 20q-15 6 -17 20q0 8 3 18q0 6 1 8l2 11q-2 21 -9 30v2q17 -10 18 -33z" />
    <glyph glyph-name="uniFE5D" unicode="&#xfe5d;" 
d="M179 166q4 0 5 -3q1 -2 -2 -4l-48 -19v-125l48 -20q2 -5 -5 -6l-53 21v135z" />
    <glyph glyph-name="uniFE5E" unicode="&#xfe5e;" 
d="M72 -8l52 20v128l-52 19q-5 2 -3 5q2 2 6 2l59 -21v-138l-56 -21q-9 0 -6 6z" />
    <glyph glyph-name="uniFF08" unicode="&#xff08;" horiz-adv-x="71" 
d="M64 177q-18 -20 -23 -34q-9 -21 -9 -72q0 -52 9 -75q5 -12 23 -33l5 -6l-4 -4q-19 16 -32 40q-21 34 -21 78q0 41 20 75q14 24 33 41l4 -4z" />
    <glyph glyph-name="uniFF09" unicode="&#xff09;" horiz-adv-x="71" 
d="M40 143q19 -31 19 -72q0 -39 -18 -74q-14 -24 -35 -44l-3 4l5 6q19 22 24 40q7 18 7 68q0 46 -8 68q-5 17 -23 37l-5 7l3 4q22 -19 34 -44z" />
    <glyph glyph-name="uniFF3B" unicode="&#xff3b;" horiz-adv-x="71" 
d="M31 -37h35v-6h-53v221h53v-6h-35v-209z" />
    <glyph glyph-name="uniFF3D" unicode="&#xff3d;" horiz-adv-x="71" 
d="M59 -41h-54v6h35v209h-35v6h54v-221z" />
    <glyph glyph-name="uniFE35" unicode="&#xfe35;" horiz-adv-x="155" 
d="M101 177q-18 -20 -23 -34q-9 -21 -9 -72q0 -52 9 -75q5 -12 23 -33l5 -6l-4 -4q-19 16 -32 40q-21 35 -21 78q0 41 20 75q14 24 33 41l4 -4z" />
    <glyph glyph-name="uniFE36" unicode="&#xfe36;" horiz-adv-x="149" 
d="M90 147q19 -31 19 -72q0 -39 -18 -74q-14 -24 -35 -44l-3 4l5 6q19 22 24 40q7 18 7 68q0 46 -8 68q-5 17 -23 37l-5 7l3 4q22 -19 34 -44z" />
    <glyph glyph-name="uni2015" unicode="&#x2015;" 
d="M240 82h-224v-8h224v8z" />
    <glyph glyph-name="emdash" unicode="&#x2014;" 
d="M256 86v-11h-256v11h256z" />
    <glyph glyph-name="endash" unicode="&#x2013;" 
d="M177 82h-98v-8h98v8z" />
    <glyph glyph-name="hyphen" unicode="-" horiz-adv-x="66" 
d="M64 63q-2 3 -7 5q-3 1 -12 1h-23q-7 0 -11 -2l-11 29h3q3 -5 7 -6q3 -1 12 -1h22q8 0 11 3l11 -29h-2z" />
    <glyph glyph-name="uni2010" unicode="&#x2010;" 
d="M170 124v-13h-84v13h84z" />
    <glyph glyph-name="uniFE31" unicode="&#xfe31;" horiz-adv-x="255" 
d="M3 62v12h250v-12h-250z" />
    <glyph glyph-name="uniFE58" unicode="&#xfe58;" 
d="M128 162q9 0 10 -10q-2 -8 -10 -9q-11 2 -11 9q0 10 11 10zM132 29h-9q-6 0 -5 4l8 90h4l7 -89q2 -5 -5 -5z" />
    <glyph glyph-name="uniFE63" unicode="&#xfe63;" 
d="M97 97v17h62v-17h-62z" />
    <glyph glyph-name="uniFF0D" unicode="&#xff0d;" horiz-adv-x="140" 
d="M11 61v15h119v-15h-119z" />
    <glyph glyph-name="quotedblleft" unicode="&#x201c;" 
d="M192 167q12 0 21 -16l1 -5q0 -8 -8 -11l-5 -1q-8 0 -13 8q0 3 -1 5q-3 5 -5 5q-10 0 -30 -18l-3 3q26 30 43 30zM192 114q12 0 21 -16l1 -4q0 -8 -9 -11q-2 -1 -6 -1q-7 0 -11 7q0 3 -1 5q-3 6 -5 6q-12 -2 -30 -18l-3 2q26 30 43 30z" />
    <glyph glyph-name="quotedblright" unicode="&#x201d;" 
d="M48 12q-3 -1 -9 -1q-16 0 -17 16q1 13 10 16h3q10 0 14 -9q3 -8 10 -8q9 0 24 17l3 -1q-14 -23 -38 -30zM47 -40q-3 -1 -8 -1q-16 0 -17 16q1 13 10 16h3q10 0 14 -9q3 -8 10 -8q9 0 24 17l3 -2q-14 -23 -39 -29z" />
    <glyph glyph-name="quoteleft" unicode="&#x2018;" horiz-adv-x="240" 
d="M203 168q22 -2 23 -20q0 -16 -15 -18q-16 1 -17 16v6q-17 1 -34 -19l-3 3q17 27 46 32z" />
    <glyph glyph-name="quoteright" unicode="&#x2019;" 
d="M76 -15q-25 0 -30 18v2q0 16 18 17q18 -3 14 -21q20 0 35 19l2 -3q-13 -27 -39 -32z" />
    <glyph glyph-name="uni2035" unicode="&#x2035;" 
d="M125 3q-7 -10 -14 -7q-6 4 -2 14l48 84h3z" />
    <glyph glyph-name="uni301D" unicode="&#x301d;" 
d="M109 11q-7 -9 -17 -11q-8 2 -8 7v1q0 8 17 17l27 18h4zM150 11q-6 -9 -16 -11q-8 2 -8 7v1q0 8 17 17l27 18h4z" />
    <glyph glyph-name="uni301E" unicode="&#x301e;" 
d="M131 7q-1 -6 -8 -7q-9 2 -16 11l-24 32h4l27 -18q17 -11 17 -18zM172 7q-1 -6 -8 -7q-9 2 -16 11l-24 32h4l27 -18q17 -11 17 -18z" />
    <glyph glyph-name="uni1800" unicode="&#x1800;" 
 />
    <glyph glyph-name="uni1801" unicode="&#x1801;" horiz-adv-x="426" 
d="M66 79q5 5 10 5q6 0 11 -5q4 -4 4 -11t-4 -11t-11 -4q-6 0 -10 4q-5 5 -5 11t5 11zM165 79q5 5 10 5q6 0 11 -5q4 -4 4 -11t-4 -11t-11 -4q-6 0 -10 4q-5 5 -5 11t5 11zM264 79q5 5 10 5q6 0 11 -5q4 -4 4 -11t-4 -11t-11 -4q-6 0 -10 4q-5 5 -5 11t5 11zM373 84
q6 0 11 -5q4 -4 4 -11t-4 -11t-11 -4t-11 4t-4 11q0 16 15 16z" />
    <glyph glyph-name="uni1802" unicode="&#x1802;" horiz-adv-x="265" 
d="M82 91v3l-1 4h3l8 -4l6 -6l6 -10l1 -9l-2 -11l-5 -6l-7 -8l-9 -5l-2 1l4 14l1 15l-1 15z" />
    <glyph glyph-name="uni1803" unicode="&#x1803;" horiz-adv-x="267" 
d="M82 91v3l-1 4h3l8 -4l6 -6l6 -10l1 -9l-2 -11l-5 -6l-7 -8l-9 -5l-2 1l4 14l1 15l-1 15zM127 91v3l-1 4h3l9 -5l5 -7l5 -9l2 -9l-2 -11l-4 -7l-8 -7l-9 -4l-2 1l4 14l1 15v15z" />
    <glyph glyph-name="uni1804" unicode="&#x1804;" horiz-adv-x="106" 
d="M84 107q3 4 9 4q5 0 9 -4t4 -9q0 -6 -4 -10t-9 -4q-13 0 -13 14q0 6 4 9zM93 53q5 0 9 -4t4 -10q0 -5 -4 -9t-9 -4q-6 0 -9 3q-4 4 -4 10q0 14 13 14z" />
    <glyph glyph-name="uni1805" unicode="&#x1805;" horiz-adv-x="161" 
d="M121 142l14 -28l-14 -28l-14 28zM94 96l14 -28l-14 -28l-14 28zM147 95l14 -27l-14 -28l-14 28zM121 49l15 -28l-15 -27l-14 27z" />
    <glyph glyph-name="uni1807" unicode="&#x1807;" horiz-adv-x="139" 
d="M108 80l5 34q2 2 3 2q2 0 3 -3l5 -33h16v-24h-60v24h28z" />
    <glyph glyph-name="uni180A" unicode="&#x180a;" horiz-adv-x="40" 
d="M40 76h-40v-16h40v16z" />
    <glyph glyph-name="uni1806" unicode="&#x1806;" horiz-adv-x="142" 
d="M142 56h-62v24h62v-24z" />
    <glyph glyph-name="uni180E" unicode="&#x180e;" horiz-adv-x="0" 
 />
    <glyph glyph-name="uni202F" unicode="&#x202f;" horiz-adv-x="50" 
 />
    <glyph glyph-name="uni200D" unicode="&#x200d;" horiz-adv-x="0" 
 />
    <glyph glyph-name="uni200C" unicode="&#x200c;" horiz-adv-x="0" 
 />
    <glyph glyph-name="uniFEFF" unicode="&#xfeff;" 
d="M172 1l-97 154h8l98 -154h-9zM170 150q23 -3 26 -38q-1 -33 -26 -38q-24 3 -26 38q2 36 26 38zM170 77q14 0 14 35t-14 35q-15 0 -15 -35t15 -35zM86 81q23 -3 26 -38q-1 -33 -26 -38q-24 3 -26 38q2 36 26 38zM86 8q15 0 15 35t-15 35t-15 -35t15 -35z" />
    <glyph glyph-name="currency" unicode="&#xa4;" 
d="M128 6q-20 0 -35 12l-16 -16l-8 8l16 16q-14 19 -13 35q-1 17 13 35l-16 16l8 7l16 -15q18 14 35 13q16 1 35 -13l16 15l8 -7l-16 -16q13 -17 13 -35t-13 -35l16 -16l-8 -8l-16 16q-18 -12 -35 -12zM128 17q40 4 45 44q-4 40 -45 45q-40 -3 -45 -45q3 -39 45 -44z" />
    <glyph glyph-name="dollar" unicode="$" horiz-adv-x="163" 
d="M47 110q-9 -4 -16 -13q-3 -3 -13 -22h-3l16 60q4 -7 10 -7q2 2 12 3q12 2 16 2v7q0 2 1 3v4q0 11 -8 11v3h30v-3q-4 -1 -5 -4q-2 -2 -2 -6v-4v-5v-6q17 -2 28 -8q14 -8 21 -19q8 -13 8 -27q0 -19 -10 -26t-30 -12l-28 -6q-27 -4 -27 -18q0 -18 30 -18q18 0 31 9
q14 11 18 26h2l-7 -47q-3 3 -8 3l-12 -2q-7 -1 -16 -1v-9v-3v-4q0 -12 6 -12v-2h-30v2q5 1 7 6q1 3 1 15v7q-5 0 -17 2q-10 3 -16 7q-8 5 -12 12q-5 8 -5 17q0 12 7 19q9 9 17 11q11 5 24 6l2 1v57q-13 -3 -22 -9zM96 66l12 4q5 2 8 6q3 5 3 11q0 15 -10 22q-10 8 -24 10
v-55z" />
    <glyph glyph-name="uni20AE" unicode="&#x20ae;" horiz-adv-x="146" 
d="M11 9v19h52v54l-41 24l7 11l34 -20v22l-37 22l6 10l31 -18v36h20v-45l39 -25l-8 -9l-31 19v-22l38 -23l-7 -11l-31 19v-44h52v-19h-124z" />
    <glyph glyph-name="uniFF04" unicode="&#xff04;" horiz-adv-x="128" 
d="M113 16q-3 -28 -34 -32v-22h-7v21h-10h-5l-6 1v-22h-6v23q-11 4 -21 14q-9 12 -9 27t6 25q8 13 24 17v76q-20 -5 -25 -17q0 -2 5 -4q9 -4 9 -13q-1 -10 -10 -11q-15 0 -16 16q5 29 37 34v20h6v-20h6h5h5h5v20h7v-21q18 -4 30 -23q8 -11 8 -25q0 -17 -12 -31
q-11 -11 -26 -14v-65q19 5 23 15q0 2 -4 3q-10 4 -10 11q0 12 11 12q12 -1 14 -15zM72 144l-4 1l-6 1h-4q-3 -1 -7 -1v-75l21 7v67zM79 79q11 3 18 9q8 8 8 19q0 12 -6 22q-7 8 -20 13v-63zM72 53l-21 -6v-57l4 -1q3 -1 7 -1h10v65zM45 45q-20 -8 -20 -26q1 -19 20 -28v54z
" />
    <glyph glyph-name="angle" unicode="&#x2220;" 
d="M215 157h-153l109 -144l-9 -6l-121 160h174v-10z" />
    <glyph glyph-name="circleplus" unicode="&#x2295;" 
d="M12 79q9 103 116 114q105 -10 116 -114q-10 -106 -116 -116q-106 10 -116 116zM233 79q-9 94 -105 103q-98 -9 -105 -103q9 -95 105 -106q95 11 105 106zM134 85h69v-12h-69v-70h-12v70h-69v12h69v70h12v-70z" />
    <glyph glyph-name="element" unicode="&#x2208;" 
d="M66 87h136v-14h-136q1 -52 47 -56h94v-14h-92q-64 1 -66 78q2 77 66 78h92v-15h-95q-46 0 -46 -57z" />
    <glyph glyph-name="equivalence" unicode="&#x2261;" 
d="M44 115v12h168v-12h-168zM44 80v12h168v-12h-168zM44 45v12h168v-12h-168z" />
    <glyph glyph-name="plus" unicode="+" horiz-adv-x="153" 
d="M16 90h52v53h15v-53h52v-14h-52v-53h-15v53h-52v14z" />
    <glyph glyph-name="multiply" unicode="&#xd7;" horiz-adv-x="254" 
d="M202 96l-53 -53l53 -53l-8 -8l-53 53l-53 -53l-8 8l53 53l-53 53l8 8l53 -53l53 53z" />
    <glyph glyph-name="divide" unicode="&#xf7;" 
d="M120 96q0 7 8 9q6 -1 8 -9q-1 -7 -8 -8q-7 1 -8 8zM195 50v-12h-134v12h134zM120 -8q1 7 8 8q7 -1 8 -8q-1 -7 -8 -9q-6 1 -8 9z" />
    <glyph glyph-name="equal" unicode="=" horiz-adv-x="153" 
d="M16 108h119v-14h-119v14zM16 73h119v-15h-119v15z" />
    <glyph glyph-name="notequal" unicode="&#x2260;" 
d="M70 169l44 -58h99v-12h-89l20 -27h69v-12h-60l45 -59h-13l-45 59h-97v12h88l-20 27h-68v12h58l-44 58h13z" />
    <glyph glyph-name="greater" unicode="&#x3e;" horiz-adv-x="153" 
d="M135 76l-119 -55v15l103 47l-103 47v15l119 -55v-14z" />
    <glyph glyph-name="less" unicode="&#x3c;" horiz-adv-x="153" 
d="M135 145v-15l-102 -47l102 -47v-15l-119 55v14z" />
    <glyph glyph-name="greaterequal" unicode="&#x2265;" 
d="M41 169l174 -47v-15l-174 49v13zM41 28l152 41l-152 40v16l174 -48v-16l-174 -48v15z" />
    <glyph glyph-name="lessequal" unicode="&#x2264;" 
d="M41 122l174 47v-13l-174 -49v15zM215 28v-15l-174 48v16l174 48v-16l-152 -40z" />
    <glyph glyph-name="plusminus" unicode="&#xb1;" 
d="M195 103v-10h-134v10h134zM122 -69v61h-61v11h61v62h11v-62h62v-11h-62v-61h-11z" />
    <glyph glyph-name="approxequal" unicode="&#x2248;" 
d="M169 108q-13 0 -39 -9q-28 -12 -44 -12q-20 0 -42 17v14q22 -19 43 -19q14 0 38 10q27 10 45 10q19 1 42 -17v-14q-24 21 -43 20zM169 69q-13 0 -39 -9q-28 -12 -44 -12q-19 0 -42 18v13q22 -19 43 -19q14 0 38 10q30 11 45 11q19 1 42 -17v-14q-24 20 -43 19z" />
    <glyph glyph-name="asciitilde" unicode="~" horiz-adv-x="153" 
d="M118 59q-4 4 -13 4q-3 0 -9 -2l-16 -6q-10 -4 -18 -6q-10 -2 -14 -2q-12 0 -20 6q-9 8 -16 20l10 7q7 -10 12 -14q5 -5 14 -5q4 0 12 2l15 6q11 5 17 6q8 2 13 2q13 0 20 -6q8 -6 15 -18l-11 -7q-4 6 -11 13z" />
    <glyph glyph-name="infinity" unicode="&#x221e;" 
d="M62 125.5q11 13.5 31 13.5q24 0 41 -31q9 29 35 31q19 0 29 -16q9 -12 9 -34q-3 -44 -41 -47q-27 0 -42 30q-11 -29 -35 -30q-18 2 -27 11q-11 13 -11 34q0 25 11 38.5zM88 65q22 2 32 15q-14 40 -37 38q-25 0 -26 -25q1 -25 31 -28zM170 116q-20 -2 -32 -15l1 -2
q13 -37 36 -37q24 2 26 26q-3 27 -31 28z" />
    <glyph glyph-name="logicaland" unicode="&#x2227;" 
d="M123 -26l-67 198h13l62 -182l56 184h13l-61 -200h-16z" />
    <glyph glyph-name="logicalor" unicode="&#x2228;" 
d="M120 177h16l64 -201h-12l-60 187l-59 -187h-13z" />
    <glyph glyph-name="intersection" unicode="&#x2229;" 
d="M206 76q-2 -71 -78 -74q-76 3 -78 74v92h15v-92q2 -58 63 -59q61 1 63 59v92h15v-92z" />
    <glyph glyph-name="union" unicode="&#x222a;" 
d="M128 158q-62 -2 -63 -58v-93h-15v91q2 72 78 73q76 -1 78 -73v-91h-15v93q-1 56 -63 58z" />
    <glyph glyph-name="integral" unicode="&#x222b;" 
d="M111 209q-1 0 -3 -3q-1 -3 -5 -3q-5 0 -5 5v1q0 4 7 6q26 3 27 -81l3 -86q2 -54 11 -51q2 0 3 3q3 3 6 3t5 -5q-1 -6 -8 -7q-24 2 -26 58l-3 84q-3 80 -12 76z" />
    <glyph glyph-name="product" unicode="&#x220f;" 
d="M227 -18v-6h-198v6q23 0 24 25v160q1 10 -5.5 15t-19.5 4v6h79v-6h-3q-11 0 -17 -5t-5 -14v-177h92v177q0 20 -25 19v6h79v-6h-3q-24 0 -22 -19v-160q0 -25 24 -25z" />
    <glyph glyph-name="summation" unicode="&#x2211;" 
d="M41 -24l89 116l-89 100l6 -1h9h128h3q5 0 9 1l8 2q1 -18 7 -39l4 -16h-6q-10 30 -34 29h-95l75 -87l-70 -92h67q34 -1 37 26l2 3h6l-2 -40h-127q-9 0 -27 -2z" />
    <glyph glyph-name="radical" unicode="&#x221a;" 
d="M0 48l3 9l29 -16l82 154h6l136 -234v-11h-4l-128 218l-77 -146z" />
    <glyph glyph-name="orthogonal" unicode="&#x221f;" 
d="M51 149h161v8h-168v-158h7v150z" />
    <glyph glyph-name="percent" unicode="%" horiz-adv-x="230" 
d="M208 56q-10 -16 -31 -16q-12 0 -23 8q-9 6 -14 20q-5 13 -5 25q0 13 5 26q5 12 14 19q10 8 23 8q12 0 23 -8q9 -8 14 -20q4 -11 4 -25q0 -21 -10 -37zM72 136q-2 3 -7 5v2h29v-2q-5 0 -5 -3l3 -11l54 -128l5 -10q1 -3 5 -9q2 -3 6 -3v-2h-29v2q6 0 6 4q0 3 -1 4t-1 2.5
t-1 2.5l-2 6l-57 131q-3 7 -5 9zM159 64q5 -14 19 -14q13 0 17 12q4 11 4 26q0 20 -4 33q-4 15 -19 15q-10 0 -14 -7q-6 -8 -7 -15q-2 -12 -2 -18q0 -17 6 -32zM83 -13q-10 -16 -31 -16q-13 0 -23 8q-9 6 -14 20q-5 13 -5 25q0 13 5 26q5 12 14 19q8 7 23 7q12 0 22 -8
t14 -19t4 -25q0 -20 -9 -37zM34 -5q5 -15 19 -15q13 0 17 12t4 27q0 16 -5 33q-4 15 -18 15q-10 0 -14 -7q-6 -8 -7 -15q-2 -12 -2 -18q0 -17 6 -32z" />
    <glyph glyph-name="uni22A5" unicode="&#x22a5;" 
d="M204 167v-10h-70v-150h-12v150h-70v10h152z" />
    <glyph glyph-name="perthousand" unicode="&#x2030;" 
d="M146 1l-125 172h11l124 -172h-10zM140 168q30 -2 33 -41q-3 -39 -33 -44q-31 5 -32 44q2 39 32 41zM219 168q30 -1 33 -41q-3 -39 -33 -44q-32 5 -33 44q1 39 33 41zM140 87q19 0 19 40q0 39 -19 39q-18 0 -18 -39q0 -40 18 -40zM219 87q18 0 18 40q0 39 -18 39
q-20 0 -19 -39q-1 -40 19 -40zM37 91q30 -3 33 -43q-3 -38 -33 -43q-32 5 -33 43q2 42 33 43zM37 9q18 0 19 39q-2 41 -19 40q-10 1 -15 -9.5t-4 -30.5q-1 -39 19 -39z" />
    <glyph glyph-name="proportional" unicode="&#x221d;" 
d="M92 134q27 0 43 -35q12 35 45 33q22 0 29 -12q0 -3 -6 -3l-6 1l-10 1q-32 2 -49 -27q17 -44 51 -41q4 0 7 1q5 2 8 0q1 0 3 -5q-5 -7 -30 -7q-30 0 -47 34q-15 -34 -41 -36q-40 3 -42 48q2 48 45 48zM89 54q25 1 37 25l-3 6q-16 34 -38 34q-29 -2 -30 -31q2 -33 34 -34z
" />
    <glyph glyph-name="therefore" unicode="&#x2234;" 
d="M86 156q-1 -13 -15 -15q-14 2 -15 15q1 11 15 13q14 -2 15 -13zM200 156q-2 -13 -15 -15q-14 2 -15 15q1 11 15 13q14 -2 15 -13zM143 58q-2 -13 -15 -14q-13 1 -15 14q2 14 15 15q14 -1 15 -15z" />
    <glyph glyph-name="uni2215" unicode="&#x2215;" 
d="M185 1l-125 189h11l125 -189h-11z" />
    <glyph glyph-name="uni2223" unicode="&#x2223;" 
d="M124 -50v254h8v-254h-8z" />
    <glyph glyph-name="uni2225" unicode="&#x2225;" 
d="M148 -50l-126 248h9l126 -248h-9zM225 -50l-126 248h9l126 -248h-9z" />
    <glyph glyph-name="uni222E" unicode="&#x222e;" 
d="M146 -3q2 0 3 3q3 3 6 3t5 -5q-1 -6 -8 -7q-24 2 -25 58l-2 24q-24 4 -26 30q2 24 24 30v19q-1 57 -12 57q-1 0 -3 -3q-1 -3 -5 -3q-5 0 -5 5v1q0 4 7 6q16 -1 22 -27q3 -14 5 -54v-1q25 -3 28 -30q-1 -24 -25 -30v-25q1 -52 11 -51zM154 103q-1 21 -21 24l1 -48
q19 5 20 24zM105 103q2 -20 20 -24l-2 47q-17 -5 -18 -23z" />
    <glyph glyph-name="uni2235" unicode="&#x2235;" 
d="M143 156q-1 -13 -15 -15q-13 2 -15 15q1 11 15 13q14 -2 15 -13zM86 58q-2 -13 -15 -14q-13 1 -15 14q1 14 15 15q14 -1 15 -15zM200 58q-2 -13 -15 -14q-13 1 -15 14q1 14 15 15q13 -1 15 -15z" />
    <glyph glyph-name="uni2236" unicode="&#x2236;" 
d="M115 130q0 11 13 12q11 -1 13 -12q-2 -11 -13 -12q-13 1 -13 12zM115 47q0 11 13 12q11 -1 13 -12q-2 -11 -13 -12q-13 1 -13 12z" />
    <glyph glyph-name="uni2237" unicode="&#x2237;" 
d="M72 131q1 12 13 13q12 -2 13 -13q-1 -10 -13 -12q-11 1 -13 12zM158 131q1 12 13 13q12 -2 13 -13q-1 -10 -13 -12q-11 1 -13 12zM72 41q1 12 13 13q12 -2 13 -13q-2 -11 -13 -13q-11 1 -13 13zM158 41q1 12 13 13q12 -2 13 -13q-2 -11 -13 -13q-11 1 -13 13z" />
    <glyph glyph-name="uni223D" unicode="&#x223d;" 
d="M175 53q-23 0 -50 29q-26 26 -45 26q-39 0 -40 -55h-10q2 66 52 66q21 0 49 -28q26 -27 44 -27q37 1 40 55h11q-3 -64 -51 -66z" />
    <glyph glyph-name="uni224C" unicode="&#x224c;" 
d="M24 145v11h204v-11h-204zM24 109v11h204v-11h-204zM175 16q-23 0 -50 29q-26 26 -45 26q-39 0 -40 -55h-10q2 65 52 65q21 0 49 -28q26 -26 44 -26q37 1 40 54h11q-3 -64 -51 -65z" />
    <glyph glyph-name="uni2252" unicode="&#x2252;" 
d="M190 143q-2 -12 -16 -14q-12 1 -14 14q2 14 14 15q14 -1 16 -15zM55 92v15h146v-15h-146zM55 40v15h146v-15h-146zM98 6q-2 -13 -15 -14q-13 1 -15 14q0 14 15 14q14 -2 15 -14z" />
    <glyph glyph-name="uni2266" unicode="&#x2266;" 
d="M213 159h-170v9h170v-9zM213 120h-170v11h170v-11zM213 89l-148 -37v-1l148 -37v-12l-170 43v13l170 43v-12z" />
    <glyph glyph-name="uni2267" unicode="&#x2267;" 
d="M213 159h-170v9h170v-9zM213 120h-170v11h170v-11zM213 45l-170 -43v12l148 37v1l-148 37v12l170 -43v-13z" />
    <glyph glyph-name="uni226E" unicode="&#x226e;" 
d="M150 49l63 -25v-12l-57 23l14 -34h-12l-16 40l-99 39v11l66 26l-23 52h12l21 -48l94 38v-12l-90 -36zM136 55l-23 52l-55 -22z" />
    <glyph glyph-name="uni226F" unicode="&#x226f;" 
d="M213 91v-11l-65 -26l22 -53h-12l-20 48l-95 -37v11l90 36l-26 62l-64 25v13l58 -24l-15 34h12l17 -39zM121 116l22 -52l55 21z" />
    <glyph glyph-name="uni2299" unicode="&#x2299;" 
d="M35 77q7 83 93 91q86 -8 93 -91q-9 -84 -93 -93q-85 9 -93 93zM46 77q8 -76 82 -83q74 8 82 83q-7 74 -82 82q-75 -7 -82 -82zM143 77q-1 -13 -15 -15q-13 2 -15 15q2 14 15 15q14 -1 15 -15z" />
    <glyph glyph-name="uni22BF" unicode="&#x22bf;" 
d="M32 185h203v-214zM227 -9v186h-176z" />
    <glyph glyph-name="uniFE62" unicode="&#xfe62;" 
d="M83 111h39v40h12v-40h38v-11h-38v-40h-12v40h-39v11z" />
    <glyph glyph-name="uniFE65" unicode="&#xfe65;" 
d="M180 155l-92 -49l92 -50v-13l-104 57v11l104 57v-13z" />
    <glyph glyph-name="uniFE66" unicode="&#xfe66;" 
d="M76 56l92 50l-92 49v13l104 -57v-11l-104 -57v13z" />
    <glyph glyph-name="uniFF0B" unicode="&#xff0b;" horiz-adv-x="140" 
d="M11 77h52v55h15v-55h52v-15h-52v-54h-15v54h-52v15z" />
    <glyph glyph-name="uniFF1C" unicode="&#xff1c;" horiz-adv-x="140" 
d="M130 17v-17l-119 62v15l119 60v-14l-101 -53z" />
    <glyph glyph-name="uniFF1D" unicode="&#xff1d;" horiz-adv-x="140" 
d="M11 87v15h119v-15h-119zM11 35v15h119v-15h-119z" />
    <glyph glyph-name="uniFF1E" unicode="&#xff1e;" horiz-adv-x="140" 
d="M130 62l-119 -62v17l100 53l-100 53v14l119 -60v-15z" />
    <glyph glyph-name="uniFF5C" unicode="&#xff5c;" 
d="M256 86v-11h-256v11h256z" />
    <glyph glyph-name="uniFF5E" unicode="&#xff5e;" horiz-adv-x="140" 
d="M98 69q-7 0 -22 -7l-4 -2q-18 -9 -29 -9q-20 0 -32 23l9 11q10 -19 22 -19q11 0 27 8l2 1q17 9 27 9q12 -2 19 -7q7 -7 13 -16l-10 -11q-11 21 -22 19z" />
    <glyph glyph-name="arrowup" unicode="&#x2191;" 
d="M178 16q-38 -27 -50 -66q-13 40 -50 66q21 2 46 -19v207h8v-207q16 17 46 19z" />
    <glyph glyph-name="uni2197" unicode="&#x2197;" 
d="M213 84l40 -134l-136 40l72 19l-189 187l5 5l190 -187z" />
    <glyph glyph-name="arrowright" unicode="&#x2192;" 
d="M210 82q-21 24 -20 46q25 -34 66 -51q-40 -14 -66 -49q2 30 20 46h-210v8h210z" />
    <glyph glyph-name="uni2198" unicode="&#x2198;" 
d="M197 142l-192 -192l-5 6l189 189l-72 18l136 38l-40 -134z" />
    <glyph glyph-name="arrowdown" unicode="&#x2193;" 
d="M124 160q-27 -20 -46 -19q37 26 50 63q14 -38 50 -63q-27 0 -46 19v-210h-8v210z" />
    <glyph glyph-name="uni2199" unicode="&#x2199;" 
d="M40 70l-40 131l136 -38l-72 -18l189 -189l-5 -6l-189 189z" />
    <glyph glyph-name="arrowleft" unicode="&#x2190;" 
d="M66 28q-28 35 -66 49q39 17 66 51q-2 -25 -20 -46h210v-8h-210q19 -19 20 -46z" />
    <glyph glyph-name="uni2196" unicode="&#x2196;" 
d="M56 11l192 190l5 -5l-189 -187l72 -19l-136 -40l40 136z" />
    <glyph glyph-name="uni25CF" unicode="&#x25cf;" 
d="M35 77q7 83 93 91q86 -8 93 -91q-9 -84 -93 -93q-85 9 -93 93z" />
    <glyph glyph-name="circle" unicode="&#x25cb;" 
d="M35 77q7 83 93 91q86 -8 93 -91q-9 -84 -93 -93q-85 9 -93 93zM46 77q8 -76 82 -83q74 8 82 83q-7 74 -82 82q-75 -7 -82 -82z" />
    <glyph glyph-name="uni25CE" unicode="&#x25ce;" 
d="M35 77q7 83 93 91q86 -8 93 -91q-9 -84 -93 -93q-85 9 -93 93zM215 77q-7 78 -87 86q-80 -8 -87 -86q8 -79 87 -87q80 8 87 87zM63 76q5 60 65 65q59 -5 65 -65q-6 -58 -65 -64q-61 6 -65 64zM186 76q-5 53 -58 58q-53 -5 -58 -58q4 -51 58 -57q52 6 58 57z" />
    <glyph glyph-name="uni25C6" unicode="&#x25c6;" 
d="M128 -22l-96 96l96 94l96 -94z" />
    <glyph glyph-name="uni25C7" unicode="&#x25c7;" 
d="M128 -22l-96 96l96 94l96 -94zM128 -7l81 81l-81 81l-81 -81z" />
    <glyph glyph-name="filledbox" unicode="&#x25a0;" 
d="M26 -20v202h204v-202h-204z" />
    <glyph glyph-name="uni25A1" unicode="&#x25a1;" 
d="M26 -20v202h204v-202h-204zM219 171h-182v-180h182v180z" />
    <glyph glyph-name="triagup" unicode="&#x25b2;" horiz-adv-x="255" 
d="M222 167v-186l-188 93z" />
    <glyph glyph-name="triagdn" unicode="&#x25bc;" 
d="M35 -16h186l-93 186z" />
    <glyph glyph-name="uni25B3" unicode="&#x25b3;" 
d="M223 167v-186l-188 93zM212 150l-153 -76l153 -76v152z" />
    <glyph glyph-name="uni25BD" unicode="&#x25bd;" 
d="M221 -16h-186l93 186zM128 147l-76 -153h152z" />
    <glyph glyph-name="uni25E5" unicode="&#x25e5;" 
d="M237 172v-212h-205z" />
    <glyph glyph-name="uni25E2" unicode="&#x25e2;" 
d="M32 185h203v-214z" />
    <glyph glyph-name="uni25E3" unicode="&#x25e3;" 
d="M16 -26v211h205z" />
    <glyph glyph-name="uni25E4" unicode="&#x25e4;" 
d="M227 -37h-214v205z" />
    <glyph glyph-name="uni2609" unicode="&#x2609;" 
d="M35 77q7 83 93 91q86 -8 93 -91q-9 -84 -93 -93q-85 9 -93 93zM46 77q8 -76 82 -83q74 8 82 83q-7 74 -82 82q-75 -7 -82 -82zM143 77q-1 -13 -15 -15q-13 2 -15 15q2 14 15 15q14 -1 15 -15z" />
    <glyph glyph-name="uni2605" unicode="&#x2605;" horiz-adv-x="260" 
d="M107 175l44 -58l67 21l-39 -58l39 -58l-67 21l-44 -58v71l-70 24l70 24v71z" />
    <glyph glyph-name="uni2606" unicode="&#x2606;" horiz-adv-x="260" 
d="M107 175l44 -57l67 20l-40 -58l40 -58l-67 21l-44 -58v71l-70 24l70 24v71zM148 109l-34 45v-56l-55 -17v-1l55 -17v-57l34 46l54 -18l1 1l-33 45l34 45l-1 1z" />
    <glyph glyph-name="female" unicode="&#x2640;" 
d="M122 178h12v-29h38v-12h-38v-42q46 -9 51 -56q-6 -51 -57 -57q-52 6 -57 57q3 47 51 56v42h-38v12h38v29zM128 -6q41 4 45 45q-4 42 -45 45q-42 -3 -45 -45q3 -40 45 -45z" />
    <glyph glyph-name="male" unicode="&#x2642;" 
d="M122 6v60q-48 11 -51 56q5 51 57 55q52 -4 57 -55q-5 -47 -51 -56v-61q17 17 39 26l2 -6l-6 -3q-31 -23 -38 -39h-5q-12 20 -45 43l3 5q23 -12 38 -25zM128 77q41 5 45 45q-4 43 -45 46q-42 -3 -45 -46q3 -40 45 -45z" />
    <glyph glyph-name="at" unicode="@" horiz-adv-x="199" 
d="M153 117q-10 8 -24 13q-15 5 -26 5q-16 0 -30 -6q-14 -4 -26 -16q-10 -12 -15 -26q-5 -15 -5 -29q0 -22 10 -39q12 -19 28 -28q16 -10 38 -10q12 0 25 5q8 3 22 13q8 8 15 20q5 13 5 25q0 7 -2 17q-1 8 -6 16q-6 10 -10 14q-14 12 -25 12q-5 0 -5 -5q0 -3 5 -23l23 -64
h-20l-3 11q-1 -6 -9 -11q-7 -3 -15 -3q-12 0 -23 6q-8 5 -17 17q-5 7 -11 23q-4 11 -4 23q0 9 4 16q4 9 10 13q7 5 15 5t15 -4q8 -4 13 -10q1 6 7 10q5 4 12 4q13 0 24 -7q11 -6 18 -16q15 -19 15 -43q0 -17 -6 -31q-5 -11 -17 -23q-9 -8 -25 -15q-17 -5 -31 -5q-19 0 -33 7
q-16 7 -28 19t-18 28q-7 15 -7 34q0 25 12 44q11 20 31 31q20 12 43 12q17 0 33 -6q14 -6 27 -17q11 -11 17 -26h-10q-7 13 -16 20zM80 104q-6 0 -10 -4t-4 -11q0 -11 6 -29q5 -19 15 -32q9 -14 21 -14q5 0 10 5q4 4 4 12l-2 8l-12 34q-10 31 -28 31z" />
    <glyph glyph-name="ampersand" unicode="&#x26;" horiz-adv-x="225" 
d="M205 141q-7 -2 -9 -4l-7 -9q-13 -25 -33 -42q1 -3 1 -13q0 -14 -6 -28q12 6 22 6q11 0 19 -4q9 -5 13 -12q5 -8 5 -16q0 -9 -5 -17q-6 -6 -16 -6q-8 0 -12 4q-6 5 -10 11q8 -5 12 -5q5 0 8 3q2 4 2 7q0 8 -7 12t-15 4q-21 0 -46 -16q3 -4 3 -11q0 -11 -6 -18
q-6 -8 -15 -12t-20 -4q-12 0 -21 4q-11 5 -17 12q-7 7 -7 20q0 20 20 32q-13 3 -23 10q-12 9 -16 18q-6 11 -6 24q0 16 9 29t25 19q14 7 31 7q15 0 27 -4q13 -4 24 -12q8 -6 17 -20q11 13 11 20q0 9 -11 11v2h59v-2zM123 117q-6 6 -18 11q-9 4 -20 4q-13 0 -23 -6t-15 -17
q-6 -10 -6 -23t6 -24q7 -10 18 -17l9 6l58 46l4 4q-3 6 -13 16zM120 18q13 8 18 20q6 14 6 29v8l-52 -40q21 -5 28 -17zM99 19q-4 5 -14 11q-6 -4 -16 -14q-7 -7 -7 -16t6 -13q5 -4 14 -4t17 5q6 6 6 16q0 8 -6 15z" />
    <glyph glyph-name="section" unicode="&#xa7;" horiz-adv-x="253" 
d="M166 72q10 -9 10 -27q0 -19 -13 -26q-9 -5 -36 -23q-23 -14 -22 -30q0 -15 11 -20q9 -4 23 -2q11 3 11 10q0 9 -1 12q-2 6 -2 7q0 3 3 6q2 3 7 3q4 0 7 -4q2 -4 2 -12t-9 -17q-12 -9 -18 -10h-6q-9 0 -14 1q-10 1 -21 11q-10 9 -10 25q0 17 18 32q-26 18 -27 37v3
q0 17 13 25l37 25q21 15 21 27q0 17 -12 22q-6 3 -15 3q-18 0 -18 -10q0 -7 3 -12q2 -4 2 -7q0 -2 -2 -6q-3 -3 -7 -3q-5 0 -8 5q-5 5 -3 14q0 10 10 17q11 8 26 8t28 -10q13 -9 13 -28q0 -17 -18 -31q5 -3 17 -15zM129.5 23q8.5 5 14.5 9q16 10 16 21t-4 16q-4 6 -13 14
l-31 -21q-18 -10 -18 -23q0 -11 5 -16l13 -11q9 6 17.5 11z" />
    <glyph glyph-name="uni2105" unicode="&#x2105;" 
d="M179 -16l-114 196h8l115 -196h-9zM178 171q41 -3 49 -56q-1 -31 -28 -32q-51 8 -54 56q2 29 33 32zM201 89q19 2 20 25q-7 49 -41 53q-17 0 -17 -21q14 -56 38 -57zM66 78q-20 0 -20 -21q8 -53 35 -57q14 2 16 7q0 2 -3 3q-8 5 -8 12q0 8 11 8q12 0 13 -13
q-2 -21 -31 -23q-44 6 -50 51q1 39 34 40q26 -2 42 -34h-6q-12 26 -33 27z" />
    <glyph glyph-name="degree" unicode="&#xb0;" 
d="M12 18q3 35 39 38q33 -3 38 -38q-4 -34 -38 -38q-36 5 -39 38zM79 18q-3 27 -28 28q-26 -2 -28 -28q1 -25 28 -28q25 3 28 28z" />
    <glyph glyph-name="bar" unicode="|" horiz-adv-x="153" 
d="M84 143v-168h-15v168h15z" />
    <glyph glyph-name="uni2116" unicode="&#x2116;" 
d="M153 25q0 -12 18 -11v-5h-45v5h3q18 0 16 18v101l-92 -124h-30v5q10 0 16 6v124q0 18 -16 17v5h45v-5l-6 1q-17 0 -14 -23v-108l100 137h5v-141v-2zM223 166v-12h-54v12h54zM198 133q32 -3 35 -50q-3 -45 -36 -50q-34 5 -36 51q3 46 37 49zM195 39q23 5 26 50
q-2 35 -21 38q-25 -3 -26 -52q2 -31 21 -36z" />
    <glyph glyph-name="asciicircum" unicode="^" horiz-adv-x="153" 
d="M29 63h15l32 -71l33 71h14l-40 -88h-13z" />
    <glyph glyph-name="minute" unicode="&#x2032;" 
d="M53 12l6 -16q0 -9 -10 -10q-10 0 -12 12l-12 61h5l23 -46v-1z" />
    <glyph glyph-name="second" unicode="&#x2033;" 
d="M34 10q6 -9 6 -14q-1 -9 -11 -10q-10 1 -12 12l-12 61h6l22 -46q0 -2 1 -3zM74 12q6 -10 6 -16q-1 -9 -10 -10q-10 0 -12 12l-12 61h5l23 -46v-1z" />
    <glyph glyph-name="uni2103" unicode="&#x2103;" horiz-adv-x="273" 
d="M216 23q-2 2 -4 2l-9 -2q-10 -5 -37 -7q-73 4 -78 73q0 30 23 51q18 15 53 17q11 0 28 -3l21 -2q10 -16 14 -32h-5q-18 32 -52 32q-57 -5 -62 -68q3 -59 59 -62q37 1 49 33h5l-2 -32h-3zM29 38q3 30 33 33q29 -3 32 -33q-3 -28 -32 -33q-30 5 -33 33zM86 38q-3 23 -24 24
q-22 -1 -24 -24q2 -22 24 -23q21 1 24 23z" />
    <glyph glyph-name="uni2109" unicode="&#x2109;" 
d="M138 162v-78q36 -3 36 29h6v-63h-6q-1 32 -36 27v-74h33q22 0 30 8q6 4 14 31h5l-2 -45h-125v6h20v159h-20v6h67v-6h-22zM86 -2q-3 -22 -25 -25q-23 2 -25 25q2 23 25 25q22 -1 25 -25zM78 -2q-1 15 -17 17q-16 -1 -17 -17q2 -16 17 -17q15 2 17 17z" />
    <glyph glyph-name="uni2121" unicode="&#x2121;" 
d="M78 -22h9q4 2 5 8h3l-1 -12h-49l-1 12h2q1 -7 8 -7h7q5 1 3 3v39v1q0 2 -8 4v3h26v-3q-9 0 -9 -5v-39q-1 -4 5 -4zM145 -13h2l-1 -13h-44v4q9 0 7 3v39v2q0 2 -2 3.5t-5 0.5v3h46l4 -14l-3 -1q-4 12 -11 11h-14q-7 1 -6 -5v-18h18q3 3 4 8h3v-20h-3q-1 4 -2 6.5t-2 1.5
h-18v-20h19q4 0 8 9zM174 -19q0 -3 8 -3v-4h-25v4q9 0 8 4v38v1q0 5 -8 5v3h47l6 -16h-3q-9 13 -13 12h-10q-11 2 -10 -5v-38v-1z" />
    <glyph glyph-name="uni2312" unicode="&#x2312;" 
d="M127 38q-70 2 -105 72l1 2q2 0 13 -11q37 -42 88 -45h7q49 3 88 45q11 11 14 11l1 -2q-34 -72 -107 -72z" />
    <glyph glyph-name="uni3012" unicode="&#x3012;" 
d="M240 54h-101v136h-22v-136h-102v-22h225v22zM240 -4h-225v-22h225v22z" />
    <glyph glyph-name="uni3013" unicode="&#x3013;" 
d="M201 134v-40h-146v40h146zM201 51v-40h-146v40h146z" />
    <glyph glyph-name="uniFF3E" unicode="&#xff3e;" horiz-adv-x="71" 
d="M6 18l30 -27l30 27h8l-31 -43h-14l-30 43h7z" />
    <glyph glyph-name="uniFF40" unicode="&#xff40;" horiz-adv-x="71" 
d="M7 -25q-7 0 -7 9q0 7 12 13l34 21h9l-39 -37q-5 -6 -9 -6z" />
    <glyph glyph-name="uni338E" unicode="&#x338e;" 
d="M153 197q2 23 40 24q40 -3 43 -37v-21h6v-3h-6v-101h13v-5h-3q-10 1 -17 0l-11 -3v21h-1q-9 -19 -30 -21q-42 6 -43 55q3 48 42 53q19 0 30 -17h1v19q-63 8 -64 36zM191 216q-33 -1 -33 -19q3 -27 59 -32v19q-1 31 -26 32zM111 48q-18 0 -29 24q-3 -24 -24 -24
q-14 0 -25 25h-1v-25q-11 3 -23 3h-3v6h10v105h-9v6h37v-6h-11v-64q1 -37 23 -42q9 1 11 18v88h-11v6h38v-6h-11v-70q5 -32 22 -36q11 1 12 18l1 88h-12v6h38v-6h-11v-84q-2 -29 -22 -30zM218 117q-2 35 -31 35q-22 0 -21 -45q-1 -51 23 -51q12 0 19 9q11 13 10 37v15z" />
    <glyph glyph-name="uni338F" unicode="&#x338f;" 
d="M140 197q2 22 39 24q40 -3 43 -37v-21h7v-3h-7v-101h14v-5h-3q-3 1 -10 1q-5 0 -8 -1l-11 -3v21q-9 -20 -31 -21q-42 7 -43 55q4 49 43 53q19 0 30 -17h1v19q-63 8 -64 36zM178 216q-33 -1 -33 -19q3 -27 59 -32v19q-1 31 -26 32zM46 162v-173q-15 3 -29 2h-4v6h13v165
h-13v6h48v-6h-15zM89 162h-13v6h49v-6h-11l-49 -66l36 -37h15v-6h-42v6h15l-43 44zM204 110q-2 5 0 7q-2 35 -30 35q-22 0 -21 -45q-1 -51 23 -51q12 0 19 9q11 13 10 37q0 5 -1 8z" />
    <glyph glyph-name="uni339C" unicode="&#x339c;" 
d="M97 50q-16 0 -26 28q-1 -13 -7 -20.5t-14 -7.5q-14 0 -23 28h-1v-28q-8 5 -21 3h-2v7h9v101h-9v7h34v-7h-11v-54q2 -43 21 -48q9 1 10 20v82h-10v7h34v-7h-10v-60q4 -36 21 -42q9 1 11 20v82h-11v7h34v-7h-9v-77q-2 -33 -20 -34zM224 50q-16 0 -26 28q-1 -13 -7 -20.5
t-14 -7.5q-13 0 -24 28v-28q-7 5 -21 3h-3v7h10v101h-10v7h34v-7h-10v-54q2 -43 21 -48q8 1 10 20v82h-10v7h34v-7h-10v-60q3 -37 21 -42q9 1 10 20v82h-10v7h34v-7h-10v-77q-2 -33 -19 -34z" />
    <glyph glyph-name="uni339D" unicode="&#x339d;" 
d="M70 162q-20 -2 -25 -16q-1 0 -1 -1q-4 -17 -4 -39q0 -52 29 -52q10 0 16.5 3t7.5 8q0 2 -3 3q-6 6 -6 13q0 13 13 13q10 0 11 -15q-1 -27 -40 -30q-50 8 -51 62q5 56 51 57q32 0 43 -39h-5q-11 33 -36 33zM211 52q-15 0 -26 26q-3 -26 -22 -26q-14 0 -23 27v-27
q-8 3 -21 2h-3v7h9v100h-9v6h34v-6h-10v-54q2 -43 21 -47q8 1 10 20v81h-10v6h34v-6h-10v-60q3 -37 21 -41q8 1 10 20v81h-10v6h34v-6h-10v-76q-2 -32 -19 -33z" />
    <glyph glyph-name="uni339E" unicode="&#x339e;" 
d="M35 161v-192q-13 3 -29 3h-4v6h13v183h-13v7h48v-7h-15zM78 161h-13v7h48v-7h-10l-49 -65l35 -34h16v-7h-42v7h15l-43 41zM222 52q-18 1 -28 26q-4 -26 -24 -26q-14 0 -25 27h-1v-27l-15 3h-7h-3v6h10v100h-10v7h37v-7h-12v-54q2 -42 23 -47q9 1 11 20v81h-11v7h38v-7
h-11v-60q5 -37 23 -41q9 1 11 20v81h-11v7h37v-7h-10v-76q-2 -32 -22 -33z" />
    <glyph glyph-name="uni33A1" unicode="&#x33a1;" 
d="M163 48q-21 0 -35 24h-1q-3 -24 -29 -24q-21 0 -33 24v-24q-15 3 -29 2h-4v6h13v106h-13v6h47v-6h-14v-65q5 -38 28 -42q14 2 15 18v89h-14v6h47v-6h-13v-70q5 -32 28 -37q14 2 15 18v89h-15v6h48v-6h-13v-84q-2 -29 -28 -30zM218 25q-1 9 -9 7h-26q5 -7 21 -17
q19 -12 19 -25q-2 -17 -26 -19q-24 2 -26 19q0 11 9 11q7 0 7 -6q0 -3 -5 -5q-3 -2 -3 -4q2 -8 16 -9q13 2 15 12q0 12 -18 27l-1 1l-21 19l-1 2v3h25h3h25l2 -21h-5z" />
    <glyph glyph-name="uni33C4" unicode="&#x33c4;" 
d="M84 163q-20 -1 -25 -16q-6 -15 -6 -40q0 -54 31 -53q20 3 22 11q0 3 -3 4q-5 5 -5 12q0 14 12 14q10 0 11 -16q-1 -27 -40 -30q-50 8 -51 63q4 55 52 56q31 0 42 -38h-5q-12 33 -35 33zM186 163q-20 -1 -25 -16q-6 -15 -6 -40q0 -54 31 -53q20 3 22 11q0 3 -3 4
q-5 5 -5 12q0 14 12 14q10 0 11 -16q-1 -27 -40 -30q-50 7 -51 63q4 55 52 56q31 0 42 -38h-5q-12 33 -35 33z" />
    <glyph glyph-name="uni33CE" unicode="&#x33ce;" 
d="M36 -6h13v-6h-44v6h14v168h-14v6h44v-6h-13v-168zM37 74l45 88h-14v6h44v-6h-8l-53 -101l40 -67h13v-6h-35v6h16l-46 75zM114 162v6h36v-6h-15v-165l37 170h5l39 -170v165h-15v6h50v-6h-15v-168h15v-6h-40l-29 132l-28 -132h-40v6h15v168h-15z" />
    <glyph glyph-name="uni33D1" unicode="&#x33d1;" 
d="M47 100l-1 6v7q0 53 35 55q20 0 34 -36l-7 -3q-1 1 -1 2.5t-1 2.5q-11 27 -24 27q-17 2 -15 -32q0 -19 4 -42q57 -47 62 -86q-1 -21 -22 -22q-46 7 -64 112q-14 7 -25 19l6 5q7 -8 19 -15zM119 168h48v-6h-14l1 -60q6 -39 30 -43h2q16 0 14 21v82h-13v6h47v-6h-14v-86
q-1 -23 -30 -25q-25 0 -36 27v-27q-10 2 -15 2h-14h-5v6h14v103h-15v6zM113 -15q11 1 13 15q-7 39 -53 75q9 -86 40 -90z" />
    <glyph glyph-name="uni33D2" unicode="&#x33d2;" 
d="M257 59v-5h-3q-9 1 -16 0l-9 -3v19q-6 -17 -27 -19q-36 7 -37 55q3 49 37 53q19 0 26 -16l1 -1v19q-54 7 -56 36q2 23 35 24q36 -3 37 -37v-20h6v-4h-6v-101h12zM229 166v16q-2 32 -22 33q-26 -2 -27 -17q2 -29 49 -32zM93 4q0 -21 -19 -22q-39 7 -53 112q-13 8 -21 19
l5 5q6 -9 16 -16q-2 10 -1 14q0 52 30 53q17 0 28 -35l-6 -2l-2 4q-9 28 -19 28q-15 2 -13 -32q0 -23 3 -43q48 -45 52 -85zM161 111q-5 -54 -40 -60q-39 5 -40 60q1 55 40 58q37 -3 40 -58zM142 111q2 56 -21 54q-22 2 -21 -54q-1 -55 21 -54q23 -1 21 54zM230 102
q0 4 -1 7q-1 5 0 6q-1 33 -24 36q-22 1 -20 -44q-1 -49 20 -49q9 1 16 10q11 11 9 34zM87 3q-8 39 -45 76q11 -89 35 -91q8 1 10 15z" />
    <glyph glyph-name="uni33D5" unicode="&#x33d5;" 
d="M179 162v-106q-14 3 -25 3h-8v6h16v97h-16v6h47v-6h-14zM234 161v-187q-13 3 -25 3h-10v6h17v178h-17v7h53v-7h-18zM110 55q-17 0 -29 25q-3 -24 -24 -24q-15 0 -26 25h-1v-26q-12 3 -22 2h-4v7h11v97h-11v6h38v-6h-12v-53q2 -40 24 -45q10 1 11 19v79h-11v6h38v-6h-11
v-59q5 -35 23 -39q10 0 11 19v79h-11v6h38v-6h-11v-74q-2 -31 -21 -32zM170 10q11 -2 12 -13q-1 -10 -12 -13q-9 1 -11 13q0 13 11 13z" />
    <glyph glyph-name="dieresis" unicode="&#xa8;" 
d="M92 0q1 10 11 11q10 -1 11 -11q-1 -10 -11 -11q-10 1 -11 11zM142 0q1 10 11 11q10 -1 11 -11q-1 -10 -11 -11q-10 1 -11 11z" />
    <glyph glyph-name="grave" unicode="`" horiz-adv-x="81" 
d="M44 -29l-7 -8q-4 -3 -8 -3q-5 0 -9 4t-4 9q0 6 4 9l12 7l26 12l4 -5z" />
    <glyph glyph-name="uni180B" unicode="&#x180b;" horiz-adv-x="0" 
 />
    <glyph glyph-name="uni180C" unicode="&#x180c;" horiz-adv-x="0" 
 />
    <glyph glyph-name="uni180D" unicode="&#x180d;" horiz-adv-x="0" 
 />
    <glyph glyph-name="g96" horiz-adv-x="105" 
 />
    <glyph glyph-name="g162" horiz-adv-x="0" 
 />
    <glyph glyph-name="g248" horiz-adv-x="39" 
 />
    <glyph glyph-name="g499" horiz-adv-x="147" 
d="M55 109q0 -2 1 -2q0 -8 -5 -18l-5 -10q0 -7 5 -12q4 -4 12 -4q7 0 38 19q38 21 44 23q2 0 2 -2l-1 -2q-24 -19 -31 -26l-22 -24q-14 -14 -18 -14h-4q-11 0 -18 8q-4 6 -15 27q-1 1 -4 0q-20 -11 -34 -12v16q24 3 52 31q2 2 3 2z" />
    <glyph glyph-name="g505" horiz-adv-x="120" 
d="M119 62q2 0 -8 -3h-16l-8 -2q-9 -2 -11 -4q-8 0 -9 4l-3 6q-2 4 -2 11q-4 0 -6 -2q-3 -3 -5 -7l-4 -6q-4 -7 -11 -7q-6 0 -15 6l-11 9l-9 7q-1 1 -1 7l2 3l8 -5q8 -3 10 -3l5 -1h4q8 2 17 9l52 47q6 2 7 2q3 0 3 -2q-1 -7 -21 -27q-21 -20 -20 -25q3 -5 19 -5h18
q11 0 18 3v-16q-1 1 -3 1z" />
    <glyph glyph-name="g552" horiz-adv-x="197" 
d="M159 79q16 4 26 19q5 8 9 12q2 0 3 -3v-4q0 -8 -8 -29q-9 -18 -18 -17l-30 3l-65 3q-23 0 -40 -3q-7 -7 -12 -7q-2 0 -5 4l-1 6l2 12q-3 0 -8 -5l-12 -10v16q36 34 53 53q18 20 52 50q6 2 12 2q13 0 21 -6q2 -4 2 -8q0 -7 -10 -18q-11 -12 -12 -12l-2 2q-3 3 -4 11
q-1 3 -1 8q-2 5 -3 5h-2l-45 -41l-29 -33q-5 -5 -5 -7q0 -3 4 -8h26q17 0 69 2q26 2 33 3z" />
    <glyph glyph-name="g554" horiz-adv-x="151" 
d="M105 179q6 2 12 2q13 0 21 -6q2 -4 2 -8q0 -7 -10 -18q-11 -12 -12 -12t-3 2q-1 1 -3 11q-1 3 -1 9q-2 5 -3 5h-2l-45 -42l-29 -33q-5 -5 -5 -7q0 -4 4 -8h26l95 2v-16l-76 3q-23 0 -40 -3q-7 -7 -10 -7q-2 0 -5 3l-1 6q0 4 2 14q-3 0 -22 -16v16l52 52q28 29 53 51z" />
    <glyph glyph-name="uniFE53" unicode="&#xfe53;" 
d="M20 159q0 9 13 10q12 -1 13 -10q-2 -11 -13 -12q-13 1 -13 12z" />
    <glyph glyph-name="uniFE67" unicode="&#xfe67;" 
d="M99 120v17h58v-17h-58zM99 76v17h58v-17h-58z" />
    <glyph glyph-name="uniFEFE" unicode="&#xfefe;" 
d="M114 162q-9 -4 -13 -16q-5 -11 -9 -11q-7 1 -7 8q1 19 29 25h10v21h8v-21h8q31 -7 31 -38q0 -18 -31 -39l-8 -5v-52q0 1 1 1l7 3q3 3 5.5 6.5l4.5 6.5q4 7 9 7t7 -8q-2 -11 -26 -20l-8 -1v-19h-8v19h-4q-31 7 -31 33q0 18 25 34l10 6v63q-5 0 -10 -3zM140 112
q19 13 18 26q0 19 -18 26q-7 2 -8 1v-58q4 4 8 5zM101 54q0 -15 19 -20h4v46l-10 -6q-13 -8 -13 -20z" />
    <glyph glyph-name="uniFF00" unicode="&#xff00;" 
d="M148 58h-1q-1 -14 -13 -16q-35 15 -43 80q2 27 15 27q14 0 30 -33v1q-2 11 -1 16q0 16 11 16q39 -5 43 -81q-3 -74 -55 -78q-28 1 -47 25q-27 35 -27 87q0 43 20 71q18 26 48 28q50 -5 67 -68h-4q-20 59 -62 61q-58 -6 -61 -89q6 -103 66 -110q45 4 50 71q-4 64 -32 74
h-1q-5 0 -5 -10t2 -17l14 -70l-12 2zM145 64q-4 57 -33 71q-9 -1 -9 -16q8 -59 32 -71q9 1 10 16z" />
    <glyph glyph-name="uniE235" unicode="&#xe235;" horiz-adv-x="406" 
d="M85 79q5 5 10 5q6 0 11 -5q4 -4 4 -11t-4 -11t-11 -4q-6 0 -10 4q-5 5 -5 11t5 11zM184 79q5 5 10 5q6 0 11 -5q4 -4 4 -11t-4 -11t-11 -4q-6 0 -10 4q-5 5 -5 11t5 11zM283 79q5 5 10 5q6 0 11 -5q4 -4 4 -11t-4 -11t-11 -4q-6 0 -10 4q-5 5 -5 11t5 11zM381 79
q5 5 11 5t11 -5q4 -4 4 -11t-4 -11t-11 -4t-11 4t-4 11t4 11z" />
    <glyph glyph-name="uniE236" unicode="&#xe236;" horiz-adv-x="265" 
d="M82 91v3l-1 4h3l8 -4l6 -6l6 -10l1 -9l-2 -11l-5 -6l-7 -8l-9 -5l-2 1l4 14l1 15l-1 15z" />
    <glyph glyph-name="uniE237" unicode="&#xe237;" horiz-adv-x="267" 
d="M82 91v3l-1 4h3l8 -4l6 -6l6 -10l1 -9l-2 -11l-5 -6l-7 -8l-9 -5l-2 1l4 14l1 15l-1 15zM127 91v3l-1 4h3l9 -5l5 -7l5 -9l2 -9l-2 -11l-4 -7l-8 -7l-9 -4l-2 1l4 14l1 15v15z" />
    <glyph glyph-name="uniE238" unicode="&#xe238;" horiz-adv-x="106" 
d="M84 107q3 4 9 4q5 0 9 -4t4 -9q0 -6 -4 -10t-9 -4q-6 0 -9 4q-4 4 -4 10q0 5 4 9zM84 49q3 4 9 4q5 0 9 -4t4 -10q0 -5 -4 -9t-9 -4q-6 0 -9 4q-4 4 -4 9q0 6 4 10z" />
    <glyph glyph-name="uniE239" unicode="&#xe239;" horiz-adv-x="161" 
d="M121 142l14 -28l-14 -28l-14 28zM94 96l14 -28l-14 -28l-14 28zM147 95l14 -27l-14 -28l-14 28zM121 49l15 -28l-15 -27l-14 27z" />
    <glyph glyph-name="uniE23A" unicode="&#xe23a;" horiz-adv-x="142" 
d="M142 56h-62v24h62v-24z" />
    <glyph glyph-name="uniE23B" unicode="&#xe23b;" horiz-adv-x="139" 
d="M108 80l5 34q2 2 3 2q2 0 3 -3l5 -33h16v-24h-60v24h28z" />
    <glyph glyph-name="uniE23C" unicode="&#xe23c;" horiz-adv-x="29" 
d="M12 54q-1 13 -10 25l-1 4q27 -9 29 -29q-1 -19 -29 -28l-1 2q10 12 12 26z" />
    <glyph glyph-name="uniE23D" unicode="&#xe23d;" horiz-adv-x="73" 
d="M12 55q-1 13 -10 25l-1 4q27 -9 29 -29q-1 -19 -29 -28l-1 2q10 12 12 26zM56 55q-1 12 -10 24l-1 4q28 -9 29 -28q-2 -20 -29 -29l-1 2q11 12 12 27z" />
    <glyph glyph-name="uniE23E" unicode="&#xe23e;" horiz-adv-x="40" 
d="M0 60h40v16h-40v-16z" />
    <glyph glyph-name="uniE23F" unicode="&#xe23f;" horiz-adv-x="106" 
d="M37 13q-13 0 -23 8q-11 10 -13 28v3q0 6 5 16q3 8 14 13q6 -1 6 -4q0 -4 -7 -11q-2 -1 -4 -11l3 -13q6 -7 15 -9q11 0 18 12q1 2 1 7q0 9 -4 20t-15 28q-17 25 -26 45q-2 8 -2 13q2 9 6 9q2 0 7 -5v-11l11 -18l10 -16l22 -42q6 -13 6 -22v-4q0 -33 -30 -36zM66 5q0 2 8 5
q21 13 19 39v4q0 14 -10 27q-6 3 -6 6t3 3q7 0 11 -4q14 -13 16 -36q0 -33 -23 -44l-6 -1q-12 -1 -12 0v1z" />
    <glyph glyph-name="uniE240" unicode="&#xe240;" horiz-adv-x="151" 
d="M153 59q0 -15 -7 -23q-10 -16 -33 -15q-10 2 -14 5q-10 4 -13 14q0 6 4 6t8 -4q6 -7 14 -7q7 0 13 3q10 4 10 16q0 4 -2 10q-7 10 -19 9q-7 0 -19 -5q-20 -8 -40 -12l-34 -6l-12 -3q-9 2 -9 6t5 7l48 9q29 8 37 13q12 5 28 7q12 -2 17 -5q17 -9 18 -25z" />
    <glyph glyph-name="uniE241" unicode="&#xe241;" horiz-adv-x="105" 
d="M56 60q-4 -4 -7 -4l6 -10l4 -11q5 -13 5 -19v-4q0 -7 -1 -10q-2 -6 -3 -7q-6 -13 -23 -15q-13 0 -20 7q-11 11 -12 25q-1 1 -1 4q0 2 2 10q1 5 4 8l8 4l4 3q5 -2 5 -4t-3 -7l-3 -3q-3 -1 -3 -10q0 -5 2 -11q6 -8 14 -8q2 0 3 1q9 0 13 9q1 2 1 7t-5 17l-3 9l-6 11h-4
q-10 0 -16 6q-10 10 -12 25q-1 1 -1 4t2 11q1 4 4 7q0 1 8 4l4 3q5 -2 5 -4t-3 -7l-3 -3q-3 -1 -3 -10q0 -4 2 -10q6 -8 14 -8h3q9 0 13 9q1 2 1 7t-5 17l-3 10q-11 18 -16 25q-17 33 -17 32q-2 6 -2 10q1 7 6 7q3 0 6 -4l3 -11l16 -28l16 -27q1 0 4 -11q5 -13 5 -19v-4
q0 -6 -1 -10l-3 -6zM90 38q3 -5 5 -22v-5q0 -20 -14 -32l-6 -2q-4 0 -4 4q0 5 3 7q8 8 8 23v5q-2 18 -9 28l-1 4q-1 0 -1 0.5v0.5v1v0v1q0 1 2 7q9 6 9 21v6q-2 18 -10 29q-1 2 -1 5q0 4 3 4l6 -2q9 -13 10 -15q2 -6 4 -21q1 -1 1 -5q0 -18 -13 -30q7 -8 8 -12z" />
    <glyph glyph-name="uniE242" unicode="&#xe242;" horiz-adv-x="112" 
d="M52 42l9 -17l5 -17v-4q0 -15 -10 -23q-7 -6 -17 -6h-4q-10 0 -18 7q-11 9 -12 25q2 11 12 21q1 1 5 1q3 2 3 -2q-7 -10 -7 -17q0 -4 3 -9q8 -9 13 -8h2q9 0 14 10q2 6 2 9t-5 18l-6 9h-3q-11 0 -21 8q-10 6 -13 25q0 6 5 14q4 5 12 7q5 0 5 -3q0 -2 -3 -7q-4 -4 -4 -11
q2 -19 17 -17h3q8 0 12 9q2 6 2 9q0 5 -4 15l-5 11h-5q-13 0 -22 7q-9 8 -11 19q0 9 2 15q5 11 12 11q4 0 4 -4l-2 -6l-3 -9q0 -3 2 -7q4 -10 13 -10h3q12 0 13 13q1 2 1 5q0 8 -6 15l-6 8q-6 12 -9 25q-5 11 -3 17q0 6 4 6q5 0 8 -9l4 -13q4 -14 7 -20q12 -19 15 -33v-5
q0 -7 -3 -12q-1 -5 -9 -10q8 -13 10 -18q4 -12 4 -17q0 -3 -2 -9q-3 -12 -13 -16zM86 102q5 -1 10 -10q8 -11 6 -20q1 -25 -18 -35h-1q7 -7 9 -7q11 -15 9 -29q0 -22 -18 -29l-6 -2q-3 0 -2 3q0 4 4 5q11 8 9 27q-2 11 -10 25q-3 5 -3 8h1l4 5q11 9 9 29q0 10 -9 25l-3 4
q-2 0 -1 3v1q1 3 5 5q10 9 9 28q-2 11 -10 26l-3 6q0 1 2 1l6 -2q17 -12 18 -31v-5q0 -19 -17 -31z" />
    <glyph glyph-name="uniE243" unicode="&#xe243;" horiz-adv-x="75" 
d="M26 63q5 5 10 5t10 -5q4 -4 4 -10q0 -5 -4 -9t-10 -4t-10 4t-4 9q0 6 4 10z" />
    <glyph glyph-name="uniE24E" unicode="&#xe24e;" horiz-adv-x="250" 
d="M138 118l-3 -4l-6 6q-7 5 -14 5q-6 0 -12 -2q-8 -8 -8 -18q0 -21 22 -21q14 0 21 12l4 8q5 9 12 9l44 -1q6 -1 6 -5t-7 -5l-39 -4q-5 -2 -7 -5q-5 -7 -5 -8q-4 -7 -13 -13q-11 -5 -20 -4q-16 2 -23 11q-9 11 -9 26q0 22 14 31q10 5 18 5h6q14 -3 18 -16q1 -2 1 -7z
M230 114q3 4 8 4t9 -4q3 -4 3 -8q0 -5 -3 -10q-4 -3 -9 -3t-8 3q-4 4 -4 10q0 4 4 8zM84 -1q-3 5 -3 10q0 12 8 15q1 1 25 -1.5t47 -4.5l36 -4q7 -1 7 -5t-7 -5l-60 -5q-39 -4 -48 -4q-4 0 -5 4zM230 18q3 4 8 4t9 -4q3 -4 3 -9q0 -4 -3 -9q-4 -3 -9 -3t-8 3q-4 4 -4 9t4 9z
" />
    <glyph glyph-name="uniE24F" unicode="&#xe24f;" horiz-adv-x="251" 
d="M203 105q0 -4 -7 -5l-60 -5q-39 -4 -48 -4q-4 0 -5 4q-3 5 -3 10q0 12 8 15q1 1 25 -1.5t47 -4.5l36 -4q7 -1 7 -5zM229 96q-4 4 -4 9t4 9q3 4 8 4t9 -4q3 -4 3 -9q0 -4 -3 -9q-4 -3 -9 -3t-8 3zM203 11q0 -4 -7 -5l-39 -4q-5 -2 -7 -5q-5 -7 -5 -8q-4 -7 -13 -13
q-11 -5 -20 -4q-16 2 -23 11q-9 10 -9 26q0 22 14 31q10 5 18 5h6q14 -3 18 -16q1 -2 1 -7l-3 -4l-6 6q-7 5 -14 5q-6 0 -12 -2q-8 -8 -8 -18q0 -21 22 -21q14 0 21 12l4 8q5 9 12 9l44 -1q6 -1 6 -5zM246 18q3 -4 3 -8q0 -5 -3 -10q-4 -3 -9 -3t-8 3q-4 4 -4 10q0 4 4 8
q3 4 8 4t9 -4z" />
    <glyph glyph-name="uniE250" unicode="&#xe250;" horiz-adv-x="152" 
d="M3 44q-3 5 -3 10q0 12 8 15l38 -4l53 -6q7 -1 7 -5t-7 -5l-91 -9q-4 0 -5 4zM132 63q3 3 8 3q4 0 9 -3q3 -3 3 -9q0 -4 -3 -9q-4 -3 -9 -3t-8 3q-4 4 -4 9q0 6 4 9z" />
    <glyph glyph-name="uniE251" unicode="&#xe251;" horiz-adv-x="168" 
d="M58 66l-3 -4q-2 0 -6 6q-7 5 -14 5q-8 0 -12 -2q-8 -8 -9 -19q2 -21 23 -21q14 0 21 13l4 8q5 9 12 9l44 -1q6 -1 6 -5t-7 -5l-39 -4q-6 -2 -7 -5q-5 -7 -5 -8q-4 -7 -13 -13q-11 -5 -20 -4q-16 2 -23 11q-9 10 -10 26q1 22 15 31q8 5 18 5q4 0 6 -1q14 -1 18 -15
q1 -2 1 -7zM150 62q3 4 7 4q6 0 9 -4q3 -3 3 -9q0 -4 -3 -9q-3 -3 -9 -3q-4 0 -7 3q-4 4 -4 9q0 6 4 9z" />
    <glyph glyph-name="uniE252" unicode="&#xe252;" horiz-adv-x="96" 
d="M4 64q4 4 9 4q6 0 10 -4t4 -10q0 -5 -4 -9t-10 -4q-5 0 -9 4t-4 9q0 6 4 10zM60 44q-4 4 -4 10q0 7 4 10q5 3 10 3q8 0 13 -8l1 -2q3 0 6 3l3 4l2 2q3 0 1 -3q-2 -7 -7 -12q-9 -10 -20 -10q-4 0 -9 3z" />
    <glyph glyph-name="uniE253" unicode="&#xe253;" horiz-adv-x="49" 
d="M0 53q3 54 50 74v-1q-35 -23 -38 -73q3 -46 38 -70v-2q-47 21 -50 72z" />
    <glyph glyph-name="uniE254" unicode="&#xe254;" horiz-adv-x="49" 
d="M0 -18v2q35 24 38 70q-3 50 -38 73v1q47 -20 50 -74q-3 -51 -50 -72z" />
    <glyph glyph-name="uniE255" unicode="&#xe255;" horiz-adv-x="41" 
d="M37 -16h-3l-34 70l34 69q1 1 3 1q5 0 3 -2l-32 -68l32 -69q1 -1 -3 -1z" />
    <glyph glyph-name="uniE256" unicode="&#xe256;" horiz-adv-x="41" 
d="M1 -9l33 65l-33 64q-1 4 3 5q1 0 3 -2l34 -67l-34 -68q0 -2 -3 -2q-4 1 -3 5z" />
    <glyph glyph-name="uniE257" unicode="&#xe257;" horiz-adv-x="45" 
d="M42 131q4 -1 4.5 -3t-1.5 -4l-38 -16v-108l40 -18q2 -5 -5 -5l-42 19v116z" />
    <glyph glyph-name="uniE258" unicode="&#xe258;" horiz-adv-x="49" 
d="M7 -23q-7 0 -5 5l40 18v108l-38 18q-4 5 3 6l42 -20v-116z" />
    <glyph glyph-name="uniE259" unicode="&#xe259;" horiz-adv-x="63" 
d="M37 -14h-3l-34 70l34 69q1 1 3 1q5 0 3 -2l-32 -68l32 -69q1 -1 -3 -1zM60 -14q-3 0 -3 2l-34 68l34 67q2 2 3 2q4 -1 3 -5l-33 -64l33 -65q1 -4 -3 -5z" />
    <glyph glyph-name="uniE25A" unicode="&#xe25a;" horiz-adv-x="62" 
d="M24 -13l32 69l-32 68q-2 2 3 2q2 0 3 -1l34 -69l-34 -70h-3q-4 0 -3 1zM1 -9l33 65l-33 64q-1 4 3 5q1 0 3 -2l34 -67l-34 -68q0 -2 -3 -2q-4 1 -3 5z" />
    <glyph glyph-name="uniE25B" unicode="&#xe25b;" horiz-adv-x="56" 
d="M0 145h21v-157h37v-22h-58v179zM16 142h-11v-171h48v12h-37v159z" />
    <glyph glyph-name="uniE25C" unicode="&#xe25c;" horiz-adv-x="56" 
d="M58 -34h-21v158h-37v21h58v-179zM42 -29h11v171h-48v-12h37v-159z" />
    <glyph glyph-name="uniE25D" unicode="&#xe25d;" horiz-adv-x="60" 
d="M26 37h-4q-20 0 -22 17q2 16 16 17q16 -1 16 -15v-4h4q14 0 23 17l1 -3q-8 -24 -34 -29z" />
    <glyph glyph-name="uniE25E" unicode="&#xe25e;" horiz-adv-x="122" 
d="M122 107l-53 -53l53 -53l-8 -8l-53 53l-53 -53l-8 8l53 53l-53 53l8 8l53 -53l53 53z" />
    <glyph glyph-name="uniE25F" unicode="&#xe25f;" horiz-adv-x="175" 
d="M1 136q0 7 8 4l80 -80l80 80h2q6 0 4 -8l-79 -79l78 -78q3 -3 1 -7t-6 -2l-80 80l-77 -77q-4 -5 -8 -1q-3 3 1 8l77 77l-81 81v2zM70 122q1 18 19 19q17 -2 19 -19q-2 -17 -19 -19q-17 1 -19 19zM3 53q1 18 19 19q17 -2 19 -19q-2 -17 -19 -19q-17 1 -19 19zM136 53
q1 18 19 19q17 -2 19 -19q-2 -17 -19 -19q-17 1 -19 19zM70 -16q1 18 19 19q17 -2 19 -19q-2 -17 -19 -19q-17 1 -19 19z" />
    <glyph glyph-name="uniE260" unicode="&#xe260;" horiz-adv-x="135" 
d="M135 59v-9h-135v9h135z" />
    <glyph glyph-name="uniE261" unicode="&#xe261;" horiz-adv-x="251" 
d="M0 50v9h250v-9h-250z" />
    <glyph glyph-name="uniE263" unicode="&#xe263;" horiz-adv-x="50" 
 />
    <glyph glyph-name="uniE264" unicode="&#xe264;" horiz-adv-x="376" 
d="M189 61q-11 -1 -25 -1l-22 -2h-3q-2 1 -7 12q-4 11 -6 13q-15 -9 -23 -23q-7 -12 -13 -27q-4 -2 -6 -2q-5 0 -26 10q-14 6 -26 13l-28 11q-4 1 -4 3l2 4h9q24 -7 37 -7q16 0 34 7l58 34q3 -1 3 -4l-3 -7q-4 -5 -4 -7q0 -9 19 -9h1l8 1q50 -1 63 -3q51 -13 96 -42l31 -28
l5 -5q4 -4 4 -5q5 -4 7 -4l3 -6q0 -2 -3 -5q-4 -10 -5 -10q-1 -5 -1 -13q-2 -11 -3 -11q-11 5 -14 17l-6 26q-4 16 -10 25l-33 23q-38 23 -85 23q-13 0 -24 -1z" />
    <glyph glyph-name="uniE265" unicode="&#xe265;" horiz-adv-x="370" 
d="M129 64q-7 0 -12 -1q-6 -1 -13 -1q-2 0 -6 2l-12 2q-4 -4 -6 -12q0 -19 -1 -20v-9q-2 -7 -3 -8q-4 -3 -10 -3l-8 2q-13 3 -27 12q-25 12 -31 28q14 -7 35 -7q26 0 27 7q2 0 4 14t9 21q2 2 3 2q6 0 18 -13q18 -3 33 -3h20q25 -1 63 13q77 30 110 56l24 36q11 13 21 17
q1 -1 2 0l1 -2l-1 -2q0 -3 -1 -4q-8 -14 -8 -28q0 -5 1 -8v-8l-35 -12q0 -2 -31 -18q-100 -54 -151 -54q-10 0 -15 1z" />
    <glyph glyph-name="uniE266" unicode="&#xe266;" horiz-adv-x="206" 
d="M143 74q7 0 17 7q11 7 20 17h2q1 0 3 -2q-3 -10 -7 -15q-1 0 -1 -3v-4q2 -2 6 -2l13 3q5 1 13 1v-16l-15 -3l-9 -3h-5q-4 0 -6 5q-3 6 -3 10v4l-3 -2l-9 -6l-10 -6q-7 -5 -9 -5l-4 2q-3 1 -8 12t-3 14q-15 -12 -25 -29q-5 -8 -13 -28l-6 -3q-2 0 -26 11l-26 14
q-12 4 -17.5 6.5t-7.5 3.5q-4 1 -4 4l2 3l9 -1q24 -8 34 -8q15 2 34 9l52 34l6 3q3 -1 3 -3l-7 -9l-3 -6q2 -9 13 -9z" />
    <glyph glyph-name="uniE267" unicode="&#xe267;" horiz-adv-x="162" 
d="M164 76v-16h-3q-3 0 -9 -3l-10 -2h-3q-2 1 -7 12l-6 12q-15 -9 -23 -23q-7 -12 -13 -27q-4 -2 -6 -2q-5 0 -26 10q-14 6 -26 13l-28 11q-4 1 -4 3l2 4h9q24 -7 37 -7q16 0 34 7l58 34q4 2 6 2q3 0 3 -2q0 -3 -1 -5q-4 -7 -12 -13q1 -10 10 -11z" />
    <glyph glyph-name="uniE268" unicode="&#xe268;" horiz-adv-x="207" 
d="M123 52q20 -11 37 -24l22 -18l10 -10l5 -4q4 -4 7 -4l3 -6q0 -3 -2 -5q-3 -3 -4 -6l-2 -5l-3 -15q0 -8 -1 -8q-11 5 -15 17l-5 24q-1 10 -10 22q-16 14 -33 26q-37 24 -86 24h-48v16q49 0 63 -2q34 -6 62 -22z" />
    <glyph glyph-name="uniE269" unicode="&#xe269;" horiz-adv-x="239" 
d="M163 119q-103 -58 -149 -59h-8q-1 -1 -4 -1q-2 0 -3 1v16l9 2l9 2q24 2 63 15q64 23 110 54l12 18l14 20q6 8 19 14h2q1 0 1 -1q0 -2 -1 -3q0 -3 -4 -12q-5 -12 -5 -18q0 -5 1 -9v-9l-35 -12z" />
    <glyph glyph-name="uniE26A" unicode="&#xe26a;" horiz-adv-x="271" 
d="M247 177l2 2q4 3 10 6.5t12 7.5q0 -8 -7 -26l-2 -20l-29 -14q-66 -43 -108 -56l-37 -12l-17 -6q-19 -14 -23 -14t-6 3q-1 3 -3 3q-8 21 -8 26q0 8 6 8h6v-2q13 -8 16 -9q2 -1 14 -1q9 1 40 11q34 9 57 22q41 22 53 34l10 21q5 11 14 16z" />
    <glyph glyph-name="uniE26B" unicode="&#xe26b;" horiz-adv-x="267" 
d="M1 64l-2 -4v16q11 15 17 14q2 0 2 -2l-5 -11l-5 -9q4 -2 6 -2l6 2l8 1q5 0 9 1q3 1 8 1q23 0 63 14q41 15 65 28l45 27l12 19l12 18q10 11 21 16h2q1 0 1 -1q0 -2 -1 -3q0 -2 -1 -2q-8 -18 -8 -28q0 -5 1 -8v-8q-4 -4 -35 -13q-13 -9 -31 -19q-96 -53 -151 -57
q-4 0 -6 -1q-4 -1 -6 1q-5 0 -9 -3q-5 -3 -7 -3q-7 0 -11 16z" />
    <glyph glyph-name="uniE26C" unicode="&#xe26c;" horiz-adv-x="51" 
d="M1.5 62q-1.5 -1 -2.5 -2v16l11 9l15 14l2 1l2 -1q-1 -8 -9 -18l-1 -2q-2 -2 0 -4t6 -2q7 0 13 1l14 2v-16q-12 2 -17 0q-1 -1 -8 -3h-5q-6 2 -7 7q-2 8 -2 10l-7 -9z" />
    <glyph glyph-name="uniE26D" unicode="&#xe26d;" horiz-adv-x="51" 
d="M27 102l2 -2q-3 -8 -5 -12l-5 -9v-4q3 -3 7 -3l12 3q5 1 14 1v-16q-9 0 -24 -5l-6 -1q-7 0 -8 7l-2 12l-3 -4l-9 -9v16l23 24z" />
    <glyph glyph-name="uniE26E" unicode="&#xe26e;" horiz-adv-x="96" 
d="M0 60v16l14 9l18 15l3 1l2 -2q0 -5 -9 -23q2 -3 6 -3q9 0 20 8l18 17q4 4 5 2v-1q0 -6 -7 -16l-2 -4v-4q4 -2 8 -2h9l12 3v-16q-3 -1 -10 -4q-1 -1 -2.5 -1t-2.5 -1q-2 -1 -9 -1q-2 0 -7 9l-5 11q-21 -18 -33 -18q-10 0 -10 16q-6 -10 -18 -11z" />
    <glyph glyph-name="uniE26F" unicode="&#xe26f;" horiz-adv-x="50" 
d="M13 97q1 0 3 -2q3 -3 4 -10l2 -4q3 -5 9 -7l10 1l10 1v-16q-14 0 -17 -1h-3q-2 0 -3 -1h-3q-1 -3 -8 -12q-3 -2 -5 0l-4 10q-1 3 -8 4v16q1 8 10 20q1 1 3 1z" />
    <glyph glyph-name="uniE270" unicode="&#xe270;" horiz-adv-x="370" 
d="M129 64q-7 0 -12 -1q-6 -1 -13 -1q-2 0 -6 2l-12 2q-4 -4 -6 -12q0 -19 -1 -20v-9q-2 -7 -3 -8q-4 -3 -10 -3l-8 2q-13 3 -27 12q-25 12 -31 28q14 -7 35 -7q26 0 27 7q2 0 4 14t9 21q2 2 3 2q6 0 18 -13q18 -3 33 -3h20q25 -1 63 13q77 30 110 56l24 36q11 13 21 17
q1 -1 2 0q1 -1 0 -4q0 -3 -1 -4q-8 -14 -8 -28q0 -5 1 -8v-8l-35 -12q0 -2 -31 -18q-100 -54 -151 -54q-10 0 -15 1z" />
    <glyph glyph-name="uniE271" unicode="&#xe271;" horiz-adv-x="137" 
d="M138 76v-16q-5 1 -19 1q-8 0 -13 -1h-6q-10 0 -17 4q-4 -4 -6 -12q0 -19 -1 -20v-9q-2 -7 -3 -8q-4 -3 -10 -3l-8 2q-16 4 -33 15q-18 13 -22 25q14 -7 32 -7q26 0 27 7l6 15q4 15 7 18q2 2 3 2q6 0 16 -12q-1 0 15 -2q18 0 32 1z" />
    <glyph glyph-name="uniE272" unicode="&#xe272;" horiz-adv-x="206" 
d="M143 74q7 0 17 6l19 18h2q1 0 3 -2l-6 -15q-1 0 -1 -2v-5q2 -2 6 -2l12 2l12 2v-16l-13 -3l-9 -3h-5q-6 0 -9 5v14l-3 -2l-9 -6l-10 -6q-7 -5 -9 -5l-4 2q-3 1 -8 11q-4 8 -4 14q-14 -13 -24 -29q-5 -8 -13 -28q-4 -2 -6 -2l-20 8q-13 5 -32 16q-12 4 -17.5 6.5t-7.5 3.5
q-4 1 -4 4l2 4h9q24 -8 34 -8q13 0 34 8l52 34l6 3q3 -1 3 -3l-7 -9l-3 -6q2 -9 13 -9z" />
    <glyph glyph-name="uniE273" unicode="&#xe273;" horiz-adv-x="209" 
d="M125 52q20 -11 37 -24l22 -18l10 -10l5 -4q4 -4 7 -4l3 -6q0 -3 -2 -5q-3 -3 -4 -6l-2 -5l-3 -15q0 -8 -1 -8q-11 5 -15 17l-5 24q-1 10 -10 22q-16 14 -33 26q-37 24 -86 24h-48v16q49 0 63 -2q34 -6 62 -22z" />
    <glyph glyph-name="uniE274" unicode="&#xe274;" horiz-adv-x="271" 
d="M247 177l2 2q4 3 10 6.5t12 7.5q0 -8 -7 -26l-2 -20l-29 -14q-66 -43 -108 -56l-37 -12l-17 -6q-19 -14 -23 -14t-6 3q-1 3 -3 3q-8 21 -8 26q0 8 6 8h6v-2q13 -8 16 -9q2 -1 14 -1q9 1 40 11q34 9 57 22q41 22 53 34l10 21q5 11 14 16z" />
    <glyph glyph-name="uniE275" unicode="&#xe275;" horiz-adv-x="267" 
d="M2 64l-2 -4v16q11 15 17 14q2 0 2 -2l-5 -11l-5 -9q4 -2 6 -2l6 2l8 1q5 0 9 1q3 1 8 1q23 0 63 14q41 15 65 28l45 27l12 19l12 18q10 11 21 16h2q1 0 0 -4q0 -2 -1 -2q-8 -18 -8 -28q0 -5 1 -8v-8q-4 -4 -35 -13q-13 -9 -31 -19q-96 -53 -151 -57q-4 0 -6 -1
q-4 -1 -6 1q-5 0 -9 -3q-5 -3 -7 -3q-7 0 -11 16z" />
    <glyph glyph-name="uniE276" unicode="&#xe276;" horiz-adv-x="52" 
d="M2.5 62q-1.5 -1 -2.5 -2v16l11 9l15 14l2 1l2 -1q-2 -8 -9 -18l-1 -2q-2 -2 0 -4t6 -2q7 0 13 1l14 2v-16q-12 2 -17 0q-1 -1 -8 -3h-5q-6 2 -7 7q-2 8 -2 10l-7 -9z" />
    <glyph glyph-name="uniE277" unicode="&#xe277;" horiz-adv-x="51" 
d="M27 102l2 -2q-3 -8 -5 -12l-5 -9v-4q3 -3 7 -3l12 3q5 1 14 1v-16q-9 0 -24 -5l-6 -1q-7 0 -8 7l-2 12l-3 -4l-9 -9v16l23 24z" />
    <glyph glyph-name="uniE278" unicode="&#xe278;" horiz-adv-x="50" 
d="M13 97q1 0 3 -2q3 -3 4 -10l2 -4q3 -5 9 -7l10 1l10 1v-16q-14 0 -17 -1h-3q-2 0 -3 -1h-3q-1 -3 -8 -12q-3 -2 -5 0l-4 10q-1 3 -8 4v16q1 8 10 20q1 1 3 1z" />
    <glyph glyph-name="uniE279" unicode="&#xe279;" horiz-adv-x="326" 
d="M175 53l-15 -2h-21q-2 0 -7 12q-4 12 -6 12q-15 -9 -23 -23q-5 -8 -13 -28q-4 -2 -6 -2l-20 8q-13 5 -32 16q-15 5 -20.5 7t-7.5 3q-4 1 -4 4l2 4h9q27 -8 37 -8q13 0 34 8l58 34q3 -1 3 -4l-3 -9l-4 -6q1 -10 23 -10h4q27 4 37 8q12 4 31 23h3q1 0 1 -2v-3q0 -5 -4 -11
l-5 -10q0 -16 17 -16q7 0 39 19q32 20 42 21q2 0 2 -2l-1 -2q-28 -24 -30 -26l-23 -24q-13 -12 -18 -12h-4q-11 0 -18 8q-3 3 -15 25q-1 2 -3 0q-16 -9 -39 -12z" />
    <glyph glyph-name="uniE27A" unicode="&#xe27a;" horiz-adv-x="244" 
d="M149 52q-6 -1 -11 2q-4 2 -7 11q-4 16 -5 16q-15 -7 -23 -22q-8 -16 -13 -29q-4 -2 -6 -2q-5 0 -19 8q-20 8 -33 15q-15 5 -20.5 7t-7.5 3q-4 1 -4 4l2 4h9q27 -8 37 -8q15 0 38 9l54 35l6 2q3 0 3 -2q-3 -8 -14 -19q1 -10 10 -16h10l4 2l4 2q10 8 33 28l35 29h4l1 -2
q-8 -14 -21 -26q-10 -10 -23 -21v-5l7 -3l46 2v-16h-17h-11l-8 1q-9 -6 -15 -6q-2 0 -10 20q-20 -20 -35 -23z" />
    <glyph glyph-name="uniE27B" unicode="&#xe27b;" horiz-adv-x="147" 
d="M55 109q0 -2 1 -2q0 -8 -5 -18l-5 -10q0 -7 5 -12q4 -4 12 -4q7 0 38 19q38 21 44 23q2 0 2 -2l-1 -2q-24 -19 -31 -26l-22 -24q-14 -14 -18 -14h-4q-11 0 -18 8q-4 6 -15 27q-1 1 -4 0q-20 -11 -34 -12v16q24 3 52 31q2 2 3 2z" />
    <glyph glyph-name="uniE27C" unicode="&#xe27c;" horiz-adv-x="112" 
d="M19 95l1 -2l-7 -16l-6 -12q8 -14 20 -14q6 0 41 20t41 23q2 0 2 -2l-1 -2l-28 -28q-24 -21 -25 -23q-14 -14 -18 -14h-4q-11 0 -18 8l-5 9l-10 15l-2 3v16l16 17q2 2 3 2z" />
    <glyph glyph-name="uniE27D" unicode="&#xe27d;" horiz-adv-x="135" 
d="M52 76q2 0 3 1l2 2q12 5 32 21l35 28l3 1l1 -3q-3 -12 -18 -27l-24 -20v-4l50 1v-16l-15 1h-19l-17 -5q-5 0 -7 8l-4 9l-12 -10l-9 -3q-10 -2 -15 -4q-7 -3 -12 -3q-10 0 -10 19l-5 -8q-4 -4 -11 -4v16q13 5 27 22h2l2 -1q0 -9 -7 -16q-1 -1 -1 -4l2 -4q2 -2 5 -2t12 4z
" />
    <glyph glyph-name="uniE27E" unicode="&#xe27e;" horiz-adv-x="78" 
d="M19 63l-4 11q-11 -11 -15 -14v16l14 11l15 12l32 28l3 1l1 -3q-3 -10 -16 -21q-2 -3 -25 -23q-1 -1 -1 -5l1 -1l55 1v-16h-40q-6 -2 -13 -2q-5 0 -7 5z" />
    <glyph glyph-name="uniE27F" unicode="&#xe27f;" horiz-adv-x="51" 
d="M17 93l16 18q5 6 11 8q1 0 2 -3q0 -2 -15 -22l-15 -18q3 -4 6 -4l7 3q5 0 8 1h9h6v-16h-7q-7 0 -15 -3l-9 -3q-4 0 -6 3q-1 2 -5 14l-10 -11v16z" />
    <glyph glyph-name="uniE280" unicode="&#xe280;" horiz-adv-x="134" 
d="M132 61l-21 -2h-16l-8 -2q-9 -2 -11 -4q-8 0 -9 4l-3 6q-2 4 -2 11q-4 0 -6 -2q-3 -3 -5 -7l-4 -6q-4 -7 -11 -7q-6 0 -15 6l-11 9l-9 7q-1 1 -1 7l2 3l8 -5q8 -3 10 -3l5 -1h4q8 2 17 9l52 47q6 2 7 2q3 0 3 -2q-1 -7 -21 -27q-21 -20 -20 -25q3 -5 19 -5h18l31 2v-16
q-1 1 -3 1z" />
    <glyph glyph-name="uniE281" unicode="&#xe281;" horiz-adv-x="131" 
d="M51 59l-8 -4l-6 -2q-5 -2 -9 0q-6 2 -7 7q-1 4 -2 7l-2 6q-6 -10 -17 -13v16q4 0 12 7l12 10l28 28l3 1l1 -3q-3 -9 -14 -24l-10 -13l-3 -4l-1 -1v-4l3 -2q2 -1 6 -1q8 0 14 6q5 0 27 22l35 34l3 1l1 -3q-3 -9 -16 -25l-15 -16l-11 -14l1 -1l56 2v-16h-40q-12 -5 -16 -5
q-5 0 -8 8l-3 10q-6 -8 -14 -14z" />
    <glyph glyph-name="uniE282" unicode="&#xe282;" horiz-adv-x="149" 
d="M26 87q26 26 31 26q3 0 3 -4q0 -8 -4 -15l-8 -12q2 -15 18 -15q5 0 7 1l35 21q23 14 40 18l1 -2q1 -1 -1 -3q-25 -18 -45 -43q-11 -14 -20 -19h-5q-14 0 -23 12q-3 3 -14 25q-3 0 -20 -9l-21 -9q0 2 26 28z" />
    <glyph glyph-name="uniE283" unicode="&#xe283;" horiz-adv-x="212" 
d="M204 77q-8 -13 -11 -16q-3 0 -12 -4q-11 -3 -12 -4h-4q-7 0 -21 3q-12 4 -21 4h-6l-6 -1q-3 -1 -7 -1q-2 0 -6 2l-12 5q-4 -4 -6 -12q0 -19 -1 -20v-9q-2 -7 -3 -8q-4 -3 -10 -3l-8 2q-13 3 -27 12q-25 12 -31 28q14 -7 35 -7q26 0 27 7q2 0 9 19q2 15 3 18q2 3 4 3
q6 0 18 -16q6 0 11 -1q4 -1 10 -1q4 0 7 1l4 27q14 29 40 32q20 0 24 -1q12 -5 19 -18q1 -3 1 -10q0 -10 -1 -13q-3 -14 -7 -18zM159 73q15 0 31 8q7 7 8 14q-1 9 -6 15q-7 4 -22 4q-6 0 -18 -6q-12 -5 -14 -19l-1 -5q0 -3 3 -8q8 -3 19 -3z" />
    <glyph glyph-name="uniE284" unicode="&#xe284;" horiz-adv-x="227" 
d="M110 58l-6 -1q-2 0 -6 2l-12 5q-4 -4 -6 -12q0 -19 -1 -20v-9q-2 -7 -3 -8q-4 -3 -10 -3l-8 2q-13 3 -27 12q-25 12 -31 28q14 -7 35 -7q26 0 27 7q2 0 9 19q2 15 3 18q2 3 4 3q6 0 18 -16q6 0 11 -1q4 -1 10 -1q4 0 7 1l4 24q3 11 12 21q14 13 28 14q17 0 27 -2
q5 -1 14 -10q6 -7 6 -17q0 -6 -3 -14t-7 -12l-2 -2q-2 -2 -2 -3l2 -1l25 1v-16l-35 1q-3 0 -12 -4q-11 -3 -12 -4h-4q-6 0 -20 3q-12 4 -21 4q-4 0 -14 -2zM158 73q15 0 31 8q7 7 8 14q-1 9 -6 15q-7 4 -22 4q-6 0 -18 -6q-12 -5 -14 -19l-1 -5q0 -3 3 -8q7 -3 19 -3z" />
    <glyph glyph-name="uniE285" unicode="&#xe285;" horiz-adv-x="116" 
d="M23 5l-8 9q-7 7 -9 22q-1 5 -3 24h-3v16l4 1l1 8q2 9 8 15q6 8 11 11l7 7l12 5q12 5 15 5q4 1 10 1t9 -1q13 0 23 -5q14 -9 15 -15l1 -6q0 -3 -13 -16l-13 -19q-4 -5 -8 -7h-69q0 -15 6 -29q6 -7 8 -7q7 -4 20 -4q28 0 50 14q17 11 19 11q0 -5 -6 -14q-9 -9 -31 -20
q-25 -11 -36 -11h-11q-6 2 -9 5zM25 96l-3 -4q-3 -4 -3 -9v-8q15 0 35 3q29 5 29 14v4q0 3 -3 6l-14 7l-12 1q-6 0 -12 -2q-8 -2 -13 -8q-1 0 -4 -4z" />
    <glyph glyph-name="uniE286" unicode="&#xe286;" horiz-adv-x="96" 
d="M94 94q-1 -4 -2 -6.5t-2 -4.5l-4 -6q-5 -9 -10 -14q-15 -8 -24 -10h-4q-6 0 -20 3q-12 4 -21 4h-7v16q4 0 7 1q1 20 4 28q5 12 16 20q12 11 24 12q16 0 26 -2q6 -1 13 -10q6 -7 6 -17q0 -4 -2 -14zM41 73q15 0 31 8q7 7 8 14q-1 9 -6 15q-7 4 -22 4q-6 0 -18 -6
q-12 -5 -14 -19l-1 -5q0 -3 3 -8q7 -3 19 -3z" />
    <glyph glyph-name="uniE287" unicode="&#xe287;" horiz-adv-x="28" 
d="M17 60h-28q-4 -1 -13 0l-19 2q-5 7 -5 19q4 20 11 26q17 17 48 17q9 -2 11 -5q7 -12 5 -22l-1 -16q-1 -13 -9 -21zM-13 106q-9 -1 -17 -8q-8 -6 -8 -14q0 -12 18 -12t29 4q7 4 7 22q-6 8 -29 8z" />
    <glyph glyph-name="uniE288" unicode="&#xe288;" horiz-adv-x="164" 
d="M39 74l13 2q6 0 10 1q2 20 3 24q3 11 15 21q11 12 26 14q17 0 27 -2q5 -1 14 -10q6 -7 6 -17q0 -6 -3 -14t-7 -12l-2 -2q-2 -2 -2 -3l2 -1l24 1v-16l-34 1q-3 0 -12 -4q-11 -3 -12 -4h-4q-6 0 -20 3q-12 4 -21 4h-9h-6q-8 0 -9 -1q-2 -1 -4.5 -2t-5.5 -2h-5q-6 2 -7 6
l-2 13l-7 -9l-4.5 -3t-2.5 -2v16l11 9l16 16l2 1l2 -1q-1 -6 -10 -20l-1 -2q-2 -2 0 -4t6 -2q7 0 13 1zM96 73q15 0 31 8q7 7 8 14q-1 9 -6 15q-7 4 -22 4q-6 0 -18 -6q-12 -5 -14 -19l-1 -5q0 -3 3 -8q8 -3 19 -3z" />
    <glyph glyph-name="uniE289" unicode="&#xe289;" horiz-adv-x="116" 
d="M14 101q3 11 15 21q11 12 26 14q17 0 27 -2q5 -1 14 -10q6 -7 6 -17q0 -6 -3 -14t-7 -12l-2 -2q-2 -2 -2 -3l2 -1l27 1v-16l-37 1q-3 0 -12 -4q-11 -3 -12 -4h-4q-6 0 -20 3q-12 4 -21 4h-11v16q6 0 11 1q2 20 3 24zM45 73q15 0 31 8q7 7 8 14q-1 9 -6 15q-7 4 -22 4
q-6 0 -18 -6q-12 -5 -14 -19l-1 -5q0 -3 3 -8q8 -3 19 -3z" />
    <glyph glyph-name="uniE28A" unicode="&#xe28a;" horiz-adv-x="39" 
d="M19 60h-35q-10 -1 -14 0q-3 0 -15 2q-5 8 -5 19q4 18 10 26q7 8 22 13q13 4 26 3q4 0 5 -1q2 0 6 -4q4 -8 4 -19q0 -15 -3 -23h20v-16q-17 -1 -21 0zM-6 107q-6 0 -10 -1q-22 -7 -22 -22q0 -12 18 -12q15 0 27 4q6 5 6 22q-4 9 -19 9z" />
    <glyph glyph-name="uniE28B" unicode="&#xe28b;" horiz-adv-x="212" 
d="M204 77q-8 -13 -11 -16q-3 0 -12 -4q-11 -3 -12 -4h-4q-7 0 -21 3q-12 4 -21 4h-6l-6 -1q-3 -1 -7 -1q-2 0 -6 2l-12 5q-4 -4 -6 -12q0 -19 -1 -20v-9q-2 -7 -3 -8q-4 -3 -10 -3l-8 2q-13 3 -27 12q-25 12 -31 28q14 -7 35 -7q26 0 27 7q2 0 9 19q2 15 3 18q2 3 4 3
q6 0 18 -16q6 0 11 -1q4 -1 10 -1q4 0 7 1l4 27q14 29 40 32q20 0 24 -1q12 -5 19 -18q1 -3 1 -10q0 -10 -1 -13q-3 -14 -7 -18zM159 73q15 0 31 8q7 7 8 14q-1 9 -6 15q-7 4 -22 4q-6 0 -18 -6q-12 -5 -14 -19l-1 -5q0 -3 3 -8q8 -3 19 -3z" />
    <glyph glyph-name="uniE28C" unicode="&#xe28c;" horiz-adv-x="227" 
d="M110 58l-6 -1q-2 0 -6 2l-12 5q-4 -4 -6 -12q0 -19 -1 -20v-9q-2 -7 -3 -8q-4 -3 -10 -3l-8 2q-13 3 -27 12q-25 12 -31 28q14 -7 35 -7q26 0 27 7q2 0 9 19q2 15 3 18q2 3 4 3q6 0 18 -16q6 0 11 -1q4 -1 10 -1q4 0 7 1l4 24q3 11 12 21q14 13 28 14q17 0 27 -2
q5 -1 14 -10q6 -7 6 -17q0 -6 -3 -14t-7 -12l-2 -2q-2 -2 -2 -3l2 -1l25 1v-16l-35 1q-3 0 -12 -4q-11 -3 -12 -4h-4q-6 0 -20 3q-12 4 -21 4q-4 0 -14 -2zM158 73q15 0 31 8q7 7 8 14q-1 9 -6 15q-7 4 -22 4q-6 0 -18 -6q-12 -5 -14 -19l-1 -5q0 -3 3 -8q7 -3 19 -3z" />
    <glyph glyph-name="uniE28D" unicode="&#xe28d;" horiz-adv-x="116" 
d="M23 5l-8 9q-7 7 -9 22q-1 5 -3 24h-3v16l4 1l1 8q2 9 8 15q6 8 11 11l7 7l12 5q12 5 15 5q4 1 10 1t9 -1q13 0 23 -5q14 -9 15 -15l1 -6q0 -3 -13 -16l-13 -19q-4 -5 -8 -7h-69q0 -15 6 -29q6 -7 8 -7q7 -4 20 -4q28 0 50 14q17 11 19 11q0 -5 -6 -14q-9 -9 -31 -20
q-25 -11 -36 -11h-11q-6 2 -9 5zM25 96l-3 -4q-3 -4 -3 -9v-8q15 0 35 3q29 5 29 14v4q0 3 -3 6l-14 7l-12 1q-6 0 -12 -2q-8 -2 -13 -8q-1 0 -4 -4z" />
    <glyph glyph-name="uniE28E" unicode="&#xe28e;" horiz-adv-x="96" 
d="M94 94q-1 -4 -2 -6.5t-2 -4.5l-4 -6q-5 -9 -10 -14q-15 -8 -24 -10h-4q-6 0 -20 3q-12 4 -21 4h-7v16q4 0 7 1q1 20 4 28q5 12 16 20q12 11 24 12q16 0 26 -2q6 -1 13 -10q6 -7 6 -17q0 -4 -2 -14zM41 73q15 0 31 8q7 7 8 14q-1 9 -6 15q-7 4 -22 4q-6 0 -18 -6
q-12 -5 -14 -19l-1 -5q0 -3 3 -8q7 -3 19 -3z" />
    <glyph glyph-name="uniE28F" unicode="&#xe28f;" horiz-adv-x="28" 
d="M17 60h-28q-4 -1 -13 0l-19 2q-5 7 -5 19q4 20 11 26q17 17 48 17q9 -2 11 -5q7 -12 5 -22l-1 -16q-1 -13 -9 -21zM-13 106q-9 -1 -17 -8q-8 -6 -8 -14q0 -12 18 -12t29 4q7 4 7 22q-6 8 -29 8z" />
    <glyph glyph-name="uniE290" unicode="&#xe290;" horiz-adv-x="164" 
d="M39 74l13 2q6 0 10 1q2 20 3 24q3 11 15 21q11 12 26 14q17 0 27 -2q5 -1 14 -10q6 -7 6 -17q0 -6 -3 -14t-7 -12l-2 -2q-2 -2 -2 -3l2 -1l24 1v-16l-34 1q-3 0 -12 -4q-11 -3 -12 -4h-4q-6 0 -20 3q-12 4 -21 4h-9h-6q-8 0 -9 -1q-2 -1 -4.5 -2t-5.5 -2h-5q-6 2 -7 6
l-2 13l-7 -9l-4.5 -3t-2.5 -2v16l11 9l16 16l2 1l2 -1q-1 -6 -10 -20l-1 -2q-2 -2 0 -4t6 -2q7 0 13 1zM96 73q15 0 31 8q7 7 8 14q-1 9 -6 15q-7 4 -22 4q-6 0 -18 -6q-12 -5 -14 -19l-1 -5q0 -3 3 -8q8 -3 19 -3z" />
    <glyph glyph-name="uniE291" unicode="&#xe291;" horiz-adv-x="116" 
d="M14 101q3 11 15 21q11 12 26 14q17 0 27 -2q5 -1 14 -10q6 -7 6 -17q0 -6 -3 -14t-7 -12l-2 -2q-2 -2 -2 -3l2 -1l27 1v-16l-37 1q-3 0 -12 -4q-11 -3 -12 -4h-4q-6 0 -20 3q-12 4 -21 4h-11v16q6 0 11 1q2 20 3 24zM45 73q15 0 31 8q7 7 8 14q-1 9 -6 15q-7 4 -22 4
q-6 0 -18 -6q-12 -5 -14 -19l-1 -5q0 -3 3 -8q8 -3 19 -3z" />
    <glyph glyph-name="uniE292" unicode="&#xe292;" horiz-adv-x="39" 
d="M19 60h-35q-10 -1 -14 0q-3 0 -15 2q-5 8 -5 19q4 18 10 26q7 8 22 13q13 4 26 3q4 0 5 -1q2 0 6 -4q4 -8 4 -19q0 -15 -3 -23h20v-16q-17 -1 -21 0zM-6 107q-6 0 -10 -1q-22 -7 -22 -22q0 -12 18 -12q15 0 27 4q6 5 6 22q-4 9 -19 9z" />
    <glyph glyph-name="uniE293" unicode="&#xe293;" horiz-adv-x="272" 
d="M215 60l-22 1l-11 -4l-13 -4h-4q-6 0 -20 3q-12 4 -21 4h-7l-6 -1q-3 -1 -7 -1q-2 0 -6 2l-12 6q-4 -4 -6 -12q0 -20 -1 -21v-9q-2 -7 -3 -8q-4 -3 -10 -3l-8 2q-13 3 -27 12q-25 12 -31 28q14 -7 35 -7q26 0 27 7q2 0 9 19q2 15 3 18q2 3 4 3q6 0 18 -16q6 0 11 -1
q4 -1 10 -1h7q2 20 3 24q3 11 15 21q11 12 26 14q17 0 27 -2q5 -1 14 -10q6 -7 6 -17q0 -6 -3 -14t-7 -12l-2 -2q-2 -2 -2 -3l2 -1q7 0 12 1l17 3q15 5 22 13q17 20 16 19q1 0 2 -3q1 -1 1 -4q0 -8 -8 -29q-9 -18 -18 -17q-22 2 -32 2zM158 73q15 0 31 8q7 7 8 14
q-1 9 -6 15q-7 4 -22 4q-6 0 -18 -6q-12 -5 -14 -19l-1 -5q0 -3 3 -8q7 -3 19 -3z" />
    <glyph glyph-name="uniE294" unicode="&#xe294;" horiz-adv-x="241" 
d="M128 77l1 8q2 9 8 15q6 8 11 11l7 7l12 5q12 5 15 5q4 1 10 1t9 -1q13 0 23 -5q14 -9 15 -15l1 -6q0 -3 -13 -16l-13 -19q-4 -5 -8 -7h-69q0 -15 6 -29q6 -7 8 -7q7 -4 20 -4q28 0 50 14q17 11 19 11q0 -5 -6 -14q-9 -9 -31 -20q-25 -11 -36 -11h-11q-6 2 -9 5l-8 9
q-7 7 -9 22q-1 5 -3 24h-10l-6 -2q-3 -1 -7 -1q-2 0 -6 2l-12 5q-4 -4 -6 -12q0 -19 -1 -20v-9q-2 -7 -3 -8q-4 -3 -10 -3l-8 2q-13 3 -27 12q-25 12 -31 28q14 -7 35 -7q26 0 27 7q2 0 9 19q2 15 3 18q2 3 4 3q6 0 18 -16q6 0 11 -1q4 -1 10 -1h7zM149 96l-3 -4
q-3 -4 -3 -9v-8q16 0 35 3q29 5 29 14v4q0 3 -3 6l-5 3l-9 4l-12 1q-6 0 -12 -2q-7 -2 -13 -8q-1 0 -4 -4z" />
    <glyph glyph-name="uniE295" unicode="&#xe295;" horiz-adv-x="313" 
d="M218 60l-25 1q-3 0 -12 -4q-11 -3 -12 -4h-4q-6 0 -20 3q-12 4 -21 4l-10 -2l-10 -1q-2 0 -6 2l-12 5q-4 -4 -6 -12q0 -19 -1 -20v-9q-2 -7 -3 -8q-4 -3 -10 -3l-8 2q-13 3 -27 12q-25 12 -31 28q14 -7 35 -7q26 0 27 7q2 0 9 19q2 15 3 18q2 3 4 3q6 0 18 -16q6 0 11 -1
q4 -1 10 -1q4 0 7 1q2 20 3 24q3 11 15 21q11 12 26 14q17 0 27 -2q5 -1 14 -10q6 -7 6 -17q0 -6 -3 -14t-7 -12l-2 -2q-2 -2 -2 -3l2 -1q8 0 15 1l10 2q12 5 35 24l34 28l3 1l1 -2q-3 -13 -18 -28q-3 -2 -23 -22l-1 -1l1 -2h55v-16l-21 2q-3 1 -10 1q-6 0 -9 -1q-2 0 -7 -3
l-9 -2q-6 0 -11 17q-14 -12 -30 -14zM158 73q15 0 31 8q7 7 8 14q-1 9 -6 15q-7 4 -22 4q-6 0 -18 -6q-12 -5 -14 -19l-1 -5q0 -3 3 -8q7 -3 19 -3z" />
    <glyph glyph-name="uniE296" unicode="&#xe296;" horiz-adv-x="116" 
d="M23 5l-8 9q-7 7 -9 22q-1 5 -3 24h-3v16l4 1l1 8q2 9 8 15q6 8 11 11l7 7l12 5q12 5 15 5q4 1 10 1t9 -1q13 0 23 -5q14 -9 15 -15l1 -6q0 -3 -13 -16l-13 -19q-4 -5 -8 -7h-69q0 -15 6 -29q6 -7 8 -7q7 -4 20 -4q28 0 50 14q17 11 19 11q0 -5 -6 -14q-9 -9 -31 -20
q-25 -11 -36 -11h-11q-6 2 -9 5zM25 96l-3 -4q-3 -4 -3 -9v-8q15 0 35 3q29 5 29 14v4q0 3 -3 6l-14 7l-12 1q-6 0 -12 -2q-8 -2 -13 -8q-1 0 -4 -4z" />
    <glyph glyph-name="uniE297" unicode="&#xe297;" horiz-adv-x="145" 
d="M137 75q-9 -18 -18 -17q-24 2 -33 2h-31h-28l-13 -1h-5q-7 0 -9 1v16q4 1 6 5q5 16 11 22q7 7 21 12q15 5 27 5q8 -2 11 -5q6 -12 6 -21l-2 -17h6q16 0 18 2q20 5 29 20q5 8 9 12q2 0 3 -3v-4q0 -8 -8 -29zM41 102q-23 -6 -23 -18q0 -9 4 -12q6 -2 14 -2q15 0 27 3
q7 4 7 22q-7 7 -29 7z" />
    <glyph glyph-name="uniE298" unicode="&#xe298;" horiz-adv-x="89" 
d="M-29 60q-4 0 -16 2q-5 8 -5 19q5 20 11 26q17 17 48 17q9 -2 11 -5q6 -13 6 -22l-2 -20h6q16 0 18 2q20 5 29 20q5 8 9 12q2 0 3 -3v-4q0 -8 -8 -29q-9 -18 -18 -17q-24 2 -33 2h-45q-10 -1 -14 0zM-15 106q-8 -2 -15 -9q-8 -6 -8 -13q0 -12 18 -12t27 4q7 3 7 22
q-6 8 -29 8z" />
    <glyph glyph-name="uniE299" unicode="&#xe299;" horiz-adv-x="96" 
d="M94 94q-1 -4 -2 -6.5t-2 -4.5l-4 -6q-5 -9 -10 -14q-15 -8 -24 -10h-4q-6 0 -20 3q-12 4 -21 4h-7v16q4 0 7 1q1 20 4 28q5 12 16 20q12 11 24 12q16 0 26 -2q6 -1 13 -10q6 -7 6 -17q0 -4 -2 -14zM41 73q15 0 31 8q7 7 8 14q-1 9 -6 15q-7 4 -22 4q-6 0 -18 -6
q-12 -5 -14 -19l-1 -5q0 -3 3 -8q7 -3 19 -3z" />
    <glyph glyph-name="uniE29A" unicode="&#xe29a;" horiz-adv-x="28" 
d="M17 60h-28q-4 -1 -13 0l-19 2q-5 7 -5 19q4 20 11 26q17 17 48 17q9 -2 11 -5q7 -12 5 -22l-1 -16q-1 -13 -9 -21zM-13 106q-9 -1 -17 -8q-8 -6 -8 -14q0 -12 18 -12t29 4q7 4 7 22q-6 8 -29 8z" />
    <glyph glyph-name="uniE29B" unicode="&#xe29b;" horiz-adv-x="247" 
d="M163 60l-32 1q-3 0 -12 -4q-11 -3 -12 -4h-4q-6 0 -20 3q-12 4 -21 4h-9h-6q-8 0 -9 -1q-2 -1 -4.5 -2t-5.5 -2h-5q-6 2 -7 6l-2 13l-7 -9l-4.5 -3t-2.5 -2v16l11 9l16 16l2 1l2 -1q-1 -6 -10 -20l-1 -2q-2 -2 0 -4t6 -2l12 2q3 1 12 1t12 1q2 20 3 24q3 11 15 21
q11 12 26 14q17 0 27 -2q5 -1 14 -10q6 -7 6 -17q0 -6 -3 -14t-7 -12l-2 -2q-2 -2 -2 -3l2 -1l22 1q8 3 16 10l19 15l35 28l3 1l1 -2q-3 -13 -18 -28l-24 -20v-4h54v-16l-19 2q-3 1 -10 1q-6 0 -9 -1q-4 0 -8 -3l-9 -2q-5 0 -7 6l-3 11q-14 -12 -21 -14zM96 73q15 0 31 8
q7 7 8 14q-1 9 -6 15q-7 4 -22 4q-6 0 -18 -6q-12 -5 -14 -19l-1 -5q0 -3 3 -8q8 -3 19 -3z" />
    <glyph glyph-name="uniE29C" unicode="&#xe29c;" horiz-adv-x="197" 
d="M-1 76l7 2q2 21 3 27q6 12 18 21q11 10 23 11q20 0 24 -1q12 -5 19 -18q1 -3 1 -10q0 -21 -7 -25l-3 -3v-3l1 -1l14 1q7 0 10 1q13 5 35 25l34 29l3 1l1 -2q-3 -13 -19 -27q-10 -10 -23 -25v-1l1 -2h58v-16l-24 2q-3 1 -10 1q-6 0 -9 -1q-2 0 -7 -3l-9 -2q-6 0 -11 17
q-14 -12 -30 -14l-24 1l-11 -4l-13 -4h-4q-6 0 -20 3q-12 4 -21 4h-7v16zM69 109q-8 6 -19 6q-8 0 -17 -4q-14 -8 -14 -22q0 -7 5 -14q5 -1 16 -1q16 0 29 5q7 6 7 16t-7 14z" />
    <glyph glyph-name="uniE29D" unicode="&#xe29d;" horiz-adv-x="113" 
d="M114 75v-16l-21 1l-19 1q-12 -5 -17 -5t-7 8l-3 9l-13 -11q-6 -2 -16 -2h-36q-10 -1 -14 0q-3 0 -15 2q-5 8 -5 19q4 18 10 26q7 8 22 13q13 4 26 3q4 0 5 -1q2 0 6 -4q4 -8 4 -19q0 -15 -3 -23l9 1q13 4 31 21l33 28l3 1l1 -4q-4 -9 -18 -24l-19 -18q-1 -1 0 -5l1 -1h55
zM11 98q-4 9 -19 9q-6 0 -10 -1q-22 -7 -22 -22q0 -12 18 -12q15 0 27 4q6 5 6 22z" />
    <glyph glyph-name="uniE29E" unicode="&#xe29e;" horiz-adv-x="116" 
d="M14 101q3 11 15 21q11 12 26 14q17 0 27 -2q5 -1 14 -10q6 -7 6 -17q0 -6 -3 -14t-7 -12l-2 -2q-2 -2 -2 -3l2 -1l27 1v-16l-37 1q-3 0 -12 -4q-11 -3 -12 -4h-4q-6 0 -20 3q-12 4 -21 4h-11v16q6 0 11 1q2 20 3 24zM45 73q15 0 31 8q7 7 8 14q-1 9 -6 15q-7 4 -22 4
q-6 0 -18 -6q-12 -5 -14 -19l-1 -5q0 -3 3 -8q8 -3 19 -3z" />
    <glyph glyph-name="uniE29F" unicode="&#xe29f;" horiz-adv-x="39" 
d="M19 60h-35q-10 -1 -14 0q-3 0 -15 2q-5 8 -5 19q4 18 10 26q7 8 22 13q13 4 26 3q4 0 5 -1q2 0 6 -4q4 -8 4 -19q0 -15 -3 -23h20v-16q-17 -1 -21 0zM-6 107q-6 0 -10 -1q-22 -7 -22 -22q0 -12 18 -12q15 0 27 4q6 5 6 22q-4 9 -19 9z" />
    <glyph glyph-name="uniE2A0" unicode="&#xe2a0;" horiz-adv-x="272" 
d="M215 60l-22 1l-11 -4l-13 -4h-4q-6 0 -20 3q-12 4 -21 4h-7l-6 -1q-3 -1 -7 -1q-2 0 -6 2l-12 6q-4 -4 -6 -12q0 -20 -1 -21v-9q-2 -7 -3 -8q-4 -3 -10 -3l-8 2q-13 3 -27 12q-25 12 -31 28q14 -7 35 -7q26 0 27 7q2 0 9 19q2 15 3 18q2 3 4 3q6 0 18 -16q6 0 11 -1
q4 -1 10 -1h7q2 20 3 24q3 11 15 21q11 12 26 14q17 0 27 -2q5 -1 14 -10q6 -7 6 -17q0 -6 -3 -14t-7 -12l-2 -2q-2 -2 -2 -3l2 -1q7 0 12 1l17 3q15 5 22 13q17 20 16 19q1 0 2 -3q1 -1 1 -4q0 -8 -8 -29q-9 -18 -18 -17q-22 2 -32 2zM158 73q15 0 31 8q7 7 8 14
q-1 9 -6 15q-7 4 -22 4q-6 0 -18 -6q-12 -5 -14 -19l-1 -5q0 -3 3 -8q7 -3 19 -3z" />
    <glyph glyph-name="uniE2A1" unicode="&#xe2a1;" horiz-adv-x="241" 
d="M128 77l1 8q2 9 8 15q6 8 11 11l7 7l12 5q12 5 15 5q4 1 10 1t9 -1q13 0 23 -5q14 -9 15 -15l1 -6q0 -3 -13 -16l-13 -19q-4 -5 -8 -7h-69q0 -15 6 -29q6 -7 8 -7q7 -4 20 -4q28 0 50 14q17 11 19 11q0 -5 -6 -14q-9 -9 -31 -20q-25 -11 -36 -11h-11q-6 2 -9 5l-8 9
q-7 7 -9 22q-1 5 -3 24h-10l-6 -2q-3 -1 -7 -1q-2 0 -6 2l-12 5q-4 -4 -6 -12q0 -19 -1 -20v-9q-2 -7 -3 -8q-4 -3 -10 -3l-8 2q-13 3 -27 12q-25 12 -31 28q14 -7 35 -7q26 0 27 7q2 0 9 19q2 15 3 18q2 3 4 3q6 0 18 -16q6 0 11 -1q4 -1 10 -1h7zM149 96l-3 -4
q-3 -4 -3 -9v-8q16 0 35 3q29 5 29 14v4q0 3 -3 6l-5 3l-9 4l-12 1q-6 0 -12 -2q-7 -2 -13 -8q-1 0 -4 -4z" />
    <glyph glyph-name="uniE2A2" unicode="&#xe2a2;" horiz-adv-x="312" 
d="M217 60l-25 1q-3 0 -12 -4q-11 -3 -12 -4h-4q-6 0 -20 3q-12 4 -21 4l-10 -2l-10 -1q-2 0 -6 2l-12 5q-4 -4 -6 -12q0 -19 -1 -20v-9q-2 -7 -3 -8q-4 -3 -10 -3l-8 2q-13 3 -27 12q-25 12 -31 28q14 -7 35 -7q26 0 27 7q2 0 9 19q2 15 3 18q2 3 4 3q6 0 18 -16q6 0 11 -1
q4 -1 10 -1q4 0 7 1q2 20 3 24q3 11 15 21q11 12 26 14q17 0 27 -2q5 -1 14 -10q6 -7 6 -17q0 -6 -3 -14t-7 -12l-2 -2q-2 -2 -2 -3l2 -1q8 0 15 1l10 2q12 5 35 24l34 28l3 1l1 -2q-3 -13 -18 -28q-3 -2 -23 -22l-1 -1l1 -2h55v-16l-21 2q-3 1 -10 1q-6 0 -9 -1q-2 0 -7 -3
l-9 -2q-6 0 -11 17q-14 -12 -30 -14zM157 73q15 0 31 8q7 7 8 14q-1 9 -6 15q-7 4 -22 4q-6 0 -18 -6q-12 -5 -14 -19l-1 -5q0 -3 3 -8q7 -3 19 -3z" />
    <glyph glyph-name="uniE2A3" unicode="&#xe2a3;" horiz-adv-x="116" 
d="M23 5l-8 9q-7 7 -9 22q-1 5 -3 24h-3v16l4 1l1 8q2 9 8 15q6 8 11 11l7 7l12 5q12 5 15 5q4 1 10 1t9 -1q13 0 23 -5q14 -9 15 -15l1 -6q0 -3 -13 -16l-13 -19q-4 -5 -8 -7h-69q0 -15 6 -29q6 -7 8 -7q7 -4 20 -4q28 0 50 14q17 11 19 11q0 -5 -6 -14q-9 -9 -31 -20
q-25 -11 -36 -11h-11q-6 2 -9 5zM25 96l-3 -4q-3 -4 -3 -9v-8q15 0 35 3q29 5 29 14v4q0 3 -3 6l-14 7l-12 1q-6 0 -12 -2q-8 -2 -13 -8q-1 0 -4 -4z" />
    <glyph glyph-name="uniE2A4" unicode="&#xe2a4;" horiz-adv-x="145" 
d="M137 75q-9 -18 -18 -17q-24 2 -33 2h-31h-28l-13 -1h-5q-7 0 -9 1v16q4 1 6 5q5 16 11 22q7 7 21 12q15 5 27 5q8 -2 11 -5q6 -12 6 -21l-2 -17h6q16 0 18 2q20 5 29 20q5 8 9 12q2 0 3 -3v-4q0 -8 -8 -29zM41 102q-23 -6 -23 -18q0 -9 4 -12q6 -2 14 -2q15 0 27 3
q7 4 7 22q-7 7 -29 7z" />
    <glyph glyph-name="uniE2A5" unicode="&#xe2a5;" horiz-adv-x="89" 
d="M-29 60q-4 0 -16 2q-5 8 -5 19q5 20 11 26q17 17 48 17q9 -2 11 -5q6 -13 6 -22l-2 -20h6q16 0 18 2q20 5 29 20q5 8 9 12q2 0 3 -3v-4q0 -8 -8 -29q-9 -18 -18 -17q-24 2 -33 2h-45q-10 -1 -14 0zM-15 106q-8 -2 -15 -9q-8 -6 -8 -13q0 -12 18 -12t27 4q7 3 7 22
q-6 8 -29 8z" />
    </font>
</defs>
</svg>
